<svg width="8" height="14" viewBox="0 0 8 14" fill="none" xmlns="http://www.w3.org/2000/svg">
<path d="M0.137231 6.63808C0.135307 6.46781 0.163688 6.29883 0.220746 6.14085C0.277805 5.98286 0.362417 5.83896 0.469733 5.71741L5.10161 0.513762C5.20957 0.392467 5.33804 0.29599 5.47967 0.229839C5.62129 0.163688 5.77331 0.129158 5.92704 0.128222C6.08077 0.127286 6.23319 0.159962 6.37562 0.224383C6.51804 0.288805 6.64767 0.38371 6.75711 0.503681C6.86654 0.623652 6.95364 0.76634 7.01343 0.923597C7.07322 1.08085 7.10453 1.2496 7.10557 1.4202C7.10661 1.5908 7.07736 1.75992 7.01949 1.91789C6.96162 2.07586 6.87626 2.2196 6.7683 2.3409L2.93526 6.62104L6.66866 10.868C6.78863 10.9863 6.88536 11.1308 6.95278 11.2924C7.02021 11.454 7.05688 11.6292 7.0605 11.8072C7.06413 11.9852 7.03463 12.162 6.97385 12.3266C6.91307 12.4912 6.82232 12.6401 6.70727 12.764C6.59222 12.8879 6.45536 12.984 6.30523 13.0464C6.1551 13.1089 5.99494 13.1362 5.83476 13.1268C5.67458 13.1174 5.51784 13.0714 5.37433 12.9917C5.23081 12.9121 5.10362 12.8004 5.00071 12.6637L0.469026 7.51588C0.262028 7.28053 0.143401 6.96668 0.137231 6.63808Z" fill="#5C9DFF"/>
</svg>
