<svg width="343" height="68" viewBox="0 0 343 68" fill="none" xmlns="http://www.w3.org/2000/svg">
<rect x="0.516966" y="12.2569" width="340" height="55" rx="14.5" transform="rotate(-1.97872 0.516966 12.2569)" fill="#5C9DFF" stroke="white"/>
<rect x="213.788" y="20.7488" width="113.3" height="23.3" rx="4.65" transform="rotate(-1.97874 213.788 20.7488)" stroke="white" stroke-width="0.7"/>
<path d="M20.6934 31.4854L26.6209 31.2805L33.6864 37.385L40.4517 30.8027L46.3332 30.5995L46.8841 46.544L40.1754 46.7758L39.8675 37.8615L34.8941 43.0479L33.0562 43.1114L27.6892 38.2363L28.0067 47.4262L21.2521 47.6596L20.6934 31.4854Z" fill="white"/>
<path d="M48.2627 30.5332L65.8154 29.9267L65.9504 33.8325L55.1063 34.2071L55.1793 36.3208L64.3692 36.0033L64.4962 39.6793L55.3063 39.9968L55.3857 42.2943L66.3676 41.9148L66.5041 45.8665L48.8135 46.4777L48.2627 30.5332Z" fill="white"/>
<path d="M72.2681 44.8852C70.4955 44.3141 68.8844 43.3289 67.5683 42.0113C66.4213 40.9392 65.7422 39.4589 65.6778 37.8902C65.5947 36.3274 66.1186 34.793 67.14 33.6073C68.3908 32.2341 69.9221 31.1457 71.6301 30.4159C73.7706 29.571 76.0458 29.1184 78.3466 29.0797C80.1488 29.013 81.9514 29.1985 83.7022 29.6307C85.3583 30.0114 86.9371 30.6725 88.3702 31.5857C89.5598 32.2996 90.4367 33.4355 90.8263 34.7671L84.0258 35.0021C83.3897 34.3051 82.5773 33.7928 81.6743 33.5192C80.5797 33.2037 79.4403 33.0721 78.3025 33.1296C77.2378 33.1399 76.1842 33.3479 75.1954 33.743C74.3386 34.0569 73.5796 34.5908 72.9947 35.2912C72.4636 35.9636 72.198 36.8078 72.2486 37.6632C72.2549 38.5345 72.5783 39.3737 73.1582 40.024C73.794 40.6773 74.5867 41.1568 75.4605 41.4166C76.4804 41.708 77.5419 41.8268 78.601 41.7681C79.6882 41.75 80.767 41.5733 81.8032 41.2435C82.5551 40.9958 83.1913 40.4833 83.5935 39.8015L78.2634 39.9856L78.1443 36.5394L91.0561 36.0933C91.2853 37.8433 90.9259 39.6198 90.0345 41.1431C88.9208 42.6911 87.3533 43.8546 85.5491 44.4724C83.3645 45.3313 81.0419 45.7856 78.6947 45.8133C76.5132 45.9104 74.3329 45.5956 72.2681 44.8852Z" fill="white"/>
<path d="M106.986 44.4685L105.625 42.3533L96.4348 42.6708L95.2228 44.8749L88.1466 45.1193L97.4289 28.8351L103.678 28.6192L114.108 44.2224L106.986 44.4685ZM98.4215 38.9218L103.384 38.7503L101.001 35.0143L100.98 34.417L101.001 35.0143L98.4215 38.9218Z" fill="white"/>
<path d="M129.914 27.714C132.235 27.5872 134.561 27.8489 136.795 28.4884C138.573 28.9208 140.197 29.8358 141.487 31.1325C142.594 32.2067 143.238 33.6695 143.284 35.2109C143.341 36.7562 142.819 38.2672 141.82 39.4478C140.589 40.7914 139.043 41.809 137.322 42.4095C135.131 43.1797 132.833 43.6006 130.511 43.6569L120.172 44.0141L119.621 28.0696L129.914 27.714ZM134.888 38.5372C135.391 38.2083 135.801 37.7553 136.077 37.2219C136.354 36.6886 136.488 36.0929 136.468 35.4924C136.447 34.8919 136.272 34.3069 135.959 33.7939C135.646 33.2809 135.206 32.8572 134.682 32.5638C133.199 31.7974 131.527 31.472 129.865 31.6261L126.511 31.742L126.792 39.8751L130.238 39.756C131.884 39.777 133.506 39.3556 134.934 38.5356L134.888 38.5372Z" fill="white"/>
<path d="M143.517 27.2422L161.069 26.6357L161.204 30.5414L150.36 30.9161L150.433 33.0298L159.623 32.7123L159.75 36.3882L150.56 36.7058L150.64 39.0032L161.622 38.6238L161.758 42.5755L144.067 43.1867L143.517 27.2422Z" fill="white"/>
<path d="M161.943 26.6064L167.733 26.4064L178.283 34.8288L177.98 26.0524L184.688 25.8206L185.239 41.7652L179.404 41.9668L168.898 33.4969L169.203 42.3192L162.494 42.551L161.943 26.6064Z" fill="white"/>
<path d="M191.577 29.4927L185.19 29.7133L185.055 25.8076L204.491 25.1361L204.626 29.0418L198.193 29.264L198.609 41.3028L191.993 41.5315L191.577 29.4927Z" fill="white"/>
<path d="M226.57 36.1005C225.687 36.131 224.925 35.9651 224.282 35.6026C223.639 35.2361 223.136 34.7134 222.773 34.0344C222.414 33.3553 222.219 32.5601 222.188 31.6487C222.156 30.7374 222.296 29.9306 222.607 29.2283C222.923 28.5259 223.388 27.9717 224.004 27.5658C224.62 27.1558 225.37 26.9356 226.253 26.9051C227.27 26.8699 228.127 27.0961 228.823 27.5835C229.519 28.0668 230.019 28.7349 230.322 29.5878L228.847 30.05C228.655 29.4797 228.348 29.0402 227.924 28.7316C227.5 28.4189 226.959 28.2739 226.301 28.2967C225.708 28.3171 225.218 28.4671 224.831 28.7464C224.448 29.0256 224.164 29.4098 223.981 29.8989C223.801 30.3839 223.72 30.9493 223.739 31.5952C223.761 32.2409 223.878 32.8015 224.091 33.2769C224.308 33.7482 224.619 34.1098 225.025 34.3617C225.43 34.6137 225.93 34.7294 226.522 34.709C227.18 34.6862 227.71 34.5042 228.111 34.163C228.513 33.8218 228.79 33.3622 228.941 32.7841L230.445 33.1434C230.201 34.0151 229.749 34.7182 229.088 35.2525C228.427 35.7827 227.588 36.0654 226.57 36.1005ZM233.544 35.6755L233.36 30.3666L231.147 30.4431L231.102 29.1312L237.005 28.9273L237.051 30.2391L234.838 30.3156L235.021 35.6244L233.544 35.6755ZM241.206 35.5949C240.544 35.6177 239.961 35.4885 239.456 35.2073C238.951 34.926 238.553 34.5286 238.261 34.0149C237.973 33.497 237.817 32.8968 237.794 32.2143C237.77 31.5196 237.888 30.9058 238.148 30.3731C238.407 29.8404 238.779 29.4183 239.264 29.107C239.748 28.7957 240.315 28.6288 240.965 28.6063C241.631 28.5833 242.217 28.7124 242.722 28.9937C243.226 29.2749 243.625 29.6744 243.917 30.1922C244.209 30.7058 244.366 31.3039 244.39 31.9864C244.414 32.673 244.296 33.2847 244.036 33.8215C243.78 34.3541 243.41 34.7781 242.926 35.0935C242.442 35.4049 241.869 35.572 241.206 35.5949ZM241.159 34.2094C241.747 34.1891 242.178 33.9778 242.45 33.5756C242.723 33.1734 242.848 32.6616 242.827 32.0404C242.805 31.3988 242.642 30.893 242.339 30.5229C242.035 30.1488 241.593 29.9717 241.013 29.9918C240.616 30.0055 240.293 30.1067 240.041 30.2954C239.794 30.4799 239.615 30.7336 239.503 31.0566C239.391 31.3756 239.343 31.7435 239.357 32.1603C239.379 32.802 239.542 33.3098 239.845 33.684C240.153 34.0539 240.591 34.229 241.159 34.2094ZM245.843 35.2505L245.614 28.6298L246.828 28.5879L249.358 33.0791L251.579 28.4238L252.786 28.382L253.015 35.0027L251.605 35.0515L251.479 31.4039L249.723 35.1165L249.141 35.1366L247.133 31.5541L247.259 35.2016L245.843 35.2505ZM256.585 35.0635C256.107 35.0801 255.699 35.0041 255.362 34.8357C255.024 34.6633 254.765 34.4288 254.583 34.1323C254.405 33.8356 254.309 33.5055 254.297 33.1417C254.286 32.823 254.329 32.535 254.426 32.278C254.524 32.0168 254.68 31.7905 254.894 31.599C255.108 31.4034 255.389 31.2402 255.736 31.1095C255.999 31.0145 256.307 30.9262 256.66 30.8444C257.017 30.7625 257.403 30.6857 257.818 30.6141C258.237 30.5383 258.674 30.4577 259.13 30.3724L258.613 30.691C258.601 30.2331 258.487 29.8995 258.271 29.6901C258.055 29.4807 257.7 29.3845 257.206 29.4016C256.907 29.4119 256.622 29.4914 256.348 29.6399C256.075 29.7885 255.889 30.0343 255.791 30.3773L254.428 30.0009C254.572 29.4353 254.867 28.9751 255.313 28.62C255.763 28.2649 256.378 28.0738 257.159 28.0468C257.747 28.0265 258.268 28.1047 258.72 28.2814C259.176 28.4579 259.52 28.7611 259.752 29.1909C259.878 29.4198 259.958 29.6564 259.991 29.9008C260.024 30.141 260.045 30.4042 260.055 30.6903L260.195 34.7547L258.902 34.7994L258.852 33.3649L259.075 33.5904C258.793 34.0789 258.456 34.4424 258.063 34.681C257.674 34.9154 257.182 35.0429 256.585 35.0635ZM256.838 33.8764C257.174 33.8648 257.458 33.7956 257.691 33.6689C257.924 33.5422 258.107 33.3906 258.24 33.2142C258.377 33.0376 258.467 32.8729 258.511 32.7199C258.582 32.5293 258.618 32.3132 258.617 32.0718C258.621 31.8262 258.62 31.6278 258.615 31.4765L259.074 31.5957C258.631 31.6806 258.25 31.7551 257.934 31.8192C257.617 31.8834 257.345 31.9439 257.117 32.0009C256.89 32.0537 256.69 32.1118 256.516 32.1751C256.346 32.2423 256.204 32.3189 256.088 32.4047C255.972 32.4905 255.884 32.5877 255.822 32.6962C255.764 32.8046 255.738 32.9303 255.743 33.0734C255.748 33.2368 255.794 33.3805 255.88 33.5044C255.966 33.6242 256.088 33.7181 256.246 33.7863C256.408 33.8544 256.606 33.8844 256.838 33.8764ZM263.453 34.6421L263.269 29.3333L261.056 29.4098L261.011 28.0979L266.914 27.8939L266.96 29.2058L264.747 29.2823L264.93 34.5911L263.453 34.6421ZM270.007 34.5998C269.529 34.6163 269.121 34.5404 268.784 34.372C268.446 34.1995 268.187 33.9651 268.005 33.6686C267.827 33.3719 267.731 33.0417 267.719 32.678C267.708 32.3592 267.751 32.0713 267.848 31.8143C267.946 31.5531 268.102 31.3268 268.316 31.1352C268.53 30.9396 268.811 30.7765 269.158 30.6458C269.421 30.5508 269.729 30.4624 270.082 30.3807C270.439 30.2988 270.825 30.222 271.24 30.1504C271.659 30.0746 272.096 29.994 272.551 29.9087L272.035 30.2273C272.023 29.7694 271.909 29.4358 271.693 29.2264C271.477 29.017 271.122 28.9208 270.628 28.9379C270.329 28.9482 270.043 29.0276 269.77 29.1762C269.497 29.3248 269.311 29.5705 269.213 29.9136L267.85 29.5372C267.994 28.9716 268.289 28.5113 268.735 28.1563C269.185 27.8012 269.8 27.6101 270.581 27.5831C271.169 27.5628 271.69 27.641 272.142 27.8177C272.598 27.9942 272.942 28.2974 273.174 28.7272C273.3 28.9561 273.38 29.1927 273.413 29.437C273.446 29.6773 273.467 29.9405 273.477 30.2266L273.617 34.2909L272.324 34.3356L272.274 32.9011L272.497 33.1267C272.215 33.6152 271.878 33.9787 271.485 34.2173C271.096 34.4517 270.604 34.5792 270.007 34.5998ZM270.26 33.4126C270.596 33.4011 270.88 33.3319 271.113 33.2052C271.346 33.0785 271.528 32.9269 271.662 32.7505C271.799 32.5739 271.889 32.4091 271.933 32.2562C272.004 32.0655 272.04 31.8495 272.039 31.6081C272.043 31.3625 272.042 31.164 272.037 31.0128L272.496 31.132C272.052 31.2169 271.672 31.2914 271.356 31.3555C271.039 31.4197 270.767 31.4802 270.539 31.5372C270.312 31.59 270.112 31.6481 269.938 31.7114C269.768 31.7786 269.626 31.8552 269.51 31.941C269.394 32.0268 269.306 32.124 269.244 32.2325C269.186 32.3409 269.16 32.4666 269.165 32.6096C269.17 32.7731 269.216 32.9168 269.302 33.0407C269.388 33.1604 269.51 33.2544 269.668 33.3226C269.83 33.3907 270.028 33.4207 270.26 33.4126ZM274.6 34.257L274.558 33.0187C274.8 33.0553 274.986 33.0448 275.115 32.9871C275.244 32.9254 275.338 32.8158 275.398 32.6582C275.458 32.5006 275.508 32.2923 275.548 32.0331C275.601 31.6671 275.644 31.2462 275.677 30.7705C275.713 30.2946 275.741 29.7862 275.759 29.2455C275.781 28.7046 275.799 28.1516 275.812 27.5865L280.686 27.4181L280.915 34.0388L279.443 34.0897L279.262 28.8544L277.16 28.927C277.148 29.1934 277.134 29.4926 277.117 29.8246C277.1 30.1525 277.081 30.4846 277.059 30.8209C277.038 31.1571 277.013 31.4772 276.982 31.781C276.956 32.0806 276.926 32.3374 276.892 32.5513C276.815 33.0327 276.693 33.4154 276.527 33.6994C276.365 33.9833 276.13 34.1694 275.822 34.2577C275.514 34.3502 275.107 34.35 274.6 34.257ZM285.567 34.0622C284.905 34.0851 284.322 33.9559 283.817 33.6746C283.312 33.3934 282.914 32.9959 282.622 32.4823C282.334 31.9644 282.178 31.3642 282.155 30.6817C282.131 29.9869 282.248 29.3732 282.508 28.8405C282.768 28.3077 283.14 27.8857 283.625 27.5744C284.109 27.263 284.676 27.0961 285.326 27.0737C285.992 27.0507 286.577 27.1798 287.082 27.461C287.587 27.7423 287.986 28.1418 288.278 28.6595C288.569 29.1732 288.727 29.7713 288.751 30.4538C288.774 31.1404 288.656 31.7521 288.397 32.2889C288.141 32.8215 287.771 33.2455 287.287 33.5609C286.803 33.8722 286.229 34.0393 285.567 34.0622ZM285.519 32.6768C286.108 32.6564 286.538 32.4452 286.811 32.0429C287.083 31.6407 287.209 31.129 287.188 30.5078C287.165 29.8662 287.003 29.3603 286.699 28.9903C286.396 28.6161 285.954 28.4391 285.374 28.4591C284.977 28.4728 284.653 28.574 284.402 28.7627C284.155 28.9472 283.975 29.201 283.864 29.524C283.752 29.8429 283.703 30.2108 283.718 30.6277C283.74 31.2693 283.903 31.7772 284.206 32.1513C284.514 32.5212 284.951 32.6964 285.519 32.6768ZM290.216 33.7175L289.987 27.0968L294.707 26.9337L294.755 28.3191L291.512 28.4312L291.693 33.6664L290.216 33.7175ZM298.917 33.601C298.255 33.6238 297.672 33.4947 297.167 33.2134C296.662 32.9321 296.264 32.5347 295.972 32.021C295.684 31.5031 295.528 30.9029 295.505 30.2204C295.481 29.5257 295.599 28.9119 295.858 28.3792C296.118 27.8465 296.49 27.4245 296.975 27.1131C297.459 26.8018 298.026 26.6349 298.676 26.6124C299.342 26.5894 299.928 26.7185 300.432 26.9998C300.937 27.2811 301.336 27.6806 301.628 28.1983C301.92 28.712 302.077 29.31 302.101 29.9925C302.125 30.6791 302.007 31.2908 301.747 31.8276C301.491 32.3602 301.121 32.7842 300.637 33.0996C300.153 33.411 299.579 33.5781 298.917 33.601ZM298.87 32.2155C299.458 32.1952 299.889 31.9839 300.161 31.5817C300.434 31.1795 300.559 30.6678 300.538 30.0466C300.516 29.4049 300.353 28.8991 300.049 28.529C299.746 28.1549 299.304 27.9778 298.724 27.9979C298.327 28.0116 298.004 28.1128 297.752 28.3015C297.505 28.486 297.326 28.7397 297.214 29.0628C297.102 29.3817 297.054 29.7496 297.068 30.1664C297.09 30.8081 297.253 31.316 297.556 31.6901C297.864 32.06 298.301 32.2352 298.87 32.2155ZM309.075 26.4373L309.304 33.058L307.888 33.1069L307.738 28.7851L304.737 33.2158L303.554 33.2567L303.325 26.636L304.741 26.587L304.887 30.7985L307.904 26.4777L309.075 26.4373ZM314.985 32.8617L314.909 30.6548L313.726 30.6957C313.575 30.7009 313.385 30.7034 313.155 30.7031C312.93 30.7027 312.719 30.6895 312.522 30.6636C312.008 30.5873 311.577 30.3792 311.23 30.0393C310.882 29.6953 310.698 29.2188 310.677 28.6099C310.657 28.0132 310.799 27.5275 311.106 27.1527C311.412 26.778 311.819 26.5307 312.326 26.4109C312.537 26.3586 312.755 26.3265 312.979 26.3147C313.208 26.2986 313.398 26.2879 313.549 26.2827L316.234 26.1899L316.463 32.8107L314.985 32.8617ZM310.657 33.0112L312.152 30.4248L313.69 30.3716L312.208 32.9576L310.657 33.0112ZM313.533 29.5423L314.869 29.4962L314.797 27.3996L313.46 27.4458C313.383 27.4485 313.289 27.4558 313.179 27.4678C313.069 27.4798 312.959 27.502 312.85 27.5344C312.732 27.5753 312.622 27.6425 312.519 27.7361C312.416 27.8297 312.332 27.9451 312.267 28.0824C312.202 28.2196 312.173 28.3741 312.179 28.5457C312.188 28.8032 312.269 29.0152 312.422 29.1818C312.579 29.3441 312.758 29.4504 312.961 29.5007C313.059 29.5219 313.16 29.5348 313.263 29.5394C313.369 29.5439 313.459 29.5449 313.533 29.5423Z" fill="white"/>
</svg>
