<svg width="11" height="6" viewBox="0 0 11 6" fill="none" xmlns="http://www.w3.org/2000/svg">
<path d="M1.68756 0.330022C1.39466 0.0371283 0.91979 0.0371283 0.626897 0.330022C0.334003 0.622915 0.334003 1.09779 0.626897 1.39068L1.68756 0.330022ZM5.40284 5.10597L4.87251 5.6363C5.1654 5.92919 5.64028 5.92919 5.93317 5.6363L5.40284 5.10597ZM10.1788 1.39068C10.4717 1.09779 10.4717 0.622915 10.1788 0.330022C9.88589 0.0371283 9.41102 0.0371283 9.11812 0.330022L10.1788 1.39068ZM0.626897 1.39068C0.630135 1.39392 0.633377 1.39716 0.636622 1.40041C0.639867 1.40365 0.643116 1.4069 0.646369 1.41015C0.649621 1.41341 0.652877 1.41666 0.656136 1.41992C0.659396 1.42318 0.662658 1.42644 0.665925 1.42971C0.669191 1.43298 0.672461 1.43625 0.675734 1.43952C0.679007 1.44279 0.682283 1.44607 0.685563 1.44935C0.688843 1.45263 0.692127 1.45591 0.695413 1.4592C0.6987 1.46249 0.70199 1.46578 0.705283 1.46907C0.708577 1.47236 0.711873 1.47566 0.715173 1.47896C0.718473 1.48226 0.721777 1.48556 0.725083 1.48887C0.72839 1.49218 0.7317 1.49549 0.735013 1.4988C0.738326 1.50211 0.741643 1.50543 0.744962 1.50875C0.748282 1.51207 0.751605 1.51539 0.754931 1.51872C0.758257 1.52204 0.761586 1.52537 0.764919 1.5287C0.768251 1.53204 0.771587 1.53537 0.774926 1.53871C0.778264 1.54205 0.781606 1.54539 0.784951 1.54874C0.788297 1.55208 0.791645 1.55543 0.794996 1.55878C0.798347 1.56213 0.801702 1.56549 0.805059 1.56884C0.808417 1.5722 0.811777 1.57556 0.815141 1.57893C0.818504 1.58229 0.821871 1.58566 0.825241 1.58903C0.82861 1.5924 0.831983 1.59577 0.835359 1.59914C0.838735 1.60252 0.842113 1.6059 0.845495 1.60928C0.848877 1.61266 0.852261 1.61605 0.855649 1.61943C0.859036 1.62282 0.862427 1.62621 0.86582 1.62961C0.869214 1.633 0.87261 1.6364 0.876009 1.63979C0.879409 1.64319 0.882811 1.6466 0.886216 1.65C0.889621 1.65341 0.893028 1.65681 0.896439 1.66022C0.89985 1.66364 0.903263 1.66705 0.90668 1.67046C0.910096 1.67388 0.913515 1.6773 0.916937 1.68072C0.920359 1.68414 0.923784 1.68757 0.927211 1.691C0.930639 1.69442 0.934069 1.69785 0.937502 1.70129C0.940935 1.70472 0.944371 1.70816 0.947809 1.71159C0.951248 1.71503 0.954689 1.71847 0.958133 1.72192C0.961576 1.72536 0.965023 1.72881 0.968472 1.73226C0.971921 1.73571 0.975373 1.73916 0.978827 1.74261C0.982282 1.74607 0.985739 1.74952 0.989199 1.75298C0.992658 1.75644 0.996121 1.75991 0.999585 1.76337C1.00305 1.76684 1.00652 1.7703 1.00999 1.77377C1.01346 1.77724 1.01693 1.78072 1.02041 1.78419C1.02388 1.78767 1.02736 1.79114 1.03084 1.79462C1.03432 1.7981 1.0378 1.80159 1.04129 1.80507C1.04477 1.80856 1.04826 1.81204 1.05175 1.81553C1.05524 1.81902 1.05873 1.82252 1.06223 1.82601C1.06572 1.82951 1.06922 1.833 1.07272 1.8365C1.07622 1.84 1.07972 1.8435 1.08322 1.84701C1.08673 1.85051 1.09023 1.85402 1.09374 1.85753C1.09725 1.86104 1.10076 1.86455 1.10428 1.86806C1.10779 1.87158 1.11131 1.87509 1.11483 1.87861C1.11834 1.88213 1.12186 1.88565 1.12539 1.88917C1.12891 1.8927 1.13244 1.89622 1.13596 1.89975C1.13949 1.90328 1.14302 1.90681 1.14655 1.91034C1.15008 1.91387 1.15362 1.9174 1.15715 1.92094C1.16069 1.92448 1.16423 1.92801 1.16777 1.93155C1.17131 1.9351 1.17485 1.93864 1.1784 1.94218C1.18194 1.94573 1.18549 1.94927 1.18904 1.95282C1.19259 1.95637 1.19614 1.95992 1.19969 1.96348C1.20325 1.96703 1.2068 1.97059 1.21036 1.97414C1.21392 1.9777 1.21748 1.98126 1.22104 1.98482C1.2246 1.98838 1.22816 1.99195 1.23173 1.99551C1.23529 1.99908 1.23886 2.00265 1.24243 2.00622C1.246 2.00978 1.24957 2.01336 1.25314 2.01693C1.25672 2.0205 1.26029 2.02408 1.26387 2.02766C1.26745 2.03123 1.27103 2.03481 1.27461 2.03839C1.27819 2.04197 1.28177 2.04556 1.28536 2.04914C1.28894 2.05273 1.29253 2.05631 1.29612 2.0599C1.29971 2.06349 1.3033 2.06708 1.30689 2.07067C1.31048 2.07427 1.31407 2.07786 1.31767 2.08146C1.32127 2.08505 1.32486 2.08865 1.32846 2.09225C1.33206 2.09585 1.33566 2.09945 1.33927 2.10305C1.34287 2.10666 1.34647 2.11026 1.35008 2.11387C1.35369 2.11747 1.3573 2.12108 1.36091 2.12469C1.36451 2.1283 1.36813 2.13191 1.37174 2.13552C1.37535 2.13914 1.37897 2.14275 1.38258 2.14637C1.3862 2.14999 1.38982 2.1536 1.39344 2.15722C1.39706 2.16084 1.40068 2.16446 1.4043 2.16809C1.40792 2.17171 1.41155 2.17533 1.41517 2.17896C1.4188 2.18259 1.42243 2.18621 1.42606 2.18984C1.42969 2.19347 1.43332 2.1971 1.43695 2.20073C1.44058 2.20437 1.44421 2.208 1.44785 2.21163C1.45148 2.21527 1.45512 2.21891 1.45876 2.22254C1.4624 2.22618 1.46604 2.22982 1.46968 2.23346C1.47332 2.2371 1.47696 2.24075 1.4806 2.24439C1.48425 2.24803 1.48789 2.25168 1.49154 2.25532C1.49519 2.25897 1.49883 2.26262 1.50248 2.26627C1.50613 2.26992 1.50978 2.27357 1.51343 2.27722C1.51709 2.28087 1.52074 2.28452 1.52439 2.28818C1.52805 2.29183 1.5317 2.29549 1.53536 2.29915C1.53902 2.3028 1.54268 2.30646 1.54634 2.31012C1.54999 2.31378 1.55366 2.31744 1.55732 2.3211C1.56098 2.32476 1.56464 2.32843 1.56831 2.33209C1.57197 2.33576 1.57564 2.33942 1.5793 2.34309C1.58297 2.34676 1.58664 2.35042 1.59031 2.35409C1.59398 2.35776 1.59765 2.36143 1.60132 2.3651C1.60499 2.36877 1.60866 2.37245 1.61233 2.37612C1.61601 2.37979 1.61968 2.38347 1.62336 2.38714C1.62703 2.39082 1.63071 2.3945 1.63439 2.39817C1.63807 2.40185 1.64174 2.40553 1.64542 2.40921C1.6491 2.41289 1.65278 2.41657 1.65647 2.42025C1.66015 2.42393 1.66383 2.42762 1.66751 2.4313C1.6712 2.43498 1.67488 2.43867 1.67857 2.44235C1.68225 2.44604 1.68594 2.44972 1.68963 2.45341C1.69331 2.4571 1.697 2.46079 1.70069 2.46448C1.70438 2.46817 1.70807 2.47186 1.71176 2.47555C1.71545 2.47924 1.71914 2.48293 1.72284 2.48662C1.72653 2.49031 1.73022 2.49401 1.73392 2.4977C1.73761 2.50139 1.7413 2.50509 1.745 2.50879C1.7487 2.51248 1.75239 2.51618 1.75609 2.51987C1.75979 2.52357 1.76348 2.52727 1.76718 2.53097C1.77088 2.53467 1.77458 2.53837 1.77828 2.54207C1.78198 2.54577 1.78568 2.54947 1.78938 2.55317C1.79308 2.55687 1.79679 2.56057 1.80049 2.56427C1.80419 2.56798 1.8079 2.57168 1.8116 2.57538C1.8153 2.57909 1.81901 2.58279 1.82271 2.5865C1.82642 2.5902 1.83012 2.59391 1.83383 2.59761C1.83754 2.60132 1.84124 2.60503 1.84495 2.60874C1.84866 2.61244 1.85237 2.61615 1.85607 2.61986C1.85978 2.62357 1.86349 2.62728 1.8672 2.63099C1.87091 2.63469 1.87462 2.6384 1.87833 2.64211C1.88204 2.64583 1.88575 2.64954 1.88946 2.65325C1.89317 2.65696 1.89688 2.66067 1.9006 2.66438C1.90431 2.66809 1.90802 2.67181 1.91173 2.67552C1.91545 2.67923 1.91916 2.68295 1.92287 2.68666C1.92659 2.69037 1.9303 2.69409 1.93402 2.6978C1.93773 2.70151 1.94144 2.70523 1.94516 2.70894C1.94887 2.71266 1.95259 2.71637 1.9563 2.72009C1.96002 2.7238 1.96373 2.72752 1.96745 2.73124C1.97117 2.73495 1.97488 2.73867 1.9786 2.74238C1.98232 2.7461 1.98603 2.74982 1.98975 2.75353C1.99347 2.75725 1.99718 2.76097 2.0009 2.76468C2.00462 2.7684 2.00833 2.77212 2.01205 2.77584C2.01577 2.77955 2.01949 2.78327 2.0232 2.78699C2.02692 2.79071 2.03064 2.79442 2.03436 2.79814C2.03808 2.80186 2.04179 2.80558 2.04551 2.8093C2.04923 2.81301 2.05295 2.81673 2.05667 2.82045C2.06038 2.82417 2.0641 2.82789 2.06782 2.83161C2.07154 2.83532 2.07526 2.83904 2.07897 2.84276C2.08269 2.84648 2.08641 2.8502 2.09013 2.85391C2.09385 2.85763 2.09757 2.86135 2.10128 2.86507C2.105 2.86879 2.10872 2.8725 2.11244 2.87622C2.11615 2.87994 2.11987 2.88366 2.12359 2.88738C2.12731 2.89109 2.13103 2.89481 2.13474 2.89853C2.13846 2.90225 2.14218 2.90596 2.14589 2.90968C2.14961 2.9134 2.15333 2.91711 2.15704 2.92083C2.16076 2.92455 2.16448 2.92826 2.16819 2.93198C2.17191 2.93569 2.17563 2.93941 2.17934 2.94313C2.18306 2.94684 2.18677 2.95056 2.19049 2.95427C2.1942 2.95799 2.19792 2.9617 2.20163 2.96542C2.20535 2.96913 2.20906 2.97285 2.21278 2.97656C2.21649 2.98027 2.2202 2.98399 2.22392 2.9877C2.22763 2.99141 2.23134 2.99513 2.23505 2.99884C2.23877 3.00255 2.24248 3.00626 2.24619 3.00998C2.2499 3.01369 2.25361 3.0174 2.25733 3.02111C2.26104 3.02482 2.26475 3.02853 2.26846 3.03224C2.27217 3.03595 2.27588 3.03966 2.27959 3.04337C2.28329 3.04708 2.287 3.05079 2.29071 3.0545C2.29442 3.0582 2.29813 3.06191 2.30183 3.06562C2.30554 3.06933 2.30925 3.07303 2.31295 3.07674C2.31666 3.08044 2.32036 3.08415 2.32407 3.08785C2.32777 3.09156 2.33148 3.09526 2.33518 3.09897C2.33888 3.10267 2.34259 3.10637 2.34629 3.11007C2.34999 3.11378 2.35369 3.11748 2.35739 3.12118C2.36109 3.12488 2.36479 3.12858 2.36849 3.13228C2.37219 3.13598 2.37589 3.13968 2.37959 3.14338C2.38329 3.14707 2.38699 3.15077 2.39068 3.15447C2.39438 3.15816 2.39808 3.16186 2.40177 3.16556C2.40547 3.16925 2.40916 3.17294 2.41285 3.17664C2.41655 3.18033 2.42024 3.18402 2.42393 3.18772C2.42762 3.19141 2.43131 3.1951 2.435 3.19879C2.43869 3.20248 2.44238 3.20617 2.44607 3.20986C2.44976 3.21355 2.45345 3.21723 2.45713 3.22092C2.46082 3.22461 2.46451 3.22829 2.46819 3.23198C2.47188 3.23566 2.47556 3.23935 2.47924 3.24303C2.48293 3.24671 2.48661 3.25039 2.49029 3.25407C2.49397 3.25776 2.49765 3.26144 2.50133 3.26511C2.50501 3.26879 2.50869 3.27247 2.51236 3.27615C2.51604 3.27983 2.51972 3.2835 2.52339 3.28718C2.52707 3.29085 2.53074 3.29452 2.53441 3.2982C2.53808 3.30187 2.54176 3.30554 2.54543 3.30921C2.5491 3.31288 2.55277 3.31655 2.55643 3.32022C2.5601 3.32389 2.56377 3.32755 2.56744 3.33122C2.5711 3.33489 2.57477 3.33855 2.57843 3.34221C2.58209 3.34588 2.58576 3.34954 2.58942 3.3532C2.59308 3.35686 2.59674 3.36052 2.6004 3.36418C2.60405 3.36784 2.60771 3.3715 2.61137 3.37515C2.61502 3.37881 2.61868 3.38246 2.62233 3.38612C2.62599 3.38977 2.62964 3.39342 2.63329 3.39707C2.63694 3.40072 2.64059 3.40437 2.64424 3.40802C2.64789 3.41167 2.65153 3.41532 2.65518 3.41896C2.65882 3.42261 2.66247 3.42625 2.66611 3.4299C2.66975 3.43354 2.67339 3.43718 2.67703 3.44082C2.68067 3.44446 2.68431 3.4481 2.68795 3.45173C2.69159 3.45537 2.69522 3.45901 2.69886 3.46264C2.70249 3.46627 2.70612 3.46991 2.70975 3.47354C2.71338 3.47717 2.71701 3.4808 2.72064 3.48443C2.72427 3.48805 2.7279 3.49168 2.73152 3.49531C2.73515 3.49893 2.73877 3.50255 2.74239 3.50618C2.74601 3.5098 2.74963 3.51342 2.75325 3.51704C2.75687 3.52065 2.76049 3.52427 2.7641 3.52789C2.76772 3.5315 2.77133 3.53512 2.77494 3.53873C2.77855 3.54234 2.78216 3.54595 2.78577 3.54956C2.78938 3.55317 2.79299 3.55677 2.79659 3.56038C2.8002 3.56398 2.8038 3.56759 2.8074 3.57119C2.811 3.57479 2.8146 3.57839 2.8182 3.58199C2.8218 3.58559 2.8254 3.58918 2.82899 3.59278C2.83259 3.59637 2.83618 3.59996 2.83977 3.60356C2.84336 3.60715 2.84695 3.61074 2.85054 3.61432C2.85412 3.61791 2.85771 3.6215 2.86129 3.62508C2.86488 3.62866 2.86846 3.63224 2.87204 3.63582C2.87562 3.6394 2.8792 3.64298 2.88277 3.64656C2.88635 3.65013 2.88992 3.65371 2.89349 3.65728C2.89707 3.66085 2.90064 3.66442 2.9042 3.66799C2.90777 3.67156 2.91134 3.67512 2.9149 3.67869C2.91847 3.68225 2.92203 3.68581 2.92559 3.68937C2.92915 3.69293 2.93271 3.69649 2.93626 3.70005C2.93982 3.7036 2.94337 3.70716 2.94692 3.71071C2.95048 3.71426 2.95403 3.71781 2.95757 3.72136C2.96112 3.72491 2.96467 3.72845 2.96821 3.73199C2.97175 3.73554 2.97529 3.73908 2.97883 3.74262C2.98237 3.74616 2.98591 3.74969 2.98944 3.75323C2.99298 3.75676 2.99651 3.7603 3.00004 3.76383C3.00357 3.76736 3.0071 3.77088 3.01063 3.77441C3.01415 3.77794 3.01767 3.78146 3.0212 3.78498C3.02472 3.7885 3.02824 3.79202 3.03175 3.79554C3.03527 3.79905 3.03878 3.80257 3.0423 3.80608C3.04581 3.80959 3.04932 3.8131 3.05283 3.81661C3.05633 3.82012 3.05984 3.82362 3.06334 3.82713C3.06684 3.83063 3.07034 3.83413 3.07384 3.83763C3.07734 3.84112 3.08083 3.84462 3.08433 3.84811C3.08782 3.85161 3.09131 3.8551 3.0948 3.85859C3.09829 3.86207 3.10177 3.86556 3.10526 3.86904C3.10874 3.87253 3.11222 3.87601 3.1157 3.87948C3.11918 3.88296 3.12265 3.88644 3.12613 3.88991C3.1296 3.89339 3.13307 3.89686 3.13654 3.90032C3.14001 3.90379 3.14347 3.90726 3.14694 3.91072C3.1504 3.91418 3.15386 3.91764 3.15732 3.9211C3.16077 3.92456 3.16423 3.92801 3.16768 3.93147C3.17113 3.93492 3.17458 3.93837 3.17803 3.94182C3.18148 3.94526 3.18492 3.94871 3.18837 3.95215C3.19181 3.95559 3.19525 3.95903 3.19868 3.96247C3.20212 3.9659 3.20555 3.96934 3.20898 3.97277C3.21242 3.9762 3.21584 3.97963 3.21927 3.98305C3.22269 3.98648 3.22612 3.9899 3.22954 3.99332C3.23296 3.99674 3.23637 4.00016 3.23979 4.00357C3.2432 4.00699 3.24661 4.0104 3.25002 4.01381C3.25343 4.01722 3.25684 4.02062 3.26024 4.02403C3.26364 4.02743 3.26704 4.03083 3.27044 4.03423C3.27384 4.03762 3.27723 4.04102 3.28062 4.04441C3.28401 4.0478 3.2874 4.05119 3.29079 4.05457C3.29417 4.05796 3.29756 4.06134 3.30094 4.06472C3.30432 4.0681 3.30769 4.07148 3.31107 4.07485C3.31444 4.07822 3.31781 4.0816 3.32118 4.08496C3.32454 4.08833 3.32791 4.09169 3.33127 4.09506C3.33463 4.09842 3.33799 4.10178 3.34135 4.10513C3.3447 4.10849 3.34805 4.11184 3.3514 4.11519C3.35475 4.11854 3.3581 4.12188 3.36144 4.12523C3.36478 4.12857 3.36812 4.13191 3.37146 4.13524C3.3748 4.13858 3.37813 4.14191 3.38146 4.14524C3.38479 4.14857 3.38812 4.1519 3.39144 4.15523C3.39476 4.15855 3.39808 4.16187 3.4014 4.16519C3.40472 4.1685 3.40803 4.17182 3.41134 4.17513C3.41465 4.17844 3.41796 4.18175 3.42127 4.18505C3.42457 4.18836 3.42787 4.19166 3.43117 4.19495C3.43447 4.19825 3.43776 4.20155 3.44105 4.20484C3.44434 4.20813 3.44763 4.21142 3.45092 4.2147C3.4542 4.21798 3.45748 4.22127 3.46076 4.22454C3.46404 4.22782 3.46731 4.23109 3.47058 4.23437C3.47385 4.23764 3.47712 4.2409 3.48038 4.24417C3.48365 4.24743 3.48691 4.25069 3.49016 4.25395C3.49342 4.25721 3.49667 4.26046 3.49992 4.26371C3.50317 4.26696 3.50642 4.2702 3.50966 4.27345C3.5129 4.27669 3.51614 4.27993 3.51938 4.28317C3.52262 4.2864 3.52585 4.28963 3.52908 4.29286C3.53231 4.29609 3.53553 4.29932 3.53875 4.30254C3.54197 4.30576 3.54519 4.30898 3.54841 4.31219C3.55162 4.3154 3.55483 4.31862 3.55804 4.32182C3.56124 4.32503 3.56445 4.32823 3.56765 4.33143C3.57085 4.33463 3.57404 4.33783 3.57723 4.34102C3.58043 4.34421 3.58361 4.3474 3.5868 4.35058C3.58998 4.35377 3.59317 4.35695 3.59634 4.36013C3.59952 4.3633 3.60269 4.36648 3.60586 4.36965C3.60903 4.37282 3.6122 4.37598 3.61536 4.37915C3.61852 4.38231 3.62168 4.38547 3.62483 4.38862C3.62799 4.39177 3.63114 4.39492 3.63429 4.39807C3.63743 4.40122 3.64058 4.40436 3.64371 4.4075C3.64685 4.41064 3.64999 4.41377 3.65312 4.4169C3.65625 4.42004 3.65938 4.42316 3.6625 4.42629C3.66562 4.42941 3.66874 4.43253 3.67186 4.43564C3.67497 4.43876 3.67809 4.44187 3.68119 4.44498C3.6843 4.44809 3.6874 4.45119 3.6905 4.45429C3.6936 4.45739 3.6967 4.46048 3.69979 4.46357C3.70288 4.46666 3.70597 4.46975 3.70905 4.47283C3.71213 4.47592 3.71521 4.479 3.71829 4.48207C3.72136 4.48515 3.72443 4.48822 3.7275 4.49128C3.73057 4.49435 3.73363 4.49741 3.73669 4.50047C3.73974 4.50353 3.7428 4.50658 3.74585 4.50963C3.7489 4.51268 3.75194 4.51573 3.75499 4.51877C3.75803 4.52181 3.76107 4.52485 3.7641 4.52788C3.76713 4.53092 3.77016 4.53395 3.77319 4.53697C3.77621 4.53999 3.77923 4.54302 3.78225 4.54603C3.78526 4.54905 3.78827 4.55206 3.79128 4.55507C3.79429 4.55807 3.79729 4.56108 3.80029 4.56408C3.80329 4.56708 3.80628 4.57007 3.80927 4.57306C3.81226 4.57605 3.81525 4.57904 3.81823 4.58202C3.82121 4.585 3.82419 4.58798 3.82716 4.59095C3.83014 4.59392 3.8331 4.59689 3.83607 4.59985C3.83903 4.60282 3.84199 4.60578 3.84494 4.60873C3.8479 4.61169 3.85085 4.61464 3.8538 4.61758C3.85674 4.62053 3.85968 4.62347 3.86262 4.62641C3.86556 4.62934 3.86849 4.63227 3.87142 4.6352C3.87434 4.63813 3.87727 4.64105 3.88019 4.64397C3.8831 4.64689 3.88602 4.6498 3.88893 4.65271C3.89184 4.65562 3.89474 4.65853 3.89764 4.66143C3.90054 4.66433 3.90344 4.66722 3.90633 4.67011C3.90922 4.673 3.91211 4.67589 3.91499 4.67877C3.91787 4.68165 3.92075 4.68453 3.92362 4.6874C3.92649 4.69028 3.92936 4.69314 3.93222 4.69601C3.93508 4.69887 3.93794 4.70173 3.94079 4.70458C3.94365 4.70743 3.9465 4.71028 3.94934 4.71312C3.95218 4.71597 3.95502 4.71881 3.95786 4.72164C3.96069 4.72448 3.96352 4.7273 3.96634 4.73013C3.96917 4.73295 3.97199 4.73577 3.9748 4.73859C3.97762 4.7414 3.98043 4.74421 3.98323 4.74702C3.98604 4.74982 3.98884 4.75262 3.99163 4.75542C3.99443 4.75821 3.99722 4.761 4 4.76379C4.00279 4.76657 4.00557 4.76935 4.00834 4.77213C4.01112 4.7749 4.01389 4.77767 4.01665 4.78044C4.01942 4.78321 4.02218 4.78597 4.02494 4.78872C4.02769 4.79148 4.03044 4.79423 4.03319 4.79697C4.03593 4.79972 4.03867 4.80246 4.04141 4.80519C4.04414 4.80793 4.04687 4.81066 4.0496 4.81338C4.05232 4.81611 4.05504 4.81883 4.05776 4.82154C4.06047 4.82426 4.06318 4.82697 4.06589 4.82967C4.06859 4.83238 4.07129 4.83508 4.07398 4.83777C4.07668 4.84046 4.07937 4.84315 4.08205 4.84584C4.08473 4.84852 4.08741 4.8512 4.09009 4.85387C4.09276 4.85655 4.09543 4.85921 4.09809 4.86188C4.10075 4.86454 4.10341 4.8672 4.10606 4.86985C4.10872 4.8725 4.11136 4.87515 4.114 4.87779C4.11665 4.88043 4.11928 4.88307 4.12191 4.8857C4.12454 4.88833 4.12717 4.89096 4.12979 4.89358C4.13241 4.8962 4.13503 4.89881 4.13764 4.90142C4.14025 4.90403 4.14285 4.90663 4.14545 4.90923C4.14805 4.91183 4.15064 4.91443 4.15323 4.91701C4.15582 4.9196 4.1584 4.92218 4.16098 4.92476C4.16355 4.92734 4.16612 4.92991 4.16869 4.93248C4.17126 4.93504 4.17382 4.9376 4.17637 4.94016C4.17893 4.94271 4.18148 4.94526 4.18402 4.94781C4.18656 4.95035 4.1891 4.95289 4.19164 4.95542C4.19417 4.95795 4.1967 4.96048 4.19922 4.963C4.20174 4.96552 4.20426 4.96804 4.20677 4.97055C4.20928 4.97306 4.21178 4.97557 4.21428 4.97807C4.21678 4.98056 4.21927 4.98306 4.22176 4.98555C4.22425 4.98803 4.22673 4.99052 4.22921 4.99299C4.23168 4.99547 4.23415 4.99794 4.23662 5.0004C4.23908 5.00287 4.24154 5.00533 4.244 5.00778C4.24645 5.01024 4.2489 5.01268 4.25134 5.01513C4.25378 5.01757 4.25622 5.02 4.25865 5.02243C4.26108 5.02487 4.2635 5.02729 4.26592 5.02971C4.26834 5.03213 4.27075 5.03454 4.27316 5.03695C4.27557 5.03935 4.27797 5.04176 4.28037 5.04415C4.28276 5.04655 4.28515 5.04894 4.28753 5.05132C4.28992 5.0537 4.29229 5.05608 4.29467 5.05845C4.29704 5.06082 4.2994 5.06319 4.30176 5.06555C4.30412 5.06791 4.30648 5.07026 4.30883 5.07261C4.31117 5.07496 4.31351 5.0773 4.31585 5.07964C4.31819 5.08197 4.32052 5.0843 4.32284 5.08662C4.32516 5.08895 4.32748 5.09127 4.32979 5.09358C4.3321 5.09589 4.33441 5.0982 4.33671 5.10049C4.33901 5.10279 4.3413 5.10509 4.34359 5.10737C4.34588 5.10966 4.34816 5.11194 4.35043 5.11422C4.35271 5.11649 4.35498 5.11876 4.35724 5.12102C4.3595 5.12329 4.36176 5.12554 4.36401 5.12779C4.36626 5.13004 4.3685 5.13229 4.37074 5.13453C4.37298 5.13676 4.37521 5.13899 4.37743 5.14122C4.37966 5.14345 4.38188 5.14566 4.38409 5.14788C4.3863 5.15009 4.38851 5.1523 4.39071 5.1545C4.39291 5.1567 4.39511 5.15889 4.39729 5.16108C4.39948 5.16327 4.40166 5.16545 4.40384 5.16762C4.40601 5.1698 4.40818 5.17197 4.41034 5.17413C4.4125 5.17629 4.41466 5.17845 4.41681 5.18059C4.41896 5.18274 4.4211 5.18489 4.42324 5.18702C4.42537 5.18916 4.4275 5.19129 4.42963 5.19341C4.43175 5.19554 4.43387 5.19765 4.43598 5.19976C4.43809 5.20188 4.44019 5.20398 4.44229 5.20608C4.44439 5.20817 4.44648 5.21027 4.44857 5.21235C4.45065 5.21443 4.45273 5.21651 4.4548 5.21858C4.45687 5.22066 4.45894 5.22272 4.46099 5.22478C4.46305 5.22684 4.4651 5.22889 4.46715 5.23093C4.46919 5.23298 4.47123 5.23502 4.47326 5.23705C4.4753 5.23908 4.47732 5.24111 4.47934 5.24312C4.48136 5.24514 4.48337 5.24715 4.48537 5.24916C4.48738 5.25116 4.48938 5.25316 4.49137 5.25516C4.49336 5.25715 4.49535 5.25913 4.49732 5.26111C4.4993 5.26309 4.50127 5.26506 4.50324 5.26702C4.5052 5.26899 4.50716 5.27095 4.50911 5.2729C4.51106 5.27485 4.51301 5.27679 4.51495 5.27873C4.51688 5.28067 4.51881 5.2826 4.52074 5.28452C4.52266 5.28645 4.52458 5.28836 4.52649 5.29027C4.5284 5.29218 4.5303 5.29409 4.5322 5.29598C4.53409 5.29788 4.53598 5.29977 4.53786 5.30165C4.53975 5.30353 4.54162 5.30541 4.54349 5.30728C4.54536 5.30914 4.54722 5.31101 4.54908 5.31286C4.55093 5.31472 4.55278 5.31656 4.55462 5.3184C4.55646 5.32024 4.55829 5.32208 4.56012 5.3239C4.56195 5.32573 4.56376 5.32755 4.56558 5.32936C4.56739 5.33117 4.56919 5.33298 4.57099 5.33478C4.57279 5.33658 4.57458 5.33837 4.57637 5.34015C4.57815 5.34194 4.57993 5.34371 4.5817 5.34548C4.58347 5.34725 4.58523 5.34901 4.58698 5.35077C4.58874 5.35252 4.59049 5.35427 4.59223 5.35601C4.59397 5.35776 4.5957 5.35949 4.59743 5.36122C4.59916 5.36294 4.60088 5.36466 4.60259 5.36637C4.6043 5.36809 4.60601 5.36979 4.6077 5.37149C4.6094 5.37319 4.61109 5.37488 4.61277 5.37656C4.61446 5.37824 4.61613 5.37992 4.6178 5.38159C4.61947 5.38325 4.62113 5.38492 4.62278 5.38657C4.62444 5.38822 4.62608 5.38987 4.62772 5.39151C4.62936 5.39315 4.63099 5.39478 4.63262 5.3964C4.63424 5.39803 4.63586 5.39964 4.63747 5.40125C4.63908 5.40286 4.64068 5.40446 4.64227 5.40606C4.64387 5.40765 4.64546 5.40924 4.64703 5.41082C4.64861 5.4124 4.65019 5.41397 4.65175 5.41554C4.65332 5.4171 4.65487 5.41866 4.65642 5.42021C4.65797 5.42176 4.65951 5.4233 4.66105 5.42483C4.66258 5.42637 4.66411 5.42789 4.66563 5.42941C4.66715 5.43093 4.66866 5.43244 4.67016 5.43395C4.67167 5.43545 4.67316 5.43695 4.67465 5.43844C4.67614 5.43993 4.67762 5.44141 4.6791 5.44288C4.68057 5.44435 4.68203 5.44582 4.68349 5.44728C4.68495 5.44874 4.6864 5.45019 4.68784 5.45163C4.68929 5.45307 4.69072 5.45451 4.69215 5.45593C4.69358 5.45736 4.69499 5.45878 4.69641 5.46019C4.69782 5.4616 4.69922 5.46301 4.70062 5.4644C4.70201 5.4658 4.7034 5.46719 4.70478 5.46857C4.70616 5.46995 4.70754 5.47132 4.7089 5.47269C4.71026 5.47405 4.71162 5.47541 4.71297 5.47676C4.71432 5.47811 4.71566 5.47945 4.71699 5.48078C4.71833 5.48211 4.71965 5.48344 4.72097 5.48476C4.72229 5.48607 4.7236 5.48738 4.7249 5.48868C4.7262 5.48999 4.72749 5.49128 4.72878 5.49256C4.73006 5.49385 4.73134 5.49513 4.73261 5.4964C4.73388 5.49767 4.73514 5.49893 4.7364 5.50018C4.73765 5.50144 4.7389 5.50268 4.74013 5.50392C4.74137 5.50516 4.7426 5.50638 4.74382 5.50761C4.74504 5.50883 4.74626 5.51004 4.74746 5.51125C4.74867 5.51245 4.74986 5.51365 4.75105 5.51484C4.75224 5.51603 4.75342 5.51721 4.75459 5.51838C4.75577 5.51955 4.75693 5.52072 4.75809 5.52187C4.75924 5.52303 4.76039 5.52418 4.76153 5.52532C4.76267 5.52645 4.7638 5.52759 4.76492 5.52871C4.76605 5.52983 4.76716 5.53095 4.76827 5.53205C4.76938 5.53316 4.77047 5.53426 4.77156 5.53535C4.77266 5.53644 4.77374 5.53752 4.77481 5.5386C4.77588 5.53967 4.77695 5.54073 4.77801 5.54179C4.77906 5.54285 4.78011 5.5439 4.78115 5.54494C4.78219 5.54598 4.78322 5.54701 4.78425 5.54803C4.78527 5.54906 4.78629 5.55007 4.78729 5.55108C4.7883 5.55208 4.7893 5.55308 4.79029 5.55407C4.79128 5.55506 4.79226 5.55604 4.79323 5.55701C4.7942 5.55799 4.79517 5.55895 4.79612 5.55991C4.79708 5.56086 4.79803 5.56181 4.79896 5.56275C4.7999 5.56369 4.80083 5.56462 4.80175 5.56554C4.80268 5.56646 4.80359 5.56737 4.80449 5.56828C4.8054 5.56918 4.80629 5.57008 4.80718 5.57097C4.80807 5.57185 4.80895 5.57273 4.80982 5.5736C4.81069 5.57447 4.81155 5.57533 4.8124 5.57619C4.81325 5.57704 4.8141 5.57788 4.81493 5.57872C4.81577 5.57955 4.81659 5.58038 4.81741 5.5812C4.81823 5.58202 4.81904 5.58282 4.81984 5.58363C4.82064 5.58443 4.82143 5.58522 4.82222 5.586C4.823 5.58678 4.82377 5.58756 4.82454 5.58832C4.8253 5.58909 4.82606 5.58984 4.82681 5.59059C4.82755 5.59134 4.82829 5.59208 4.82902 5.59281C4.82975 5.59354 4.83048 5.59426 4.83119 5.59497C4.8319 5.59569 4.8326 5.59639 4.8333 5.59708C4.83399 5.59778 4.83468 5.59846 4.83536 5.59914C4.83603 5.59982 4.8367 5.60048 4.83736 5.60114C4.83802 5.6018 4.83867 5.60245 4.83931 5.60309C4.83995 5.60373 4.84058 5.60437 4.8412 5.60499C4.84183 5.60561 4.84244 5.60623 4.84305 5.60683C4.84365 5.60744 4.84425 5.60803 4.84483 5.60862C4.84542 5.60921 4.846 5.60978 4.84657 5.61035C4.84714 5.61092 4.84769 5.61148 4.84825 5.61203C4.8488 5.61258 4.84934 5.61312 4.84987 5.61365C4.8504 5.61419 4.85092 5.61471 4.85144 5.61522C4.85195 5.61574 4.85246 5.61624 4.85295 5.61674C4.85345 5.61723 4.85393 5.61772 4.85441 5.6182C4.85489 5.61867 4.85536 5.61914 4.85582 5.6196C4.85627 5.62006 4.85672 5.62051 4.85716 5.62095C4.8576 5.62139 4.85804 5.62182 4.85846 5.62224C4.85888 5.62266 4.85929 5.62308 4.85969 5.62348C4.8601 5.62388 4.86049 5.62428 4.86088 5.62466C4.86126 5.62504 4.86163 5.62542 4.862 5.62579C4.86237 5.62615 4.86272 5.62651 4.86307 5.62685C4.86342 5.6272 4.86375 5.62754 4.86408 5.62787C4.86441 5.62819 4.86473 5.62851 4.86504 5.62882C4.86535 5.62913 4.86565 5.62943 4.86594 5.62972C4.86623 5.63001 4.86651 5.63029 4.86678 5.63056C4.86705 5.63083 4.86731 5.6311 4.86756 5.63135C4.86782 5.6316 4.86806 5.63184 4.86829 5.63208C4.86852 5.63231 4.86875 5.63253 4.86896 5.63275C4.86918 5.63296 4.86938 5.63317 4.86958 5.63336C4.86977 5.63356 4.86996 5.63374 4.87013 5.63392C4.87031 5.63409 4.87047 5.63426 4.87063 5.63441C4.87078 5.63457 4.87093 5.63472 4.87107 5.63485C4.87121 5.63499 4.87133 5.63512 4.87145 5.63524C4.87157 5.63535 4.87168 5.63546 4.87177 5.63556C4.87187 5.63566 4.87196 5.63575 4.87204 5.63582C4.87212 5.6359 4.87219 5.63597 4.87224 5.63603C4.8723 5.63609 4.87235 5.63614 4.87239 5.63618C4.87243 5.63622 4.87246 5.63625 4.87248 5.63627C4.8725 5.63629 4.87251 5.6363 5.40284 5.10597C5.93317 4.57564 5.93316 4.57563 5.93314 4.57561C5.93312 4.57559 5.93309 4.57556 5.93305 4.57552C5.93301 4.57548 5.93296 4.57543 5.9329 4.57537C5.93285 4.57531 5.93278 4.57524 5.9327 4.57516C5.93262 4.57508 5.93253 4.575 5.93243 4.5749C5.93234 4.5748 5.93223 4.57469 5.93211 4.57458C5.93199 4.57446 5.93187 4.57433 5.93173 4.57419C5.93159 4.57406 5.93145 4.57391 5.93129 4.57375C5.93113 4.5736 5.93097 4.57343 5.93079 4.57326C5.93062 4.57308 5.93043 4.5729 5.93024 4.5727C5.93004 4.57251 5.92984 4.5723 5.92962 4.57209C5.92941 4.57187 5.92918 4.57165 5.92895 4.57142C5.92872 4.57118 5.92848 4.57094 5.92822 4.57069C5.92797 4.57044 5.92771 4.57017 5.92744 4.5699C5.92717 4.56963 5.92689 4.56935 5.9266 4.56906C5.92631 4.56877 5.92601 4.56847 5.9257 4.56816C5.92539 4.56785 5.92507 4.56753 5.92474 4.56721C5.92441 4.56688 5.92408 4.56654 5.92373 4.56619C5.92338 4.56585 5.92303 4.56549 5.92266 4.56512C5.92229 4.56476 5.92192 4.56438 5.92154 4.564C5.92115 4.56362 5.92076 4.56322 5.92035 4.56282C5.91995 4.56242 5.91954 4.562 5.91912 4.56158C5.9187 4.56116 5.91826 4.56073 5.91782 4.56029C5.91738 4.55985 5.91693 4.5594 5.91648 4.55894C5.91602 4.55848 5.91555 4.55801 5.91507 4.55754C5.9146 4.55706 5.91411 4.55657 5.91361 4.55608C5.91312 4.55558 5.91261 4.55508 5.9121 4.55456C5.91158 4.55405 5.91106 4.55353 5.91053 4.55299C5.91 4.55246 5.90946 4.55192 5.90891 4.55137C5.90836 4.55082 5.9078 4.55026 5.90723 4.54969C5.90666 4.54912 5.90608 4.54855 5.90549 4.54796C5.90491 4.54737 5.90431 4.54678 5.90371 4.54617C5.9031 4.54557 5.90249 4.54495 5.90186 4.54433C5.90124 4.54371 5.90061 4.54307 5.89997 4.54243C5.89933 4.54179 5.89868 4.54114 5.89802 4.54048C5.89736 4.53982 5.89669 4.53916 5.89602 4.53848C5.89534 4.5378 5.89465 4.53712 5.89396 4.53642C5.89326 4.53573 5.89256 4.53503 5.89185 4.53431C5.89114 4.5336 5.89041 4.53288 5.88968 4.53215C5.88895 4.53142 5.88822 4.53068 5.88747 4.52993C5.88672 4.52918 5.88596 4.52843 5.8852 4.52766C5.88443 4.5269 5.88366 4.52612 5.88288 4.52534C5.88209 4.52456 5.8813 4.52377 5.8805 4.52297C5.8797 4.52216 5.87889 4.52136 5.87807 4.52054C5.87725 4.51972 5.87643 4.51889 5.87559 4.51806C5.87476 4.51722 5.87391 4.51638 5.87306 4.51553C5.87221 4.51467 5.87135 4.51381 5.87048 4.51294C5.86961 4.51207 5.86873 4.51119 5.86784 4.51031C5.86695 4.50942 5.86606 4.50852 5.86515 4.50762C5.86425 4.50671 5.86334 4.5058 5.86241 4.50488C5.86149 4.50396 5.86056 4.50303 5.85962 4.50209C5.85869 4.50115 5.85774 4.5002 5.85678 4.49925C5.85583 4.49829 5.85486 4.49733 5.85389 4.49635C5.85292 4.49538 5.85194 4.4944 5.85095 4.49341C5.84996 4.49242 5.84896 4.49142 5.84795 4.49042C5.84695 4.48941 5.84593 4.4884 5.84491 4.48737C5.84388 4.48635 5.84285 4.48532 5.84181 4.48428C5.84077 4.48324 5.83972 4.48219 5.83867 4.48113C5.83761 4.48007 5.83654 4.47901 5.83547 4.47794C5.8344 4.47686 5.83332 4.47578 5.83223 4.47469C5.83114 4.4736 5.83004 4.4725 5.82893 4.47139C5.82782 4.47029 5.82671 4.46917 5.82558 4.46805C5.82446 4.46693 5.82333 4.46579 5.82219 4.46466C5.82105 4.46352 5.8199 4.46237 5.81875 4.46121C5.81759 4.46006 5.81643 4.45889 5.81525 4.45772C5.81408 4.45655 5.8129 4.45537 5.81171 4.45418C5.81052 4.45299 5.80933 4.45179 5.80812 4.45059C5.80692 4.44938 5.8057 4.44817 5.80448 4.44695C5.80326 4.44572 5.80203 4.4445 5.80079 4.44326C5.79956 4.44202 5.79831 4.44078 5.79706 4.43952C5.7958 4.43827 5.79454 4.43701 5.79327 4.43574C5.792 4.43447 5.79072 4.43319 5.78944 4.4319C5.78815 4.43062 5.78686 4.42933 5.78556 4.42802C5.78426 4.42672 5.78295 4.42541 5.78163 4.4241C5.78031 4.42278 5.77899 4.42145 5.77765 4.42012C5.77632 4.41879 5.77498 4.41744 5.77363 4.4161C5.77228 4.41475 5.77093 4.41339 5.76956 4.41203C5.7682 4.41066 5.76682 4.40929 5.76544 4.40791C5.76406 4.40653 5.76267 4.40514 5.76128 4.40374C5.75988 4.40235 5.75848 4.40094 5.75707 4.39953C5.75565 4.39812 5.75424 4.3967 5.75281 4.39527C5.75138 4.39385 5.74995 4.39241 5.7485 4.39097C5.74706 4.38953 5.74561 4.38808 5.74415 4.38662C5.74269 4.38516 5.74123 4.38369 5.73976 4.38222C5.73828 4.38075 5.7368 4.37927 5.73531 4.37778C5.73382 4.37629 5.73233 4.37479 5.73082 4.37329C5.72932 4.37178 5.72781 4.37027 5.72629 4.36875C5.72477 4.36723 5.72324 4.36571 5.72171 4.36417C5.72017 4.36264 5.71863 4.3611 5.71708 4.35955C5.71553 4.358 5.71398 4.35644 5.71241 4.35488C5.71085 4.35331 5.70927 4.35174 5.7077 4.35016C5.70612 4.34858 5.70453 4.34699 5.70293 4.3454C5.70134 4.3438 5.69974 4.3422 5.69813 4.34059C5.69652 4.33898 5.6949 4.33737 5.69328 4.33574C5.69165 4.33412 5.69002 4.33249 5.68838 4.33085C5.68674 4.32921 5.6851 4.32756 5.68344 4.32591C5.68179 4.32426 5.68013 4.32259 5.67846 4.32093C5.67679 4.31926 5.67512 4.31758 5.67343 4.3159C5.67175 4.31422 5.67006 4.31253 5.66836 4.31083C5.66667 4.30913 5.66496 4.30743 5.66325 4.30571C5.66154 4.304 5.65982 4.30228 5.65809 4.30056C5.65636 4.29883 5.65463 4.29709 5.65289 4.29535C5.65115 4.29361 5.6494 4.29186 5.64764 4.29011C5.64589 4.28835 5.64413 4.28659 5.64236 4.28482C5.64059 4.28305 5.63881 4.28128 5.63703 4.27949C5.63524 4.27771 5.63345 4.27592 5.63165 4.27412C5.62985 4.27232 5.62805 4.27051 5.62624 4.2687C5.62442 4.26689 5.62261 4.26507 5.62078 4.26324C5.61895 4.26142 5.61712 4.25958 5.61528 4.25774C5.61344 4.2559 5.61159 4.25406 5.60974 4.2522C5.60788 4.25035 5.60602 4.24848 5.60415 4.24662C5.60228 4.24475 5.60041 4.24287 5.59853 4.24099C5.59664 4.23911 5.59475 4.23722 5.59286 4.23532C5.59096 4.23343 5.58906 4.23152 5.58715 4.22961C5.58524 4.2277 5.58332 4.22579 5.5814 4.22386C5.57947 4.22194 5.57754 4.22001 5.57561 4.21807C5.57367 4.21613 5.57172 4.21419 5.56977 4.21224C5.56782 4.21029 5.56586 4.20833 5.5639 4.20636C5.56193 4.2044 5.55996 4.20243 5.55798 4.20045C5.55601 4.19847 5.55402 4.19649 5.55203 4.19449C5.55004 4.1925 5.54804 4.1905 5.54603 4.1885C5.54403 4.18649 5.54202 4.18448 5.54 4.18246C5.53798 4.18045 5.53596 4.17842 5.53392 4.17639C5.53189 4.17436 5.52985 4.17232 5.52781 4.17027C5.52576 4.16823 5.52371 4.16618 5.52165 4.16412C5.5196 4.16206 5.51753 4.16 5.51546 4.15792C5.51339 4.15585 5.51131 4.15377 5.50923 4.15169C5.50714 4.14961 5.50505 4.14751 5.50295 4.14542C5.50085 4.14332 5.49875 4.14122 5.49664 4.1391C5.49453 4.13699 5.49241 4.13488 5.49029 4.13275C5.48816 4.13063 5.48603 4.1285 5.4839 4.12636C5.48176 4.12423 5.47962 4.12208 5.47747 4.11993C5.47532 4.11778 5.47316 4.11563 5.471 4.11347C5.46884 4.1113 5.46667 4.10914 5.4645 4.10696C5.46232 4.10479 5.46014 4.10261 5.45795 4.10042C5.45577 4.09823 5.45357 4.09604 5.45137 4.09384C5.44917 4.09164 5.44696 4.08943 5.44475 4.08722C5.44254 4.085 5.44032 4.08279 5.4381 4.08056C5.43587 4.07833 5.43364 4.0761 5.4314 4.07386C5.42916 4.07163 5.42692 4.06938 5.42467 4.06713C5.42242 4.06488 5.42016 4.06263 5.4179 4.06036C5.41564 4.0581 5.41337 4.05583 5.41109 4.05356C5.40882 4.05128 5.40654 4.049 5.40425 4.04671C5.40196 4.04443 5.39967 4.04213 5.39737 4.03983C5.39507 4.03753 5.39276 4.03523 5.39045 4.03292C5.38814 4.03061 5.38582 4.02829 5.3835 4.02596C5.38118 4.02364 5.37885 4.02131 5.37651 4.01898C5.37417 4.01664 5.37183 4.0143 5.36948 4.01195C5.36714 4.0096 5.36478 4.00725 5.36242 4.00489C5.36006 4.00253 5.3577 4.00016 5.35533 3.99779C5.35295 3.99542 5.35058 3.99304 5.34819 3.99066C5.34581 3.98828 5.34342 3.98589 5.34103 3.98349C5.33863 3.9811 5.33623 3.97869 5.33382 3.97629C5.33142 3.97388 5.329 3.97147 5.32658 3.96905C5.32416 3.96663 5.32174 3.9642 5.31931 3.96177C5.31688 3.95934 5.31444 3.95691 5.312 3.95447C5.30956 3.95202 5.30711 3.94958 5.30466 3.94712C5.3022 3.94467 5.29974 3.94221 5.29728 3.93974C5.29481 3.93728 5.29234 3.93481 5.28987 3.93233C5.28739 3.92986 5.28491 3.92737 5.28242 3.92489C5.27993 3.9224 5.27744 3.9199 5.27494 3.91741C5.27244 3.91491 5.26994 3.9124 5.26743 3.90989C5.26492 3.90738 5.2624 3.90486 5.25988 3.90234C5.25736 3.89982 5.25483 3.89729 5.2523 3.89476C5.24976 3.89223 5.24722 3.88969 5.24468 3.88715C5.24214 3.8846 5.23959 3.88205 5.23703 3.8795C5.23448 3.87694 5.23192 3.87438 5.22935 3.87182C5.22678 3.86925 5.22421 3.86668 5.22164 3.8641C5.21906 3.86152 5.21648 3.85894 5.21389 3.85635C5.2113 3.85377 5.20871 3.85117 5.20611 3.84857C5.20351 3.84597 5.20091 3.84337 5.1983 3.84076C5.19569 3.83815 5.19307 3.83554 5.19045 3.83292C5.18783 3.8303 5.1852 3.82767 5.18257 3.82504C5.17994 3.82241 5.17731 3.81977 5.17466 3.81713C5.17202 3.81449 5.16938 3.81184 5.16672 3.80919C5.16407 3.80654 5.16141 3.80388 5.15875 3.80122C5.15609 3.79855 5.15342 3.79589 5.15075 3.79321C5.14807 3.79054 5.1454 3.78786 5.14271 3.78518C5.14003 3.78249 5.13734 3.7798 5.13464 3.77711C5.13195 3.77442 5.12925 3.77172 5.12655 3.76901C5.12384 3.76631 5.12113 3.7636 5.11842 3.76088C5.1157 3.75817 5.11298 3.75545 5.11026 3.75272C5.10753 3.75 5.1048 3.74727 5.10207 3.74453C5.09933 3.7418 5.09659 3.73906 5.09385 3.73631C5.0911 3.73357 5.08835 3.73082 5.0856 3.72806C5.08284 3.72531 5.08008 3.72255 5.07731 3.71978C5.07455 3.71701 5.07178 3.71424 5.069 3.71147C5.06623 3.70869 5.06345 3.70591 5.06066 3.70313C5.05788 3.70034 5.05509 3.69755 5.05229 3.69476C5.0495 3.69196 5.0467 3.68916 5.04389 3.68636C5.04109 3.68355 5.03828 3.68074 5.03546 3.67793C5.03265 3.67511 5.02983 3.67229 5.027 3.66947C5.02418 3.66664 5.02135 3.66382 5.01852 3.66098C5.01568 3.65815 5.01284 3.65531 5.01 3.65246C5.00716 3.64962 5.00431 3.64677 5.00145 3.64392C4.9986 3.64107 4.99574 3.63821 4.99288 3.63535C4.99002 3.63248 4.98715 3.62962 4.98428 3.62674C4.98141 3.62387 4.97853 3.62099 4.97565 3.61811C4.97277 3.61523 4.96988 3.61234 4.96699 3.60945C4.9641 3.60656 4.9612 3.60367 4.9583 3.60077C4.9554 3.59787 4.9525 3.59496 4.94959 3.59205C4.94668 3.58914 4.94376 3.58623 4.94085 3.58331C4.93793 3.58039 4.935 3.57747 4.93208 3.57454C4.92915 3.57161 4.92622 3.56868 4.92328 3.56574C4.92034 3.56281 4.9174 3.55987 4.91446 3.55692C4.91151 3.55398 4.90856 3.55102 4.90561 3.54807C4.90265 3.54512 4.89969 3.54216 4.89673 3.53919C4.89376 3.53623 4.8908 3.53326 4.88782 3.53029C4.88485 3.52732 4.88187 3.52434 4.87889 3.52136C4.87591 3.51838 4.87293 3.51539 4.86993 3.5124C4.86694 3.50941 4.86395 3.50642 4.86095 3.50342C4.85795 3.50042 4.85495 3.49741 4.85194 3.49441C4.84893 3.4914 4.84592 3.48839 4.84291 3.48537C4.83989 3.48236 4.83687 3.47933 4.83385 3.47631C4.83082 3.47329 4.82779 3.47026 4.82476 3.46722C4.82173 3.46419 4.81869 3.46115 4.81565 3.45811C4.8126 3.45507 4.80956 3.45202 4.80651 3.44897C4.80346 3.44592 4.8004 3.44287 4.79735 3.43981C4.79429 3.43675 4.79123 3.43369 4.78816 3.43062C4.78509 3.42756 4.78202 3.42449 4.77895 3.42141C4.77587 3.41834 4.77279 3.41526 4.76971 3.41217C4.76663 3.40909 4.76354 3.406 4.76045 3.40291C4.75736 3.39982 4.75426 3.39673 4.75116 3.39363C4.74806 3.39053 4.74496 3.38742 4.74185 3.38432C4.73875 3.38121 4.73563 3.3781 4.73252 3.37498C4.7294 3.37187 4.72628 3.36875 4.72316 3.36563C4.72004 3.3625 4.71691 3.35938 4.71378 3.35624C4.71065 3.35311 4.70751 3.34998 4.70437 3.34684C4.70124 3.3437 4.69809 3.34056 4.69495 3.33741C4.6918 3.33426 4.68865 3.33111 4.68549 3.32796C4.68234 3.32481 4.67918 3.32165 4.67602 3.31849C4.67286 3.31532 4.66969 3.31216 4.66652 3.30899C4.66335 3.30582 4.66018 3.30264 4.657 3.29947C4.65383 3.29629 4.65064 3.29311 4.64746 3.28992C4.64427 3.28674 4.64109 3.28355 4.63789 3.28036C4.6347 3.27717 4.63151 3.27397 4.62831 3.27077C4.62511 3.26757 4.6219 3.26437 4.6187 3.26116C4.61549 3.25796 4.61228 3.25474 4.60907 3.25153C4.60585 3.24832 4.60263 3.2451 4.59941 3.24188C4.59619 3.23866 4.59297 3.23543 4.58974 3.2322C4.58651 3.22897 4.58328 3.22574 4.58004 3.22251C4.5768 3.21927 4.57357 3.21603 4.57032 3.21279C4.56708 3.20954 4.56383 3.2063 4.56058 3.20305C4.55733 3.1998 4.55408 3.19654 4.55082 3.19329C4.54757 3.19003 4.54431 3.18677 4.54104 3.18351C4.53778 3.18024 4.53451 3.17698 4.53124 3.17371C4.52797 3.17043 4.5247 3.16716 4.52142 3.16388C4.51814 3.16061 4.51486 3.15732 4.51158 3.15404C4.50829 3.15076 4.505 3.14747 4.50171 3.14418C4.49842 3.14089 4.49513 3.13759 4.49183 3.13429C4.48853 3.131 4.48523 3.1277 4.48193 3.12439C4.47862 3.12109 4.47532 3.11778 4.472 3.11447C4.46869 3.11116 4.46538 3.10784 4.46206 3.10453C4.45874 3.10121 4.45542 3.09789 4.4521 3.09457C4.44878 3.09124 4.44545 3.08791 4.44212 3.08458C4.43879 3.08125 4.43546 3.07792 4.43212 3.07458C4.42878 3.07125 4.42544 3.06791 4.4221 3.06457C4.41876 3.06122 4.41541 3.05788 4.41206 3.05453C4.40871 3.05118 4.40536 3.04783 4.40201 3.04447C4.39865 3.04112 4.39529 3.03776 4.39193 3.0344C4.38857 3.03103 4.38521 3.02767 4.38184 3.0243C4.37847 3.02094 4.3751 3.01756 4.37173 3.01419C4.36835 3.01082 4.36498 3.00744 4.3616 3.00406C4.35822 3.00068 4.35483 2.9973 4.35145 2.99391C4.34806 2.99053 4.34468 2.98714 4.34128 2.98375C4.33789 2.98036 4.3345 2.97696 4.3311 2.97357C4.3277 2.97017 4.3243 2.96677 4.3209 2.96337C4.3175 2.95996 4.31409 2.95656 4.31068 2.95315C4.30727 2.94974 4.30386 2.94633 4.30045 2.94291C4.29703 2.9395 4.29362 2.93608 4.2902 2.93266C4.28678 2.92924 4.28335 2.92582 4.27993 2.92239C4.2765 2.91897 4.27308 2.91554 4.26964 2.91211C4.26621 2.90868 4.26278 2.90524 4.25934 2.90181C4.25591 2.89837 4.25247 2.89493 4.24903 2.89149C4.24558 2.88805 4.24214 2.8846 4.23869 2.88116C4.23524 2.87771 4.2318 2.87426 4.22834 2.87081C4.22489 2.86735 4.22143 2.8639 4.21798 2.86044C4.21452 2.85698 4.21106 2.85352 4.2076 2.85006C4.20413 2.8466 4.20067 2.84313 4.1972 2.83966C4.19373 2.8362 4.19026 2.83273 4.18679 2.82925C4.18331 2.82578 4.17984 2.8223 4.17636 2.81882C4.17288 2.81535 4.1694 2.81187 4.16592 2.80838C4.16243 2.8049 4.15895 2.80141 4.15546 2.79792C4.15197 2.79444 4.14848 2.79095 4.14499 2.78745C4.1415 2.78396 4.138 2.78046 4.1345 2.77697C4.131 2.77347 4.1275 2.76997 4.124 2.76647C4.1205 2.76296 4.11699 2.75946 4.11349 2.75595C4.10998 2.75244 4.10647 2.74893 4.10296 2.74542C4.09944 2.74191 4.09593 2.73839 4.09241 2.73488C4.0889 2.73136 4.08538 2.72784 4.08186 2.72432C4.07833 2.7208 4.07481 2.71728 4.07129 2.71375C4.06776 2.71022 4.06423 2.7067 4.0607 2.70317C4.05717 2.69964 4.05364 2.6961 4.0501 2.69257C4.04657 2.68903 4.04303 2.6855 4.03949 2.68196C4.03595 2.67842 4.03241 2.67488 4.02887 2.67133C4.02533 2.66779 4.02178 2.66425 4.01823 2.6607C4.01469 2.65715 4.01114 2.6536 4.00758 2.65005C4.00403 2.6465 4.00048 2.64294 3.99692 2.63939C3.99337 2.63583 3.98981 2.63227 3.98625 2.62871C3.98269 2.62515 3.97913 2.62159 3.97556 2.61803C3.972 2.61446 3.96843 2.6109 3.96486 2.60733C3.9613 2.60376 3.95773 2.60019 3.95415 2.59662C3.95058 2.59305 3.94701 2.58947 3.94343 2.5859C3.93986 2.58232 3.93628 2.57874 3.9327 2.57516C3.92912 2.57158 3.92554 2.568 3.92195 2.56442C3.91837 2.56084 3.91478 2.55725 3.9112 2.55366C3.90761 2.55008 3.90402 2.54649 3.90043 2.5429C3.89684 2.5393 3.89325 2.53571 3.88965 2.53212C3.88606 2.52852 3.88246 2.52493 3.87886 2.52133C3.87526 2.51773 3.87167 2.51413 3.86806 2.51053C3.86446 2.50693 3.86086 2.50332 3.85725 2.49972C3.85365 2.49611 3.85004 2.49251 3.84643 2.4889C3.84282 2.48529 3.83921 2.48168 3.8356 2.47807C3.83199 2.47445 3.82838 2.47084 3.82476 2.46723C3.82115 2.46361 3.81753 2.45999 3.81391 2.45638C3.81029 2.45276 3.80667 2.44914 3.80305 2.44552C3.79943 2.44189 3.79581 2.43827 3.79218 2.43465C3.78856 2.43102 3.78493 2.42739 3.7813 2.42377C3.77767 2.42014 3.77404 2.41651 3.77041 2.41288C3.76678 2.40925 3.76315 2.40561 3.75952 2.40198C3.75588 2.39835 3.75225 2.39471 3.74861 2.39107C3.74497 2.38744 3.74133 2.3838 3.73769 2.38016C3.73405 2.37652 3.73041 2.37288 3.72677 2.36924C3.72313 2.36559 3.71948 2.36195 3.71584 2.3583C3.71219 2.35466 3.70855 2.35101 3.7049 2.34736C3.70125 2.34371 3.6976 2.34006 3.69395 2.33641C3.6903 2.33276 3.68665 2.32911 3.68299 2.32546C3.67934 2.3218 3.67568 2.31815 3.67203 2.31449C3.66837 2.31084 3.66471 2.30718 3.66106 2.30352C3.6574 2.29986 3.65374 2.2962 3.65008 2.29254C3.64642 2.28888 3.64275 2.28522 3.63909 2.28155C3.63543 2.27789 3.63176 2.27423 3.6281 2.27056C3.62443 2.26689 3.62076 2.26323 3.61709 2.25956C3.61343 2.25589 3.60976 2.25222 3.60609 2.24855C3.60242 2.24488 3.59874 2.24121 3.59507 2.23754C3.5914 2.23386 3.58773 2.23019 3.58405 2.22652C3.58038 2.22284 3.5767 2.21917 3.57302 2.21549C3.56935 2.21181 3.56567 2.20813 3.56199 2.20445C3.55831 2.20078 3.55463 2.1971 3.55095 2.19341C3.54727 2.18973 3.54359 2.18605 3.5399 2.18237C3.53622 2.17869 3.53254 2.175 3.52885 2.17132C3.52517 2.16763 3.52148 2.16395 3.5178 2.16026C3.51411 2.15657 3.51042 2.15289 3.50673 2.1492C3.50304 2.14551 3.49935 2.14182 3.49566 2.13813C3.49197 2.13444 3.48828 2.13075 3.48459 2.12706C3.4809 2.12336 3.47721 2.11967 3.47351 2.11598C3.46982 2.11228 3.46613 2.10859 3.46243 2.1049C3.45874 2.1012 3.45504 2.0975 3.45134 2.09381C3.44765 2.09011 3.44395 2.08641 3.44025 2.08272C3.43655 2.07902 3.43285 2.07532 3.42915 2.07162C3.42545 2.06792 3.42175 2.06422 3.41805 2.06052C3.41435 2.05682 3.41065 2.05312 3.40695 2.04941C3.40325 2.04571 3.39954 2.04201 3.39584 2.03831C3.39214 2.0346 3.38843 2.0309 3.38473 2.02719C3.38102 2.02349 3.37732 2.01978 3.37361 2.01608C3.36991 2.01237 3.3662 2.00867 3.36249 2.00496C3.35879 2.00125 3.35508 1.99754 3.35137 1.99384C3.34766 1.99013 3.34395 1.98642 3.34025 1.98271C3.33654 1.979 3.33283 1.97529 3.32912 1.97158C3.32541 1.96787 3.3217 1.96416 3.31799 1.96045C3.31427 1.95674 3.31056 1.95303 3.30685 1.94932C3.30314 1.9456 3.29943 1.94189 3.29572 1.93818C3.292 1.93447 3.28829 1.93075 3.28458 1.92704C3.28086 1.92333 3.27715 1.91961 3.27344 1.9159C3.26972 1.91219 3.26601 1.90847 3.26229 1.90476C3.25858 1.90104 3.25486 1.89733 3.25115 1.89361C3.24743 1.8899 3.24372 1.88618 3.24 1.88247C3.23629 1.87875 3.23257 1.87503 3.22885 1.87132C3.22514 1.8676 3.22142 1.86389 3.2177 1.86017C3.21399 1.85645 3.21027 1.85274 3.20655 1.84902C3.20284 1.8453 3.19912 1.84158 3.1954 1.83787C3.19169 1.83415 3.18797 1.83043 3.18425 1.82672C3.18053 1.823 3.17681 1.81928 3.1731 1.81556C3.16938 1.81184 3.16566 1.80813 3.16194 1.80441C3.15823 1.80069 3.15451 1.79697 3.15079 1.79325C3.14707 1.78954 3.14335 1.78582 3.13963 1.7821C3.13592 1.77838 3.1322 1.77466 3.12848 1.77095C3.12476 1.76723 3.12104 1.76351 3.11733 1.75979C3.11361 1.75607 3.10989 1.75235 3.10617 1.74864C3.10245 1.74492 3.09874 1.7412 3.09502 1.73748C3.0913 1.73376 3.08758 1.73005 3.08386 1.72633C3.08015 1.72261 3.07643 1.71889 3.07271 1.71518C3.06899 1.71146 3.06528 1.70774 3.06156 1.70402C3.05784 1.70031 3.05413 1.69659 3.05041 1.69287C3.04669 1.68916 3.04298 1.68544 3.03926 1.68172C3.03554 1.67801 3.03183 1.67429 3.02811 1.67058C3.0244 1.66686 3.02068 1.66314 3.01696 1.65943C3.01325 1.65571 3.00953 1.652 3.00582 1.64828C3.0021 1.64457 2.99839 1.64085 2.99468 1.63714C2.99096 1.63343 2.98725 1.62971 2.98353 1.626C2.97982 1.62229 2.97611 1.61857 2.97239 1.61486C2.96868 1.61115 2.96497 1.60743 2.96126 1.60372C2.95755 1.60001 2.95383 1.5963 2.95012 1.59259C2.94641 1.58888 2.9427 1.58517 2.93899 1.58145C2.93528 1.57774 2.93157 1.57403 2.92786 1.57033C2.92415 1.56662 2.92044 1.56291 2.91673 1.5592C2.91303 1.55549 2.90932 1.55178 2.90561 1.54808C2.9019 1.54437 2.8982 1.54066 2.89449 1.53695C2.89078 1.53325 2.88708 1.52954 2.88337 1.52584C2.87967 1.52213 2.87596 1.51843 2.87226 1.51472C2.86856 1.51102 2.86485 1.50732 2.86115 1.50361C2.85745 1.49991 2.85374 1.49621 2.85004 1.49251C2.84634 1.48881 2.84264 1.48511 2.83894 1.48141C2.83524 1.47771 2.83154 1.47401 2.82784 1.47031C2.82414 1.46661 2.82045 1.46291 2.81675 1.45921C2.81305 1.45552 2.80936 1.45182 2.80566 1.44813C2.80196 1.44443 2.79827 1.44073 2.79458 1.43704C2.79088 1.43335 2.78719 1.42965 2.7835 1.42596C2.7798 1.42227 2.77611 1.41858 2.77242 1.41489C2.76873 1.41119 2.76504 1.40751 2.76135 1.40382C2.75766 1.40013 2.75397 1.39644 2.75029 1.39275C2.7466 1.38906 2.74291 1.38538 2.73923 1.38169C2.73554 1.37801 2.73186 1.37432 2.72817 1.37064C2.72449 1.36695 2.72081 1.36327 2.71713 1.35959C2.71344 1.35591 2.70976 1.35223 2.70608 1.34855C2.7024 1.34487 2.69873 1.34119 2.69505 1.33751C2.69137 1.33383 2.68769 1.33016 2.68402 1.32648C2.68034 1.32281 2.67667 1.31913 2.67299 1.31546C2.66932 1.31179 2.66565 1.30811 2.66198 1.30444C2.65831 1.30077 2.65464 1.2971 2.65097 1.29343C2.6473 1.28976 2.64363 1.2861 2.63996 1.28243C2.6363 1.27876 2.63263 1.2751 2.62897 1.27143C2.6253 1.26777 2.62164 1.2641 2.61798 1.26044C2.61432 1.25678 2.61065 1.25312 2.607 1.24946C2.60334 1.2458 2.59968 1.24214 2.59602 1.23849C2.59236 1.23483 2.58871 1.23117 2.58505 1.22752C2.5814 1.22386 2.57775 1.22021 2.57409 1.21656C2.57044 1.21291 2.56679 1.20926 2.56314 1.20561C2.55949 1.20196 2.55585 1.19831 2.5522 1.19466C2.54855 1.19102 2.54491 1.18737 2.54126 1.18373C2.53762 1.18009 2.53398 1.17644 2.53034 1.1728C2.5267 1.16916 2.52306 1.16552 2.51942 1.16188C2.51578 1.15825 2.51214 1.15461 2.50851 1.15097C2.50487 1.14734 2.50124 1.14371 2.49761 1.14007C2.49398 1.13644 2.49035 1.13281 2.48672 1.12918C2.48309 1.12555 2.47946 1.12193 2.47583 1.1183C2.47221 1.11467 2.46858 1.11105 2.46496 1.10743C2.46134 1.1038 2.45772 1.10018 2.4541 1.09656C2.45048 1.09294 2.44686 1.08933 2.44324 1.08571C2.43963 1.08209 2.43601 1.07848 2.4324 1.07486C2.42879 1.07125 2.42518 1.06764 2.42157 1.06403C2.41796 1.06042 2.41435 1.05681 2.41074 1.05321C2.40713 1.0496 2.40353 1.04599 2.39993 1.04239C2.39632 1.03879 2.39272 1.03519 2.38912 1.03159C2.38552 1.02799 2.38193 1.02439 2.37833 1.0208C2.37473 1.0172 2.37114 1.01361 2.36755 1.01001C2.36396 1.00642 2.36037 1.00283 2.35678 0.999242C2.35319 0.995654 2.3496 0.992067 2.34602 0.988482C2.34243 0.984897 2.33885 0.981314 2.33527 0.977733C2.33169 0.974152 2.32811 0.970573 2.32453 0.966995C2.32095 0.963418 2.31738 0.959843 2.3138 0.956269C2.31023 0.952696 2.30666 0.949124 2.30309 0.945555C2.29952 0.941985 2.29595 0.938418 2.29239 0.934852C2.28882 0.931287 2.28526 0.927723 2.2817 0.924162C2.27814 0.9206 2.27458 0.917041 2.27102 0.913483C2.26746 0.909926 2.26391 0.906371 2.26035 0.902817C2.2568 0.899264 2.25325 0.895713 2.2497 0.892164C2.24615 0.888615 2.2426 0.885068 2.23906 0.881523C2.23551 0.877978 2.23197 0.874435 2.22843 0.870894C2.22489 0.867354 2.22135 0.863815 2.21781 0.860279C2.21428 0.856743 2.21074 0.853209 2.20721 0.849677C2.20368 0.846145 2.20015 0.842616 2.19662 0.839088C2.1931 0.835561 2.18957 0.832036 2.18605 0.828513C2.18252 0.82499 2.179 0.821469 2.17549 0.817951C2.17197 0.814432 2.16845 0.810916 2.16494 0.807403C2.16142 0.803889 2.15791 0.800377 2.1544 0.796868C2.15089 0.793359 2.14739 0.789852 2.14388 0.786348C2.14038 0.782844 2.13688 0.779342 2.13338 0.775842C2.12988 0.772342 2.12638 0.768845 2.12289 0.76535C2.11939 0.761855 2.1159 0.758363 2.11241 0.754873C2.10892 0.751383 2.10543 0.747896 2.10195 0.744411C2.09846 0.740926 2.09498 0.737443 2.0915 0.733963C2.08802 0.730483 2.08454 0.727005 2.08107 0.72353C2.07759 0.720055 2.07412 0.716583 2.07065 0.713113C2.06718 0.709643 2.06371 0.706175 2.06025 0.70271C2.05678 0.699246 2.05332 0.695783 2.04986 0.692324C2.0464 0.688864 2.04294 0.685407 2.03949 0.681952C2.03603 0.678498 2.03258 0.675046 2.02913 0.671597C2.02568 0.668148 2.02224 0.664701 2.01879 0.661258C2.01535 0.657814 2.01191 0.654373 2.00847 0.650934C2.00503 0.647496 2.0016 0.64406 1.99816 0.640627C1.99473 0.637194 1.9913 0.633764 1.98787 0.630336C1.98444 0.626909 1.98102 0.623484 1.9776 0.620062C1.97418 0.61664 1.97076 0.613221 1.96734 0.609805C1.96392 0.606388 1.96051 0.602975 1.9571 0.599564C1.95369 0.596153 1.95028 0.592746 1.94688 0.589341C1.94347 0.585936 1.94007 0.582534 1.93667 0.579134C1.93327 0.575735 1.92987 0.572339 1.92648 0.568945C1.92309 0.565552 1.9197 0.562161 1.91631 0.558774C1.91292 0.555386 1.90954 0.552002 1.90616 0.54862C1.90277 0.545238 1.89939 0.54186 1.89602 0.538484C1.89264 0.535108 1.88927 0.531735 1.8859 0.528366C1.88253 0.524996 1.87916 0.521629 1.8758 0.518266C1.87244 0.514902 1.86908 0.511542 1.86572 0.508184C1.86236 0.504827 1.85901 0.501472 1.85566 0.498121C1.8523 0.49477 1.84896 0.491422 1.84561 0.488076C1.84227 0.484731 1.83892 0.481389 1.83559 0.478051C1.83225 0.474712 1.82891 0.471376 1.82558 0.468044C1.82225 0.464711 1.81892 0.461382 1.81559 0.458056C1.81226 0.45473 1.80894 0.451407 1.80562 0.448087C1.8023 0.444768 1.79899 0.441451 1.79567 0.438138C1.79236 0.434825 1.78905 0.431515 1.78574 0.428208C1.78244 0.424902 1.77913 0.421598 1.77583 0.418298C1.77253 0.414998 1.76924 0.411702 1.76594 0.408408C1.76265 0.405115 1.75936 0.401825 1.75607 0.398538C1.75279 0.395252 1.7495 0.391968 1.74622 0.388688C1.74294 0.385408 1.73967 0.382132 1.73639 0.378859C1.73312 0.375586 1.72985 0.372316 1.72658 0.36905C1.72332 0.365783 1.72006 0.362521 1.7168 0.359261C1.71354 0.356002 1.71028 0.352746 1.70703 0.349494C1.70378 0.346241 1.70053 0.342992 1.69728 0.339747C1.69404 0.336502 1.69079 0.33326 1.68756 0.330022L0.626897 1.39068ZM5.93317 5.6363L10.1788 1.39068L9.11812 0.330022L4.87251 4.57564L5.93317 5.6363Z" fill="#5C9DFF"/>
</svg>
