<svg width="44" height="41" viewBox="0 0 44 41" fill="none" xmlns="http://www.w3.org/2000/svg">
<path d="M22.8693 40.9996C16.7912 40.9396 12.0046 36.9708 10.8711 30.9875C10.7422 30.1516 10.6757 29.3073 10.6722 28.4615C10.5553 25.6704 8.85034 23.4475 6.27705 22.7782C5.27232 22.5488 4.22224 22.6213 3.25856 22.9866C2.56077 23.2171 1.85982 23.4412 1.15256 23.6181C1.08596 23.6488 1.01355 23.6649 0.940213 23.6653C0.866871 23.6658 0.794282 23.6505 0.727309 23.6206C0.660337 23.5907 0.600528 23.5468 0.551891 23.492C0.503254 23.4371 0.466912 23.3724 0.445301 23.3023C0.422718 23.2402 0.413026 23.1742 0.416817 23.1082C0.420607 23.0423 0.437802 22.9778 0.46735 22.9187C0.496898 22.8596 0.538179 22.8071 0.588675 22.7645C0.63917 22.7219 0.697819 22.69 0.761043 22.6708C2.60182 22.0772 4.40154 21.2026 6.41598 21.6636C9.37448 22.3551 11.4173 24.7989 11.7425 27.9595C11.8625 29.1309 11.8025 30.3181 12.093 31.48C12.6203 33.6233 13.7832 35.5571 15.429 37.0278C17.0749 38.4984 19.1269 39.4372 21.3158 39.7209C23.3303 40.005 25.2437 39.9577 26.9045 38.5589C27.7066 37.8718 28.3024 36.9755 28.6252 35.9699C29.3988 33.706 29.7745 31.3411 30.3681 29.0236C30.8418 27.1765 31.2143 25.2725 32.4678 23.7254C33.6549 22.256 35.3692 21.3088 37.245 21.0858C39.1041 20.8662 40.9888 21.0846 42.7484 21.7236C43.1651 21.8657 43.7272 21.9825 43.5504 22.5761C43.3735 23.1697 42.862 22.9708 42.4263 22.8287C40.4466 22.1972 38.4259 21.8594 36.3862 22.4467C34.2612 23.0592 32.9351 24.5274 32.2373 26.6208C31.2901 29.4151 30.8639 32.3294 30.0492 35.1458C29.5535 36.8792 28.922 38.4579 27.4444 39.6198C26.0867 40.6681 24.5395 41.0186 22.8693 40.9996Z" fill="#5C9DFF"/>
<path d="M32.7745 4.64526C31.2274 4.50318 29.7497 4.87576 28.25 5.10625C28.0268 5.16174 27.7922 5.15032 27.5755 5.0734C27.3588 4.99647 27.1695 4.85746 27.0312 4.67368C25.9924 3.46439 25.0136 2.16353 23.5865 1.34892C18.4146 -1.61274 14.2468 1.90147 13.5996 6.25239C13.3249 8.11211 13.7574 9.72555 15.1783 11.0611C15.4855 11.3853 15.7673 11.7326 16.0213 12.0999C16.2225 12.3283 16.3522 12.6107 16.3943 12.9121C16.4364 13.2136 16.3891 13.5207 16.2581 13.7955C16.0971 14.1554 15.9581 14.5248 15.794 14.8816C14.7173 17.2434 13.9185 19.6746 13.9185 22.5541C13.8909 23.4988 14.0575 24.4391 14.4079 25.3169C14.5098 25.6507 14.7207 25.9407 15.0069 26.1405C15.2931 26.3403 15.6381 26.4383 15.9866 26.4188C16.7286 26.4125 17.1516 25.9168 17.4042 25.1969C17.8589 23.855 18.3167 22.5099 18.8377 21.1933C19.6113 19.242 20.7953 17.6001 22.6266 16.4793C23.3718 16.0246 23.8896 16.1919 24.1453 17.0129C24.6254 18.4951 24.7178 20.0756 24.4137 21.6038C24.0443 23.4982 23.2928 25.2664 22.6456 27.0661C22.3866 27.7797 22.374 28.408 22.9613 28.9321C23.5486 29.4562 24.2716 29.4152 24.9378 29.0363C25.736 28.5744 26.4423 27.9697 27.0217 27.2524C28.7678 25.1969 29.7245 22.753 30.3686 20.1829C30.8643 18.2001 31.1201 17.8306 33.0966 17.6191C35.6731 17.3412 37.2865 15.9204 38.1485 13.606C39.8472 9.18563 37.8801 5.10625 32.7745 4.64526ZM37.5422 11.7021C37.0971 13.767 36.2793 15.6362 33.9712 16.2835C33.2924 16.4729 32.5756 16.5235 31.8873 16.6845C30.7254 16.9529 29.8981 17.6001 29.5982 18.8126C29.1113 21.0254 28.2983 23.1536 27.1859 25.1274C26.5229 26.2483 25.743 27.265 24.5905 27.9281C24.3316 28.0765 24.0727 28.3796 23.7443 28.0828C23.416 27.786 23.7064 27.5334 23.8106 27.2966C24.6999 25.3284 25.2844 23.2363 25.5441 21.0922C25.724 19.5388 25.724 17.998 25.1683 16.5045C25.0707 16.204 24.9042 15.9304 24.6822 15.7056C24.4602 15.4807 24.1888 15.3108 23.8896 15.2093C23.5903 15.1078 23.2715 15.0776 22.9585 15.121C22.6455 15.1644 22.347 15.2803 22.0867 15.4594C19.6397 16.9876 18.4146 19.4283 17.2779 21.9353C16.9137 22.8356 16.5975 23.7547 16.3307 24.6885C16.2486 24.938 16.2202 25.26 15.9013 25.2758C15.5824 25.2916 15.4593 24.9601 15.3677 24.6822C14.7836 22.9204 14.9762 21.1617 15.3961 19.3999C15.8221 17.7176 16.421 16.0839 17.1832 14.5248C17.4704 13.9877 17.582 13.3741 17.5021 12.7703C17.4222 12.1665 17.155 11.603 16.738 11.159C16.4854 10.8225 16.2134 10.5009 15.9234 10.196C14.752 9.07512 14.4678 7.72374 14.711 6.16082C15.1372 3.41071 17.9947 0.988976 20.2901 1.37102C21.9679 1.63854 23.5046 2.46925 24.6474 3.72646C25.8472 5.01152 26.9049 6.43552 28.3352 7.51536C28.9348 7.98804 29.6278 8.32812 30.3686 8.5131C30.7696 8.60782 31.1958 8.69939 31.3442 8.17841C31.4926 7.65744 31.1011 7.49957 30.6875 7.408C29.9234 7.24382 29.3014 6.81441 28.5373 6.27133C30.3307 5.84192 31.941 5.63985 33.5892 5.95559C36.5066 6.47972 38.1674 8.8099 37.5422 11.7021Z" fill="#5C9DFF"/>
</svg>
