<svg width="31" height="39" viewBox="0 0 31 39" fill="none" xmlns="http://www.w3.org/2000/svg">
<path d="M30.0519 3.91079C29.6535 2.98645 29.0283 2.17751 28.2344 1.55881C27.4404 0.940101 26.5032 0.531606 25.5095 0.371106C23.2728 -0.0310685 21.138 0.404161 19.1161 1.43163C18.0941 1.9495 17.1878 2.65468 16.1301 3.13123C15.9859 3.2137 15.822 3.25524 15.656 3.25136C15.4899 3.24747 15.3281 3.19832 15.188 3.1092C13.7528 2.30209 12.3618 1.38481 10.7806 0.883465C8.41714 0.131454 6.09775 0.136963 3.86651 1.39582C1.0265 3.01003 -0.0119923 6.65715 0.431501 9.38422C0.808884 11.7146 1.86115 13.5657 4.1282 14.5684C4.66179 14.8333 5.17146 15.1439 5.6515 15.4967C5.98049 15.6912 6.24611 15.9767 6.41623 16.3189C6.58635 16.6611 6.65369 17.0453 6.61011 17.4249C6.56053 18.064 6.55502 18.7086 6.47789 19.3532C6.41178 19.9041 6.63215 20.1327 7.15002 20.1355C7.66788 20.1382 8.25186 20.1355 8.80279 20.1355C10.3123 20.1355 10.3123 20.1355 10.3151 21.623C10.3151 22.678 10.3151 22.7 11.3866 22.6945C11.8329 22.6945 11.9816 22.8157 11.9706 23.2758C11.9431 24.6751 11.932 26.0745 11.9706 27.4738C11.9899 28.0523 11.8577 28.4296 11.2792 28.6197C10.9597 28.7244 10.6622 28.9337 10.8385 29.3304C11.0147 29.7271 11.3425 29.6417 11.6648 29.4929C11.7542 29.4624 11.8465 29.4412 11.9403 29.4296C11.899 30.3193 12.3425 31.3578 11.045 31.7132C10.7861 31.7875 10.7393 32.052 10.8357 32.2889C10.8768 32.3982 10.9582 32.4877 11.0632 32.5389C11.1683 32.5902 11.2889 32.5993 11.4004 32.5643C11.5712 32.534 11.7034 32.3467 11.9513 32.4514C11.9513 32.8646 11.9265 33.2998 11.9513 33.7295C11.9686 33.8701 11.9358 34.0123 11.8587 34.1312C11.7817 34.25 11.6653 34.338 11.5299 34.3796C11.1828 34.5366 10.6126 34.6386 10.7944 35.1895C11.0092 35.8286 11.5161 35.3768 11.91 35.341C12.0532 35.7735 11.786 36.3216 12.3921 36.6054C13.3892 37.0654 14.3589 37.586 15.334 38.0929C15.4538 38.1581 15.5886 38.1907 15.725 38.1873C15.8613 38.1839 15.9944 38.1447 16.1108 38.0736C17.0694 37.586 18.039 37.1067 19.0086 36.6522C19.1778 36.5843 19.3197 36.4624 19.4124 36.3055C19.5051 36.1485 19.5432 35.9654 19.521 35.7845C19.4962 34.8452 19.5733 33.9003 19.499 32.9665C19.4136 31.9253 19.499 31.0603 20.722 30.7793C20.7659 30.7651 20.8063 30.7416 20.8405 30.7105C21.0416 30.5369 21.2151 30.3414 21.0388 30.0659C20.975 29.9552 20.8719 29.8725 20.7499 29.8342C20.628 29.796 20.4961 29.8049 20.3804 29.8593C20.105 29.953 19.8929 30.2036 19.5706 30.1816C19.386 29.1266 19.3392 28.1514 20.6724 27.8402C20.7161 27.8252 20.7563 27.8018 20.7909 27.7713C21.003 27.6143 21.1876 27.4407 21.0663 27.1432C20.9451 26.8457 20.6366 26.8513 20.3584 26.9422C20.0802 27.0331 19.8653 27.2727 19.5733 27.2479C19.353 26.1461 19.4218 25.1847 20.7523 24.8734C20.7753 24.8663 20.7967 24.8551 20.8157 24.8404C21.0526 24.6944 21.2013 24.4961 21.0691 24.2151C21.0444 24.1505 21.0058 24.0921 20.9561 24.0441C20.9064 23.996 20.8467 23.9594 20.7814 23.9368C20.716 23.9142 20.6465 23.9062 20.5777 23.9134C20.5089 23.9205 20.4425 23.9426 20.3832 23.9782C20.1077 24.0829 19.8956 24.3253 19.5403 24.3308C19.5403 24.193 19.5155 24.0553 19.5155 23.9369C19.4962 22.8185 19.4962 22.8102 20.5898 22.7056C20.9865 22.667 21.1683 22.4879 21.1628 22.094C21.1628 21.6588 21.1931 21.2208 21.1628 20.7883C21.1159 20.2898 21.2564 20.0914 21.7963 20.1245C22.5731 20.1713 23.3554 20.1245 24.135 20.1245C24.6859 20.1245 24.9283 19.8903 24.8732 19.3201C24.8099 18.6838 24.7933 18.0392 24.752 17.3919C24.7109 17.0113 24.7805 16.6268 24.9525 16.2848C25.1245 15.9428 25.3916 15.6576 25.7217 15.4637C26.3993 15.0339 27.099 14.6373 27.7959 14.2461C28.6795 13.7949 29.4098 13.0924 29.8949 12.227C31.3548 9.49165 31.3273 6.68469 30.0519 3.91079ZM18.5459 30.5232C18.5459 30.8262 18.3503 30.9088 18.1492 31.0107C16.5791 31.8096 15.0034 32.6001 13.4388 33.4072C13.0945 33.5835 12.9595 33.6138 12.9017 33.1318C12.7942 32.1925 13.0807 31.647 14.0035 31.2476C15.5241 30.581 16.973 29.7519 18.5486 28.942C18.5404 29.5232 18.5128 30.0191 18.5459 30.5232ZM18.1712 36.0131C18.0869 36.048 18.005 36.0884 17.9261 36.1343C15.4965 37.3381 15.4965 37.3381 13.2432 35.9856C12.808 35.7239 12.7529 34.8534 13.1936 34.622C14.9318 33.7158 16.6838 32.837 18.5404 31.8922C18.5404 33.1648 18.5404 34.308 18.5404 35.4512C18.5559 35.5721 18.527 35.6946 18.4591 35.7959C18.3913 35.8972 18.289 35.9704 18.1712 36.0021V36.0131ZM17.7828 28.3002C16.3394 29.0026 14.9125 29.7353 13.4911 30.4763C13.078 30.6912 12.9568 30.7077 12.8989 30.1513C12.797 29.1954 13.1027 28.6665 14.0173 28.2864C15.3478 27.7355 16.6149 27.0248 17.8903 26.3582C18.3889 26.0827 18.6313 26.0827 18.5431 26.7356C18.5342 26.8869 18.5342 27.0387 18.5431 27.1901C18.758 27.7493 18.3255 28.0137 17.7828 28.2781V28.3002ZM17.1355 25.664C15.7224 26.2315 14.3809 27.0165 12.9154 27.7603C12.9154 26.1461 12.9154 24.6558 12.9154 23.1656C12.9154 22.7992 13.0477 22.689 13.3975 22.6918C14.9594 22.6918 16.5185 22.7056 18.0803 22.6918C18.4412 22.6918 18.5927 22.8075 18.5431 23.1656C18.5362 23.2112 18.5362 23.2577 18.5431 23.3033C18.7883 24.5043 18.3062 25.1957 17.1355 25.664ZM20.1931 21.32C20.2289 21.6643 20.0637 21.7442 19.7524 21.7442C17.0951 21.7442 14.4369 21.7442 11.7778 21.7442C11.3894 21.7442 11.2269 21.6175 11.2737 21.2291C11.2902 21.1149 11.2902 20.9989 11.2737 20.8848C11.1828 20.3035 11.3728 20.0804 12.0092 20.1079C13.2432 20.163 14.4883 20.1245 15.7196 20.1245C17.0253 20.1245 18.331 20.1438 19.6367 20.1245C20.1022 20.1245 20.251 20.2732 20.1876 20.7112C20.168 20.9138 20.1698 21.1178 20.1931 21.32ZM29.2999 11.3042C28.8784 12.2261 28.1596 12.9798 27.2587 13.4445C26.7767 13.72 26.3194 14.0202 25.8318 14.2709C24.1791 15.0973 23.6281 16.4746 23.7962 18.2568C23.8843 19.1576 23.8485 19.1604 22.9395 19.1604C18.0335 19.1604 13.1248 19.1604 8.21881 19.1604C7.6486 19.1604 7.43374 19.0364 7.53015 18.4469C7.87723 16.3534 7.01779 14.9017 5.13364 14.001C4.8444 13.8632 4.58271 13.6566 4.30725 13.5244C2.30464 12.6429 1.59395 10.924 1.35705 8.91593C1.0568 6.34036 2.05397 4.23308 3.85825 2.49767C5.01519 1.39031 6.53298 1.3242 8.04527 1.3545C9.69804 1.40133 11.1663 1.9798 12.5904 2.76762C14.0145 3.55544 15.4001 4.40387 16.9234 5.00162C18.0251 5.4109 19.2049 5.56627 20.3749 5.45613C20.722 5.43409 21.0581 5.34595 21.0085 4.90521C20.9589 4.46447 20.6173 4.44794 20.2758 4.49477C19.0996 4.6628 18.0115 4.35704 16.8187 3.9163C18.8737 2.6354 20.8129 1.46469 23.1957 1.24432C26.8841 0.902747 29.636 3.1395 29.9527 6.8665C30.0822 8.39531 29.9555 9.88556 29.2999 11.3042Z" fill="#5C9DFF"/>
<path d="M15.6897 15.249C16.022 15.2489 16.3508 15.3167 16.6559 15.4484C16.961 15.5801 17.2359 15.7729 17.4637 16.0148C17.6565 16.2214 17.8273 16.4611 17.5684 16.7338C17.3094 17.0065 17.0863 16.9156 16.8301 16.7338C15.7751 16.0286 15.5878 16.0258 14.5934 16.7338C14.34 16.9101 14.0948 16.9844 13.8579 16.7338C13.5687 16.4583 13.7395 16.1828 13.9626 15.9625C14.4272 15.5145 15.0444 15.2595 15.6897 15.249Z" fill="#5C9DFF"/>
</svg>
