<svg width="38" height="38" viewBox="0 0 38 38" fill="none" xmlns="http://www.w3.org/2000/svg">
<path d="M29.0665 15.1506C28.8477 12.8156 28.0329 10.7541 25.9283 9.45852C23.9676 8.2464 21.8687 8.38748 19.7525 8.9777C18.3763 9.36063 17.1613 10.0891 15.9751 10.8607C15.1833 11.376 14.4981 11.4019 13.6948 10.8607C12.9217 10.3809 12.1187 9.95101 11.2907 9.57369C9.70958 8.78543 7.91643 8.52797 6.17738 8.83951C3.06503 9.35775 0.992053 11.5747 0.617765 14.7792C0.303939 17.4654 0.888404 20.5374 4.09288 21.9972C4.3117 22.0979 4.49884 22.2592 4.71766 22.3542C6.19465 22.9991 6.4912 24.1479 6.31558 25.6508C5.98814 28.1029 6.09928 30.5937 6.6438 33.007C7.03248 34.6078 7.59103 36.1222 8.72541 37.3689C8.94874 37.6409 9.24984 37.8383 9.58841 37.9345C9.92698 38.0307 10.2869 38.0212 10.6199 37.9073C11.2533 37.6683 11.5844 37.1126 11.5786 36.3036C11.5786 35.6558 11.5786 35.008 11.5786 34.3631C11.4837 32.927 11.5698 31.4848 11.8349 30.0703C12.166 28.2132 12.6698 26.4282 13.8762 24.9195C14.4923 24.145 15.3158 24.1623 15.8916 24.9627C16.353 25.5792 16.7252 26.2577 16.9972 26.9781C18.0711 29.9609 18.3187 33.0473 18.074 36.1913C18.0164 36.9111 18.2237 37.4265 18.8139 37.7604C19.1011 37.9416 19.4401 38.0226 19.7781 37.9908C20.1161 37.959 20.4341 37.8163 20.6825 37.5848C21.0009 37.2928 21.2814 36.962 21.5174 36.6001C22.9253 34.5214 23.2823 32.1317 23.4666 29.7075C23.5933 28.0318 23.4148 26.3533 23.3054 24.6805C23.2573 24.2949 23.327 23.9037 23.5053 23.5584C23.6836 23.2131 23.9622 22.9298 24.3044 22.7457C24.9378 22.3571 25.5684 21.9655 26.2219 21.6114C27.1776 21.0994 27.9346 20.2825 28.3726 19.2908C28.9672 17.9967 29.2067 16.5678 29.0665 15.1506ZM27.483 18.7149C27.113 19.637 26.4216 20.3938 25.5367 20.8455C24.6491 21.2697 23.8229 21.812 23.0808 22.4578C22.8099 22.6957 22.5972 22.9924 22.4589 23.3254C22.3207 23.6583 22.2606 24.0184 22.2833 24.3782C22.338 25.216 22.3725 26.0539 22.4157 26.8888C22.5453 29.3476 22.3812 31.7833 21.6096 34.127C21.3089 35.0434 20.8183 35.8861 20.17 36.6001C19.9598 36.8362 19.7467 37.0694 19.3753 36.8881C19.0039 36.7067 19.0874 36.4389 19.1047 36.1481C19.3383 33.2527 19.0605 30.3387 18.2841 27.5395C17.9267 26.3192 17.3405 25.1779 16.5567 24.1767C15.644 23.025 14.0259 23.0538 13.1017 24.2112C11.5498 26.1374 11.0546 28.4464 10.6775 30.7987C10.3896 32.5262 10.499 34.2882 10.5335 36.0387C10.5335 36.3525 10.6861 36.7297 10.2456 36.9025C9.80509 37.0752 9.58628 36.7239 9.3617 36.4648C8.26763 35.1836 7.79833 33.6404 7.50466 32.0137C7.06703 29.5837 7.20235 27.1451 7.38086 24.7064C7.47299 23.4569 6.93171 22.5874 5.94129 21.9338C5.41073 21.5628 4.85572 21.2281 4.28003 20.9319C2.52375 20.0912 1.8414 18.5739 1.61395 16.7802C1.32603 14.4078 2.23584 12.4615 3.86543 10.8146C4.49278 10.2118 5.31225 9.84892 6.18026 9.78962C8.0965 9.56007 10.0359 9.95057 11.714 10.9038C13.1535 11.7158 14.5557 12.5881 16.1277 13.1438C17.1159 13.5172 18.1787 13.6504 19.2285 13.5325C19.5999 13.4864 19.9109 13.3626 19.859 12.9221C19.8072 12.4816 19.4732 12.4931 19.1479 12.5219C18.1108 12.6251 17.0649 12.4523 16.1162 12.021C18.2093 10.5814 20.3341 9.51034 22.8879 9.61975C24.8803 9.70613 26.4004 10.5871 27.2728 12.3751C27.7687 13.3524 28.0445 14.4264 28.0808 15.5217C28.1172 16.617 27.9131 17.707 27.483 18.7149Z" fill="#5C9DFF"/>
<path d="M36.713 2.01565C36.3331 1.94672 35.9473 1.91585 35.5613 1.92352C28.6073 1.92352 21.6541 1.92352 14.702 1.92352C14.4233 1.9427 14.1439 1.89764 13.8853 1.79182C13.6267 1.68599 13.3959 1.52223 13.2106 1.31314C12.9029 0.956867 12.5266 0.666189 12.1042 0.458437C11.6818 0.250685 11.2218 0.130112 10.7518 0.103904C7.83237 -0.0803607 4.90717 0.0348048 1.98197 0.0434422C1.0117 0.0463214 0.571188 0.604874 0.56543 1.57226C0.56543 2.72392 0.56543 3.87557 0.56543 5.02723C0.56543 5.4044 0.56543 5.80748 1.0664 5.81035C1.56737 5.81323 1.59328 5.43031 1.59328 5.04162C1.59328 3.913 1.59328 2.78726 1.59328 1.66152C1.59328 1.42543 1.55297 1.126 1.91287 1.14327C2.27276 1.16055 2.14608 1.43982 2.14608 1.64136C2.14608 2.79302 2.14608 3.94467 2.14608 5.09633C2.14608 5.45622 2.10577 5.88809 2.62977 5.88809C3.15377 5.88809 3.17969 5.47062 3.17681 5.05602C3.17681 3.90437 3.17681 2.75271 3.17681 1.60106C3.18257 1.43982 3.09619 1.15191 3.37259 1.15191C3.72096 1.12888 3.61731 1.43982 3.62019 1.62697C3.62019 2.77862 3.62019 3.93028 3.62019 5.08193C3.62019 5.48213 3.62019 5.914 4.17587 5.89385C4.73154 5.87369 4.64229 5.44182 4.64229 5.08481C4.64229 3.95619 4.64229 2.83045 4.64229 1.7047C4.64229 1.50604 4.54728 1.17494 4.83231 1.16918C5.20084 1.16918 5.05688 1.52044 5.05976 1.72486C5.05976 2.82757 5.05976 3.93028 5.05976 5.03299C5.05976 5.42455 5.03673 5.87945 5.56937 5.89673C6.16823 5.91688 6.1308 5.41591 6.1452 5.01283C6.1452 3.88709 6.1452 2.75847 6.1452 1.63273C6.1452 1.4427 6.05594 1.13464 6.40144 1.15767C6.6692 1.17782 6.59434 1.44558 6.59434 1.62121C6.59434 2.65194 6.57131 3.68267 6.6145 4.7134C6.63177 5.14815 6.30931 5.89097 7.1241 5.87945C7.83813 5.86506 7.60204 5.17406 7.61356 4.7278C7.63947 3.69707 7.61356 2.66634 7.62795 1.63561C7.62795 1.45134 7.50991 1.12888 7.85253 1.14039C8.19514 1.15191 8.06558 1.46574 8.06846 1.65576C8.06846 2.80741 8.06846 3.95907 8.06846 5.11072C8.06846 5.49077 8.10301 5.87945 8.58959 5.89097C9.11935 5.90537 9.09056 5.48213 9.09056 5.11936C9.09056 3.96771 9.09056 2.81605 9.09056 1.6644C9.09056 1.44846 8.99554 1.1116 9.37847 1.13464C9.68941 1.15479 9.59728 1.4571 9.60016 1.65288C9.60016 2.80453 9.60016 3.95619 9.60016 5.10784C9.60016 5.47637 9.57425 5.89673 10.0954 5.89097C10.6165 5.88521 10.628 5.50517 10.6251 5.11936C10.6251 3.96771 10.6251 2.81605 10.6251 1.6644C10.6251 1.19798 10.7288 1.07417 11.201 1.23828C11.8907 1.47199 12.4931 1.90976 12.9284 2.49359C14.273 4.27002 16.0667 4.81417 18.2289 4.73644C20.9814 4.63567 23.7425 4.71052 26.4978 4.71052C29.5938 4.71052 32.687 4.71052 35.7773 4.71052C36.1113 4.71514 36.4447 4.68035 36.7706 4.60687C37.0696 4.54933 37.3358 4.38083 37.5158 4.13519C37.6957 3.88954 37.7761 3.58493 37.7408 3.28247C37.7559 2.98172 37.6593 2.686 37.4696 2.45216C37.2799 2.21832 37.0104 2.06286 36.713 2.01565ZM36.2898 3.63661C36.1458 3.63661 36.0019 3.63661 35.8579 3.63661H17.2241C16.4842 3.63661 15.7385 3.651 14.987 2.99456H35.7024C35.8924 2.99456 36.0853 2.99456 36.2782 2.99456C36.4711 2.99456 36.7245 3.04062 36.7072 3.34293C36.69 3.64524 36.4798 3.61357 36.2898 3.62509V3.63661Z" fill="#5C9DFF"/>
</svg>
