<svg width="48" height="49" viewBox="0 0 48 49" fill="none" xmlns="http://www.w3.org/2000/svg">
<path d="M39.1695 9.54352C37.2687 5.73104 34.0131 3.63911 29.8162 3.38895C25.4936 3.1295 22.0367 4.90353 19.6575 8.59407C18.5669 10.2641 17.9614 12.2041 17.9083 14.1979C17.8955 14.631 17.7982 14.7487 17.3573 14.632C16.5826 14.4128 15.7864 14.2739 15.0073 14.0702C13.0145 13.5266 10.9014 13.623 8.96639 14.3457C6.73559 15.1697 5.07344 16.6088 4.32528 18.9258C3.60273 21.0924 3.74023 23.4538 4.70936 25.5218C5.68562 27.6689 7.20252 29.2042 9.64988 29.6053C10.0334 29.6686 10.3993 29.8369 10.7816 29.9063C12.4639 30.2203 13.3057 31.2348 13.5025 32.9206C13.8239 35.5073 14.5577 38.0258 15.676 40.3803C16.6051 42.3939 17.8224 44.19 19.7188 45.4317C20.0397 45.6635 20.4283 45.7826 20.8239 45.7703C21.2196 45.7581 21.6001 45.6153 21.906 45.3641C22.4624 44.9286 22.6442 44.2498 22.3634 43.4372C21.5893 41.2675 21.0811 39.0119 20.85 36.7199C20.6527 34.5302 20.6008 32.3589 21.4499 30.2583C21.9886 28.934 22.9349 28.6604 24.0312 29.5667C25.0651 30.4144 25.9371 31.4421 26.6054 32.6001C27.8339 34.6591 28.7248 36.9015 29.2443 39.2421L29.7455 41.1126C29.7636 41.1803 29.7815 41.2471 29.7992 41.313C29.9725 42.2805 30.4034 42.7664 31.1898 42.8794C32.0569 43.005 32.7699 42.5877 33.1714 41.724C33.6743 40.6575 33.9788 39.5084 34.07 38.3329C34.3502 35.0071 33.634 31.8424 32.5349 28.7345C32.2742 27.9967 32.0548 27.2421 31.8662 26.4849C31.7159 25.9238 31.8024 25.4452 32.5227 25.3009C32.9258 25.2018 33.3168 25.0586 33.6885 24.874C35.0826 24.2594 36.3369 23.3673 37.3748 22.2521C38.4127 21.1368 39.2124 19.8218 39.7253 18.3872C40.2382 16.9527 40.4534 15.4286 40.3579 13.9082C40.2623 12.3877 39.858 10.9026 39.1695 9.54352ZM33.1055 37.0848C33.0318 38.4879 32.8727 39.8823 32.2955 41.1912C32.1178 41.5968 31.9214 41.9329 31.4023 41.9088C30.8832 41.8847 30.8316 41.4889 30.7356 41.0879C30.5448 40.2798 30.306 39.4846 30.0912 38.683C29.5138 36.0705 28.46 33.5868 26.9824 31.3564C26.2645 30.2824 25.3737 29.3346 24.3463 28.5514C23.0355 27.5394 21.2838 28.046 20.6352 29.5802C19.6668 31.8445 19.5901 34.2307 19.8044 36.6335C20.0292 39.0193 20.5617 41.3661 21.3887 43.6153C21.5169 43.9762 21.6328 44.3232 21.2458 44.6102C20.8587 44.8972 20.4606 44.769 20.1131 44.4984C18.3432 43.1196 17.1451 41.3098 16.2362 39.2965C15.3825 37.3305 14.8071 35.2551 14.5267 33.1301C14.4083 32.4005 14.2283 31.6823 13.9886 30.9831C13.8683 30.6573 13.682 30.3599 13.4414 30.1095C13.2008 29.859 12.9111 29.6609 12.5905 29.5276C11.6722 29.0959 10.7014 28.786 9.70286 28.6059C7.42652 28.159 6.22412 26.611 5.42123 24.5979C4.4017 22.0328 4.91595 19.6124 6.21263 17.3117C6.7573 16.3409 7.68628 15.7569 8.73686 15.3809C10.8212 14.5933 13.103 14.4938 15.248 15.0969C15.3815 15.1356 15.5168 15.1595 15.6516 15.1921C16.3626 15.3768 17.1811 15.4066 17.76 15.7928C18.3389 16.179 18.1383 17.0977 18.3268 17.7689C19.7326 22.7164 24.881 26.2716 29.9675 25.7478C30.4719 25.6957 30.8396 25.6144 30.8522 26.3986C30.8639 27.2547 31.2338 28.1007 31.5288 28.9238C32.496 31.5716 33.2576 34.243 33.1055 37.0848ZM39.1578 12.4393C40.3611 18.3089 36.6311 23.3179 31.645 24.505C25.341 26.0109 20.1497 21.8572 19.126 16.6899C17.9413 10.7723 21.6377 5.84099 26.7535 4.62488C28.0823 4.29492 29.4642 4.23686 30.816 4.45418C32.1679 4.6715 33.4619 5.15973 34.6204 5.88955C35.7789 6.61937 36.778 7.57574 37.5577 8.70126C38.3374 9.82677 38.8816 11.0982 39.1578 12.4393Z" fill="#5C9DFF"/>
<path d="M34.8906 11.692C34.7451 11.0637 34.4021 10.9379 33.8287 11.1173C32.9453 11.3798 32.049 11.5942 31.1601 11.8467C30.786 11.9469 30.6279 11.8805 30.5328 11.4935C30.3069 10.5545 30.0316 9.62302 29.7817 8.69043C29.6564 8.2228 29.3994 8.02246 28.9264 8.14919C27.9697 8.40552 27.0131 8.66185 26.0565 8.91818C25.6263 9.03345 25.476 9.31715 25.615 9.76106C25.754 10.205 25.8656 10.6963 25.9909 11.1639C26.1162 11.6316 26.2148 12.1064 26.3661 12.5642C26.5072 12.9731 26.3891 13.1308 25.9749 13.2418C25.0565 13.4592 24.1525 13.7301 23.235 13.9616C22.7006 14.1048 22.5321 14.3848 22.6916 14.9263C22.9485 15.7854 23.181 16.653 23.389 17.529C23.5161 18.0677 23.7908 18.2805 24.3309 18.1158C25.1753 17.8895 26.0303 17.6919 26.8625 17.4203C27.4131 17.2412 27.6878 17.2936 27.8079 17.9345C27.9713 18.79 28.2605 19.6233 28.4627 20.4741C28.5941 21.0289 28.8887 21.1877 29.4164 21.0406C30.2848 20.8079 31.1506 20.5759 32.019 20.3432C32.6149 20.1835 32.7888 19.8706 32.593 19.2786C32.3225 18.3974 32.1161 17.499 31.861 16.6108C31.7593 16.2313 31.8386 16.0783 32.2209 15.9873C33.1172 15.773 34.0006 15.5105 34.8966 15.2847C35.541 15.135 35.7099 14.8033 35.5142 14.1798C35.2976 13.35 35.079 12.5236 34.8906 11.692ZM32.9002 14.8029C32.3898 14.9397 31.8818 15.0959 31.3664 15.2139C30.7981 15.3375 30.6134 15.6104 30.7717 16.201C31.0452 17.1043 31.2607 18.026 31.5049 18.9373C31.6037 19.306 31.527 19.4583 31.1478 19.5714C29.3946 20.1041 29.3981 20.1175 28.9277 18.3619C28.7845 17.8275 28.6253 17.2973 28.4981 16.7586C28.371 16.2199 28.1227 16.063 27.615 16.199C26.6824 16.4489 25.7409 16.6869 24.8146 16.9494C24.4405 17.0496 24.2955 16.9682 24.1831 16.5916C23.6496 14.8357 23.637 14.842 25.3873 14.373C25.8763 14.242 26.3615 14.0862 26.8543 13.9799C27.4809 13.8493 27.7047 13.5516 27.4992 12.9021C27.2214 12.0257 27.0223 11.1224 26.7644 10.2349C26.6635 9.85817 26.7456 9.71587 27.1222 9.60351C28.8781 9.07001 28.8753 9.05932 29.345 10.8123L29.4166 11.0795C29.5354 11.5231 29.6737 11.9643 29.7746 12.4156C29.8867 12.9411 30.1758 13.0899 30.676 12.9473C31.6086 12.6974 32.5465 12.4461 33.4764 12.1969C33.8532 12.096 33.9962 12.1808 34.1105 12.554C34.6401 14.3167 34.6535 14.3131 32.8952 14.7842L32.9002 14.8029Z" fill="#5C9DFF"/>
</svg>
