<svg width="42" height="38" viewBox="0 0 42 38" fill="none" xmlns="http://www.w3.org/2000/svg">
<path d="M41.3821 5.101C40.1501 3.87473 38.9266 2.63987 37.6918 1.41645C37.5217 1.24965 37.3293 1.10727 37.1201 0.993399C36.8167 0.821483 36.461 0.766403 36.1198 0.83853C35.7787 0.910657 35.4756 1.10501 35.2678 1.38501C35.0487 1.65586 34.9347 1.99669 34.9468 2.34486C34.9589 2.69304 35.0962 3.02515 35.3336 3.28017C35.5322 3.51783 35.7492 3.73956 35.9824 3.94333C36.3455 4.22917 36.2683 4.45785 35.9567 4.73798C35.548 5.101 35.1821 5.50976 34.7905 5.88136C34.0187 6.63028 34.2359 6.636 33.4613 5.84706C32.4494 4.80944 31.7977 4.80087 30.7686 5.83277C26.8096 9.78316 22.8678 13.7507 18.8889 17.6782C18.1228 18.4414 17.5597 19.1646 18.2943 20.3023C16.2162 19.8935 14.5583 20.2594 13.5807 22.2775C13.2753 21.7896 12.9402 21.3208 12.5774 20.874C12.332 20.5802 12.0186 20.3506 11.6645 20.2052C11.3103 20.0597 10.9261 20.0028 10.545 20.0393C9.78752 20.0708 8.95857 20.1193 8.35829 20.5853C7.26922 21.4428 6.35737 21.157 5.28545 20.5367C3.94198 19.762 2.08684 20.0765 1.06351 21.0283C0.0401816 21.9802 -0.285683 23.8639 0.266 25.2731C0.609015 26.1478 1.32935 26.5823 2.0897 26.9882C2.47845 27.1969 2.58135 27.337 2.13829 27.6485C1.195 28.3088 0.786239 29.2493 0.800531 30.4127C0.826258 32.5079 0.800531 34.6032 0.800531 36.7013C0.800531 37.8446 0.823399 37.8589 1.96678 37.8589H38.6151C39.5955 37.8589 39.6899 37.7646 39.6899 36.8156C39.6899 34.909 39.647 33.0053 39.7041 31.0987C39.7527 29.5437 39.4183 28.2145 37.9662 27.3827C38.0319 27.2826 38.0577 27.2083 38.112 27.1712C38.2596 27.0539 38.4197 26.9533 38.5893 26.871C39.8213 26.3422 40.3244 25.3332 40.5017 24.0726C40.7418 22.3261 39.2639 20.025 37.5289 20.0307C36.3806 20.025 35.2568 20.3624 34.3017 20.9998C34.1206 21.1503 33.8941 21.2355 33.6587 21.2417C33.4233 21.248 33.1927 21.1748 33.0039 21.034C31.6947 20.2022 30.2941 19.8278 28.5819 20.4767C28.9049 20.1336 29.0793 19.9421 29.2622 19.7563C31.892 17.1037 34.5246 14.4501 37.1601 11.7955C37.8576 11.0923 37.8976 10.3977 37.3373 9.70598C37.0201 9.31437 36.3054 9.05425 36.4026 8.57689C36.4912 8.14812 37.0744 7.81654 37.4402 7.43351L37.4917 7.38205C38.4293 6.44448 38.4293 6.44448 39.4297 7.34775C39.5183 7.43118 39.6139 7.50674 39.7156 7.57357C39.9163 7.71445 40.1493 7.80231 40.3931 7.829C40.6369 7.85569 40.8834 7.82034 41.1099 7.72623C41.3363 7.63211 41.5353 7.4823 41.6883 7.2907C41.8413 7.09909 41.9435 6.87192 41.9852 6.63028C42.0232 6.34511 41.9877 6.05496 41.8822 5.78733C41.7766 5.5197 41.6045 5.28346 41.3821 5.101ZM18.7545 21.3942C18.9346 21.2427 19.0747 21.0083 19.3262 21.2742C20.0608 22.0174 20.804 22.752 21.5386 23.4952C21.6043 23.5732 21.6636 23.6564 21.7159 23.7439C21.575 23.9082 21.4251 24.0647 21.2671 24.2127C21.0813 24.3784 20.9812 24.1926 20.8583 24.084C20.1494 23.3837 19.4491 22.6719 18.7374 21.9745C18.5315 21.7515 18.5173 21.5829 18.7545 21.3942ZM23.4395 28.8948C23.5664 29.9353 23.469 30.9909 23.1537 31.9905C23.0527 32.3687 22.8453 32.7099 22.5563 32.9738C22.5162 32.1477 22.4534 31.4131 22.4448 30.6871C22.4174 29.538 22.035 28.4257 21.35 27.5027C21.2393 27.3169 21.0827 27.1626 20.8953 27.0546C20.7079 26.9465 20.4959 26.8885 20.2796 26.8859C20.0633 26.8833 19.8499 26.9363 19.66 27.0398C19.47 27.1433 19.3098 27.2939 19.1947 27.477C18.4475 28.4361 18.0313 29.6115 18.0084 30.8271C18.0084 31.516 18.0084 32.2049 18.0084 33.0053C17.5355 32.6026 17.2297 32.0379 17.1509 31.4217C16.9615 30.4398 16.9115 29.4362 17.0023 28.4403C17.0497 27.9267 17.0169 27.4088 16.9051 26.9053C16.7765 26.3136 17.4768 26.0478 17.8341 25.6933C18.1199 25.4075 18.2829 25.8163 18.4344 25.9792C18.8631 26.4194 19.2433 26.4022 19.6435 25.9592C19.835 25.7476 20.0494 25.559 20.2466 25.3532C20.381 25.2103 20.501 25.1502 20.6554 25.3246C21.0699 25.7905 21.4129 25.5504 21.7244 25.1988C22.1275 24.7443 22.4905 24.3413 23.1937 24.7729C23.6396 25.0388 24.1198 24.7929 24.4943 24.4556C24.8687 24.1183 25.2518 23.7353 25.6377 23.378C25.7349 23.2894 25.8149 23.1293 25.9864 23.2065C26.1579 23.2837 26.0922 23.4094 26.0893 23.5209C26.0893 24.4613 25.9321 25.3818 24.9745 25.8077C23.5882 26.428 23.268 27.5027 23.4395 28.8948ZM17.8198 23.681C17.9484 23.458 18.1056 23.2636 18.4115 22.8692C18.7974 23.3408 19.0575 23.6667 19.3319 23.9811C19.5206 24.2012 19.8293 24.3413 19.4405 24.6986C19.1004 25.013 18.8688 25.0416 18.583 24.6757C18.4229 24.4756 18.2057 24.3184 18.0428 24.104C17.9513 23.9897 17.6769 23.9182 17.8198 23.681ZM17.0394 21.1798C17.2567 21.1798 17.3424 21.2284 17.271 21.4657C17.2395 21.5714 17.2167 21.7515 17.271 21.8087C17.917 22.4604 17.2881 22.7777 16.9137 23.115C16.4392 23.5409 16.2934 23.9468 16.8651 24.3813C17.2567 24.6672 17.2195 24.9273 16.8508 25.1902C16.8308 25.1902 16.8193 25.2274 16.7993 25.2417C16.4477 25.4761 16.2791 26.0992 15.7703 25.9563C15.4466 25.8681 15.1539 25.6913 14.9252 25.4459C14.6964 25.2005 14.5407 24.8962 14.4754 24.5671C14.4211 24.3127 14.3925 24.0554 14.3811 23.9783C14.3811 22.1117 15.3758 21.137 17.0394 21.177V21.1798ZM2.39269 25.9678C1.17213 25.3189 0.771947 24.3213 1.09209 23.0035C1.47513 21.4228 2.49274 21.0855 4.1678 21.2656C5.07964 21.3628 5.80855 21.9916 6.61463 22.389C7.2348 22.7448 7.93771 22.9311 8.65272 22.9292C8.99287 22.9092 9.43307 22.9292 9.41592 22.3947C9.39877 21.8601 9.02432 21.8773 8.647 21.8859C8.55267 21.8859 8.45834 21.8859 8.15249 21.8516C9.18439 21.1827 10.1534 20.8797 11.1367 21.177C12.0686 21.4628 12.5659 22.2603 12.6803 23.2208C12.8318 24.4213 12.5431 25.3903 11.334 26.0021C10.1248 26.6138 9.96475 27.1683 10.0677 28.4946C10.1906 30.0525 10.2306 31.6389 9.1558 33.1368C9.05004 31.9419 9.21297 30.8929 9.00431 29.8581C8.84288 29.065 8.52724 28.3114 8.07531 27.6399C7.40071 26.6309 6.3831 26.6252 5.7085 27.6228C5.01267 28.5687 4.64436 29.7158 4.65945 30.89C4.68518 31.5675 4.65945 32.2449 4.65945 33.0882C4.21682 32.6755 3.91656 32.1331 3.80191 31.5389C3.57594 30.4677 3.53054 29.3664 3.66756 28.2802C3.79334 27.2026 3.3417 26.4823 2.39269 25.9678ZM38.6637 30.204C38.6894 32.2506 38.6637 34.3002 38.6808 36.3468C38.6808 36.7213 38.5522 36.8728 38.1834 36.8356C38.0406 36.8285 37.8975 36.8285 37.7547 36.8356H2.75857C1.69809 36.8356 1.82958 36.9585 1.82386 35.8666C1.82386 34.0115 1.82386 32.1506 1.82386 30.2983C1.80977 29.9793 1.87222 29.6616 2.00599 29.3717C2.13975 29.0818 2.34096 28.8281 2.59278 28.6318C2.59278 29.9953 2.54419 31.2559 2.98439 32.4679C3.18243 33.0062 3.49669 33.4941 3.90482 33.8971C4.05664 34.0516 4.25357 34.1539 4.46726 34.1894C4.68094 34.2248 4.90036 34.1916 5.09394 34.0943C5.28396 34.0176 5.44316 33.88 5.54661 33.7031C5.65006 33.5262 5.69192 33.32 5.66563 33.1168C5.62847 31.9048 5.59131 30.6899 5.95147 29.5094C6.13441 28.9205 6.28877 28.0401 6.82902 28.0001C7.44359 27.9544 7.58365 28.8577 7.80661 29.4036C8.26111 30.5184 8.09246 31.6904 8.09246 32.8624C8.09246 33.434 8.10961 33.9771 8.7842 34.1801C9.4588 34.3831 9.78467 33.96 10.1363 33.5141C10.8537 32.6051 11.051 31.5417 11.0853 30.4327C11.111 29.6494 11.1253 28.8605 11.0853 28.0802C11.044 27.8464 11.0838 27.6056 11.1982 27.3976C11.3126 27.1897 11.4946 27.027 11.7141 26.9368C12.4916 26.5537 13.2034 26.0792 13.5121 25.0559C13.9266 25.8077 14.3096 26.3851 14.9699 26.7281C15.3101 26.9053 14.9699 27.0825 14.8441 27.2026C13.8751 28.1859 12.8947 29.1578 11.9199 30.1354C11.7999 30.2526 11.6827 30.3698 11.5683 30.4927C11.3425 30.7271 11.2653 31.0101 11.5026 31.253C11.7399 31.496 12.0486 31.4588 12.3115 31.193C13.352 30.143 14.4001 29.1006 15.4558 28.0659C15.6159 27.9058 15.7417 27.6771 16.0475 27.6285C15.9693 28.8332 15.9855 30.0423 16.0961 31.2445C16.2009 32.194 16.5882 33.0902 17.2081 33.8171C17.352 33.9955 17.5515 34.1205 17.7748 34.1724C17.9981 34.2242 18.2323 34.1997 18.4401 34.1029C18.8746 33.9543 19.0118 33.5827 19.0118 33.1339C19.0118 32.1363 18.9289 31.133 19.1032 30.1411C19.2403 29.4714 19.4979 28.8321 19.8636 28.2545C20.1494 27.7914 20.3495 27.8686 20.6325 28.2745C21.4901 29.5094 21.4615 30.9157 21.47 32.3221C21.47 32.608 21.4272 32.8938 21.4415 33.1796C21.4365 33.4081 21.5069 33.6317 21.6418 33.8162C21.7766 34.0006 21.9684 34.1355 22.1875 34.2001C22.3816 34.2634 22.591 34.2616 22.7839 34.1951C22.9768 34.1285 23.1428 34.0008 23.2566 33.8314C23.8769 33.1139 24.3428 32.2992 24.3828 31.3417C24.4314 30.1983 24.6429 29.0549 24.4371 27.9115C24.3399 27.3798 24.6972 27.1197 25.0946 26.9282C25.5257 26.7514 25.9136 26.4837 26.2317 26.1433C26.5499 25.8029 26.7909 25.3979 26.9383 24.9559C27.267 26.1221 28.0817 26.5795 28.9049 27.0082C29.0861 27.0971 29.2343 27.2415 29.3279 27.4204C29.4214 27.5993 29.4555 27.8034 29.4251 28.003C29.3937 28.9777 29.408 29.9553 29.4251 30.93C29.4559 31.9368 29.8198 32.905 30.4599 33.6827C30.5956 33.8961 30.8011 34.0558 31.0415 34.1346C31.2818 34.2133 31.542 34.2061 31.7776 34.1144C32.275 33.9457 32.3894 33.5227 32.4094 33.0281C32.4522 31.9619 32.2807 30.8843 32.5466 29.8295C32.7056 29.2303 32.9698 28.6641 33.3269 28.1573C33.5299 27.8715 33.73 27.8572 33.9272 28.1573C34.469 28.8882 34.785 29.7616 34.8362 30.6699C34.8533 31.4789 34.8591 32.2907 34.8362 33.0996C34.8362 33.6055 34.9963 33.9829 35.4879 34.1658C35.7016 34.2476 35.9365 34.2555 36.1552 34.1881C36.3738 34.1208 36.5636 33.9821 36.6942 33.7942C37.3713 33.0461 37.7682 32.0865 37.8176 31.0787C37.8404 30.324 37.8176 29.5694 37.8176 28.6604C38.0835 28.8202 38.3021 29.048 38.4508 29.3203C38.5995 29.5926 38.673 29.8996 38.6637 30.2097V30.204ZM31.5175 21.4314C32.1264 21.7001 32.7009 22.0459 33.2926 22.3489C33.9473 22.743 34.7012 22.9414 35.4651 22.9206C35.8338 22.8892 36.2397 22.8234 36.1968 22.3489C36.1597 21.9345 35.7938 21.8773 35.4365 21.8944C35.3193 21.8944 35.2021 21.8944 34.9362 21.8944C36.3369 20.8768 38.1606 20.7282 39.0095 22.0574C39.8585 23.3866 39.4898 25.2388 38.152 25.9249C37.1401 26.4423 36.6627 27.1454 36.8114 28.3231C36.9409 29.3399 36.9042 30.371 36.7028 31.376C36.5983 31.9959 36.2977 32.566 35.8452 33.0024C35.8452 32.2792 35.8309 31.556 35.8452 30.8328C35.8493 29.6336 35.4563 28.4667 34.7276 27.5142C34.1359 26.6566 33.1297 26.6566 32.5294 27.5142C31.7907 28.4597 31.3884 29.6244 31.386 30.8243C31.4032 31.5275 31.386 32.2278 31.386 33.111C30.6114 32.2764 30.4656 31.4217 30.4142 30.5584C30.3608 29.7749 30.3675 28.9884 30.4342 28.2059C30.5285 27.134 30.1083 26.3479 29.1393 25.9935C27.8072 25.5047 27.3956 23.8754 28.0216 22.4861C28.5562 21.3056 30.1312 20.8225 31.529 21.4371L31.5175 21.4314ZM36.4055 10.2234C36.7456 10.5549 36.7085 10.7951 36.3883 11.1123C32.2455 15.2533 28.1074 19.3971 23.9741 23.5438C23.6425 23.8754 23.4024 23.8696 23.0908 23.5438C21.8216 22.2518 20.541 20.9721 19.249 19.7049C18.8889 19.3504 18.9117 19.0846 19.2719 18.7616C19.7836 18.2985 20.2352 17.4924 20.7754 17.4324C21.2128 17.3867 21.7473 18.227 22.2361 18.6787C22.522 18.9359 22.8078 19.3333 23.1765 18.9131C23.4881 18.5586 23.2394 18.207 22.9364 17.9269C22.6599 17.6307 22.3679 17.3492 22.0617 17.0837C21.5129 16.6778 21.5987 16.3748 22.0617 15.9403C22.399 15.6287 22.5963 15.6373 22.8478 15.9746C22.8907 16.0317 22.9536 16.0718 22.9993 16.1232C23.2366 16.4091 23.5138 16.4977 23.7997 16.2318C23.8626 16.1831 23.9124 16.1194 23.9446 16.0466C23.9769 15.9738 23.9905 15.8941 23.9842 15.8147C23.978 15.7353 23.9521 15.6587 23.9089 15.5918C23.8657 15.5249 23.8066 15.4698 23.7368 15.4315C23.1137 14.9827 23.288 14.6425 23.7797 14.2338C24.0341 14.0223 24.1799 13.9794 24.42 14.2338C24.8459 14.6826 25.3032 15.0913 25.7406 15.5372C25.8154 15.6318 25.9211 15.697 26.0392 15.7216C26.1573 15.7462 26.2802 15.7285 26.3866 15.6716C26.474 15.6304 26.5467 15.5633 26.5947 15.4795C26.6428 15.3956 26.6639 15.2991 26.6553 15.2028C26.6163 15.0153 26.5157 14.8462 26.3694 14.7226C25.995 14.3538 25.6262 13.9822 25.2489 13.6221C25.0002 13.3848 24.7258 13.1819 25.166 12.8589C25.489 12.6187 25.7091 12.0528 26.1979 12.6731C26.4438 12.9875 26.8125 13.2448 27.1555 12.8674C27.4985 12.4901 27.207 12.1385 26.8697 11.9013C26.4123 11.5697 26.6439 11.3439 26.9354 11.0838C27.227 10.8236 27.4099 10.452 27.8187 10.958C28.1695 11.347 28.5397 11.7181 28.9278 12.0699C29.1936 12.3558 29.4709 12.613 29.8225 12.2357C30.174 11.8584 29.871 11.5897 29.6109 11.3296C29.2565 10.9751 28.9278 10.595 28.5447 10.2777C28.1617 9.96038 28.2589 9.70598 28.5819 9.43443C28.8677 9.19432 29.0878 8.78556 29.4652 9.31151C29.526 9.38473 29.5929 9.45262 29.6652 9.51446C29.9282 9.76601 30.2198 9.81746 30.4828 9.54591C30.5356 9.49497 30.5757 9.43226 30.5998 9.36288C30.6238 9.29351 30.6311 9.21944 30.621 9.14671C30.611 9.07398 30.5839 9.00465 30.542 8.94437C30.5001 8.88409 30.4445 8.83457 30.3799 8.79985C29.6967 8.33106 29.9711 7.97947 30.4399 7.57071C30.8493 7.21125 31.2386 6.82954 31.6061 6.42733C31.932 6.07574 32.2121 6.0443 32.5637 6.4016C33.8424 7.686 35.1268 8.96183 36.4169 10.2291L36.4055 10.2234ZM37.4145 6.00428C36.8771 6.54167 36.3283 7.06762 35.8081 7.61931C35.5622 7.87943 35.4022 7.83369 35.1735 7.5993C34.9448 7.3649 34.9134 7.19911 35.1735 6.959C35.7252 6.4359 36.2511 5.88708 36.7914 5.35255C36.9229 5.22392 37.0572 5.03526 37.2602 5.23821C37.4059 5.38399 37.6118 5.4869 37.6489 5.74702C37.5803 5.83563 37.506 5.9271 37.426 6.00999L37.4145 6.00428ZM40.8933 6.54453C40.8583 6.62087 40.8046 6.68713 40.7371 6.73711C40.6696 6.78709 40.5906 6.81917 40.5074 6.83037C40.2873 6.83037 40.1729 6.66744 40.0414 6.54453C38.778 5.28395 37.5174 4.01765 36.2511 2.75993C36.0167 2.52839 35.8166 2.26256 36.1311 1.97099C36.4455 1.67943 36.7028 1.89953 36.9257 2.13392C38.1682 3.38021 39.4135 4.6265 40.6617 5.87279C40.8447 6.05573 41.0533 6.24439 40.9047 6.55024L40.8933 6.54453Z" fill="#5C9DFF"/>
</svg>
