<svg width="53" height="25" viewBox="0 0 53 25" fill="none" xmlns="http://www.w3.org/2000/svg">
<path d="M51.9081 13.9622C51.9009 13.3922 51.7637 12.8314 51.5068 12.3226C51.2499 11.8138 50.8801 11.3703 50.4258 11.0262C49.5844 10.3423 49.545 10.2707 50.5045 9.82676C52.6528 8.83855 53.1469 7.05907 52.9643 4.94661C52.7996 2.94873 50.9915 1.02961 49.1762 0.94368C48.0662 0.893554 46.8847 1.04035 46.0003 1.67767C44.6398 2.66587 43.5549 2.45105 42.1728 1.67767C40.3611 0.653664 38.4456 0.832686 36.7091 2.10732C36.0932 2.55846 35.8426 3.28171 35.3772 3.89754C35.0244 3.21435 34.5891 2.57703 34.081 1.99991C33.7924 1.63724 33.4201 1.35003 32.996 1.16294C32.5719 0.97585 32.1088 0.894467 31.6463 0.925778C30.4469 0.968743 29.2081 1.12628 28.2449 1.86027C27.1708 2.69094 26.2363 2.63365 25.2373 1.86027C25.2127 1.8431 25.1863 1.82869 25.1586 1.81731C22.9065 0.496125 19.3511 0.789721 18.012 4.00496C17.6645 3.21781 17.1795 2.49885 16.5798 1.88176C16.2842 1.54192 15.9115 1.27781 15.4929 1.11149C15.0743 0.945175 14.622 0.881496 14.1738 0.925778C12.8519 0.936578 11.5622 1.33494 10.4644 2.07152C9.71613 2.61575 9.10745 2.63365 8.31617 2.12523C7.07863 1.26706 5.55568 0.924206 4.06977 1.16925C2.13991 1.49865 0.872436 2.74464 0.435623 4.93587C0.252448 5.81522 0.344581 6.72964 0.699489 7.55477C1.0544 8.3799 1.65485 9.07568 2.41919 9.54748C2.85242 9.79811 3.35726 9.94491 3.69741 10.4462C1.76039 11.5669 1.36654 13.3535 1.42382 15.4158C1.50259 17.7682 1.42382 20.1277 1.42382 22.4836C1.42382 24.059 1.44889 24.0877 3.01712 24.0877H50.9915C51.6467 24.0877 51.9439 23.7833 51.9403 23.0887C51.9081 20.0453 51.9474 17.002 51.9081 13.9622ZM49.7956 8.72756C49.2698 8.94762 48.8332 9.33803 48.5559 9.83607C48.2786 10.3341 48.1768 10.9109 48.2667 11.4738C48.4219 12.8358 48.3906 14.2126 48.1737 15.5662C48.0301 16.4039 47.6779 17.1919 47.1497 17.8577C47.011 17.06 46.9713 16.2483 47.0315 15.4409C47.0449 13.7911 46.5443 12.1781 45.5993 10.8257C44.6827 9.50452 43.4331 9.51884 42.5309 10.8651C41.6178 12.1655 41.1436 13.7234 41.1775 15.312C41.1775 16.114 41.1775 16.916 41.1775 17.9651C40.5915 17.3835 40.2043 16.6316 40.0711 15.8168C39.8015 14.6239 39.7361 13.3939 39.8778 12.1791C40.1535 10.4498 39.577 9.2145 37.9587 8.49125C37.7718 8.3995 37.5953 8.28786 37.4323 8.15827C37.3369 8.04686 37.2518 7.92702 37.1781 7.80023H41.5248C41.6716 7.80023 41.8434 7.81813 41.8578 8.01147C41.9294 8.89226 42.6025 8.80275 43.1861 8.82423C43.7697 8.84572 44.4357 8.82423 45.0622 8.82423C45.6065 8.82423 46.1722 8.82423 46.251 8.06518C46.2724 7.83961 46.455 7.80023 46.6448 7.80023H51.0237C50.7144 8.2204 50.2905 8.5424 49.8028 8.72756H49.7956ZM43.1825 7.1271C43.2291 6.45398 43.8234 6.80128 44.1707 6.76906C44.4607 6.74042 44.9978 6.55065 44.9333 7.17007C44.8689 7.78948 44.2781 7.31329 44.049 7.5496C43.7053 7.41354 43.1467 7.72862 43.1897 7.1271H43.1825ZM40.9519 2.57278C41.9258 2.7518 42.7206 3.40344 43.5871 3.86174C44.4536 4.32004 45.3594 4.7103 46.3799 4.66018C46.8489 4.6387 47.454 4.69956 47.4146 4.00138C47.3931 3.43209 46.8954 3.35332 46.4264 3.3748C46.2581 3.3748 46.0684 3.43925 45.9323 3.28887C46.7737 2.40808 48.9828 1.96053 49.9603 2.46895C51.106 3.06688 51.9116 4.71747 51.7255 6.02433C51.6753 6.38237 51.5321 6.55065 51.1633 6.54707C49.7025 6.54707 48.2453 6.54707 46.7844 6.54707C46.5302 6.54707 46.2796 6.51127 46.2617 6.18903C46.2116 5.47294 45.7067 5.47294 45.1876 5.47294C44.3855 5.47294 43.5799 5.47294 42.7779 5.47294C42.4378 5.47294 41.9866 5.50874 41.9759 5.87037C41.9544 6.70461 41.4066 6.53991 40.9268 6.54349C39.6773 6.54349 38.4205 6.54349 37.1745 6.54349C36.6733 6.54349 36.4799 6.37879 36.4871 5.87753C36.5122 3.07404 38.084 2.03571 40.9519 2.57278ZM19.0539 5.69851C19.3547 3.01676 20.5613 2.04646 23.5939 2.57994C24.5356 2.74464 25.3161 3.37122 26.1432 3.84384C27.0582 4.41716 28.1257 4.69931 29.2045 4.65302C29.6628 4.62437 30.0817 4.48832 30.0423 3.95483C30.0101 3.48937 29.6126 3.3569 29.183 3.37122C28.9467 3.37122 28.7104 3.37122 28.4669 3.37122C28.9469 2.93819 29.5171 2.6172 30.1363 2.43144C30.7555 2.24568 31.4082 2.19979 32.0473 2.29709C33.4079 2.45821 34.7864 4.92155 34.3066 6.19977C34.1849 6.52917 33.9486 6.53633 33.6585 6.53633H29.473C29.14 6.53633 28.8858 6.48262 28.8572 6.07445C28.8249 5.56245 28.4633 5.46578 28.0372 5.46578H25.71C25.1371 5.46578 24.5213 5.39059 24.5034 6.25706C24.5034 6.55423 24.2384 6.53275 24.0307 6.53275C22.5699 6.53275 21.1091 6.53275 19.6483 6.53275C18.9966 6.55781 19.0074 6.11384 19.0539 5.69851ZM30.9016 11.8425C31.1448 13.5015 30.9814 15.1946 30.4254 16.7764C30.2499 17.2484 29.9696 17.6745 29.6055 18.0224C29.6055 16.916 29.5804 15.9923 29.6055 15.0721C29.6628 13.4108 29.0577 11.9822 28.1303 10.6646C27.3319 9.53674 26.0429 9.59045 25.266 10.7326C24.297 12.0704 23.7938 13.6893 23.8338 15.3406C23.866 16.1677 23.8338 16.9948 23.8338 17.9937C23.3467 17.5344 22.9981 16.9477 22.8277 16.3002C22.4694 15.0042 22.3481 13.6542 22.4697 12.3152C22.7346 10.1669 22.4697 9.60477 20.6293 8.52348C20.2752 8.38937 19.9738 8.1445 19.77 7.82529H24.1596C24.3566 7.82529 24.4962 7.8969 24.5177 8.12605C24.5857 8.84213 25.1228 8.84213 25.6384 8.84213C26.3222 8.84213 27.0097 8.84213 27.6935 8.84213C28.2306 8.84213 28.8142 8.8672 28.8787 8.08666C28.8787 7.85751 29.0827 7.81813 29.2689 7.81813H33.6192C33.3148 8.35519 32.8708 8.49125 32.4949 8.69176C31.2167 9.3792 30.7083 10.3459 30.9016 11.8425ZM25.8138 7.12352C25.8138 6.47546 26.3831 6.76548 26.691 6.76548C26.9989 6.76548 27.5646 6.4683 27.5646 7.12352C27.5646 7.77874 26.9846 7.3849 26.6767 7.53169C26.3867 7.37057 25.8066 7.78232 25.8138 7.12352ZM1.66013 5.78802C1.90718 3.07404 3.17108 2.06436 6.1142 2.56562C7.08808 2.73032 7.90442 3.34974 8.75657 3.83668C9.61454 4.37591 10.6076 4.6614 11.6209 4.66018C12.1186 4.66018 12.6772 4.59931 12.6449 3.94409C12.6163 3.37122 12.0971 3.33183 11.6209 3.36406C11.4455 3.36406 11.2629 3.36406 11.091 3.36406C12.3012 2.42956 13.6618 1.90324 15.0689 2.46537C16.3578 2.98095 16.8842 4.1983 16.9844 5.56603C17.0381 6.26064 16.8305 6.60436 16.0356 6.56497C14.7574 6.50053 13.472 6.54707 12.1902 6.54707C11.8608 6.54707 11.5171 6.58288 11.4741 6.09236C11.4312 5.60183 11.091 5.47652 10.6685 5.47652H8.34124C7.76837 5.47652 7.17401 5.40491 7.11673 6.25706C7.09524 6.56855 6.78375 6.54349 6.54744 6.54349C5.14748 6.54349 3.74753 6.54349 2.34758 6.54349C1.76039 6.56855 1.61717 6.29644 1.66013 5.78802ZM10.1923 7.1092C10.221 7.77874 9.63378 7.38847 9.3366 7.53885C9.03942 7.38489 8.47013 7.78232 8.44865 7.14143C8.42717 6.50053 9.00362 6.78338 9.30438 6.78338C9.60513 6.78338 10.1673 6.47546 10.1923 7.1092ZM3.59715 8.7383C3.19614 8.51989 2.72711 8.38026 2.3619 7.82171C3.86927 7.82171 5.22625 7.82171 6.55102 7.82171C6.80523 7.82171 7.11315 7.75368 7.14895 8.17975C7.19908 8.78843 7.66453 8.8493 8.12283 8.86004C8.92485 8.87675 9.72926 8.87675 10.536 8.86004C10.9979 8.86004 11.4526 8.77053 11.4956 8.16185C11.5207 7.80381 11.7785 7.83603 12.0148 7.83603C13.3825 7.83603 14.7502 7.83603 16.2075 7.83603C15.9855 8.3731 15.52 8.48051 15.162 8.69176C13.5866 9.61551 13.3718 10.2528 13.5221 12.0717C13.694 14.0875 13.6654 16.1212 12.1866 17.8613C12.1866 17.0234 12.158 16.1856 12.1866 15.355C12.2339 13.7346 11.7539 12.1427 10.8189 10.8185C9.97392 9.55822 8.71718 9.52958 7.86504 10.7684C6.91268 12.0439 6.40912 13.5986 6.43286 15.1903C6.46151 16.0818 6.43286 16.9805 6.43286 17.9902C5.91019 17.5546 5.55256 16.9531 5.4196 16.2859C5.02714 14.8441 4.92131 13.3394 5.1081 11.8569C5.33725 10.3996 4.85031 9.41501 3.59715 8.7383ZM50.014 22.745C49.865 22.736 49.7155 22.736 49.5664 22.745C34.3233 22.745 19.0826 22.751 3.8442 22.7629C2.967 22.7629 2.66624 22.5875 2.69846 21.6458C2.77365 19.2612 2.72352 16.8766 2.72352 14.4849C2.69144 14.037 2.76513 13.5877 2.93866 13.1735C3.11218 12.7593 3.38068 12.3917 3.72247 12.1003C3.79766 13.2246 3.90149 14.2486 3.92655 15.2654C3.9552 16.6547 4.57103 17.7718 5.39812 18.828C5.57044 19.0584 5.81586 19.2236 6.09422 19.2964C6.37259 19.3692 6.66744 19.3455 6.93054 19.229C7.18267 19.1312 7.39601 18.9538 7.53817 18.7238C7.68033 18.4937 7.74355 18.2236 7.71824 17.9544C7.7433 16.558 7.5607 15.1509 7.87578 13.7652C8.07182 12.9836 8.40259 12.2421 8.85324 11.574C9.16832 11.0763 9.47266 11.0763 9.78774 11.574C10.4894 12.5843 10.8858 13.7749 10.9299 15.0041C10.9299 15.9887 10.9299 16.9697 10.9299 17.9544C10.8985 18.2245 10.9588 18.4973 11.101 18.729C11.2431 18.9608 11.459 19.1381 11.714 19.2326C11.9932 19.3433 12.3013 19.358 12.5897 19.2744C12.8782 19.1907 13.1306 19.0136 13.3073 18.7707C14.539 17.3779 14.7717 15.6844 14.8326 13.9371C14.9048 13.1345 14.8748 12.326 14.7431 11.531C14.6424 11.1977 14.6759 10.8382 14.8364 10.5293C14.9969 10.2203 15.2718 9.98617 15.6024 9.87688C16.1608 9.6627 16.6643 9.32654 17.0763 8.89294C17.4882 8.45934 17.7981 7.93923 17.9834 7.37057C18.1919 7.95316 18.5238 8.48383 18.9564 8.92628C19.3889 9.36874 19.912 9.71254 20.4897 9.93417C20.7898 10.0404 21.0384 10.2566 21.1852 10.5391C21.3321 10.8215 21.3663 11.1492 21.281 11.4559C20.9909 12.888 21.2487 14.3202 21.3347 15.7309C21.4063 16.9626 22.0507 17.9866 22.8384 18.9103C23.0131 19.1197 23.2516 19.266 23.5175 19.3268C23.7833 19.3876 24.0617 19.3595 24.31 19.2469C24.5498 19.1567 24.7541 18.9917 24.8927 18.7763C25.0314 18.5609 25.097 18.3066 25.0798 18.051C25.1084 16.6547 24.9366 15.2511 25.2409 13.8619C25.4458 13.0524 25.7938 12.2861 26.2685 11.5991C26.5979 11.0799 26.8808 11.1265 27.1851 11.6241C27.8636 12.6114 28.2473 13.7712 28.2915 14.9683C28.2915 15.9529 28.3344 16.9375 28.2915 17.9186C28.27 18.5738 28.5099 19.0428 29.1078 19.2541C29.3748 19.356 29.6675 19.3689 29.9424 19.2908C30.2173 19.2128 30.4596 19.0479 30.6331 18.8208C31.8576 17.4782 32.1512 15.867 32.1941 14.1734C32.2426 13.2192 32.2426 12.2632 32.1941 11.3091C32.1424 10.9996 32.2012 10.6819 32.3603 10.4115C32.5194 10.1411 32.7686 9.93538 33.0642 9.83034C33.5948 9.6237 34.0776 9.31107 34.4833 8.91154C34.889 8.51201 35.209 8.03398 35.4237 7.50663C35.8498 8.77769 36.8093 9.40784 37.8835 9.91269C38.1819 10.0232 38.4282 10.2413 38.574 10.5242C38.7198 10.8072 38.7544 11.1344 38.6712 11.4415C38.3955 12.8093 38.6712 14.177 38.7105 15.5411C38.7571 16.8408 39.4266 17.9257 40.2358 18.896C40.409 19.1084 40.6469 19.2583 40.9132 19.3229C41.1795 19.3876 41.4597 19.3634 41.711 19.2541C41.9503 19.1633 42.1538 18.9973 42.2907 18.781C42.4276 18.5647 42.4905 18.3098 42.47 18.0546C42.4879 16.7442 42.3519 15.4337 42.5846 14.1161C42.765 13.2432 43.1088 12.4123 43.5978 11.6671C43.9308 11.1193 44.2101 11.0083 44.604 11.6456C45.2973 12.6584 45.6714 13.8555 45.6781 15.0828C45.6566 16.0352 45.6781 16.9912 45.6781 17.9472C45.6507 18.2299 45.7211 18.5135 45.8775 18.7507C46.0338 18.9878 46.2668 19.1642 46.5374 19.2505C46.806 19.347 47.0988 19.3535 47.3714 19.2688C47.644 19.1842 47.8816 19.0131 48.0483 18.7814C49.1619 17.4889 49.5199 15.9529 49.5593 14.3059C49.5593 13.6256 49.5593 12.9417 49.5593 12.129C49.9052 12.3278 50.1889 12.619 50.3786 12.97C50.5683 13.321 50.6566 13.7178 50.6334 14.1161C50.6656 16.7692 50.6334 19.4259 50.6549 22.079C50.6728 22.5767 50.526 22.8059 50.014 22.745Z" fill="#5C9DFF"/>
</svg>
