<svg width="37" height="41" viewBox="0 0 37 41" fill="none" xmlns="http://www.w3.org/2000/svg">
<path fill-rule="evenodd" clip-rule="evenodd" d="M28.7348 34.4718C28.1385 31.9828 27.2089 29.5857 25.971 27.3455C25.2886 26.1481 24.3768 25.0969 23.2877 24.2522C22.4355 23.5644 21.475 23.8069 21.036 24.8136C20.4444 26.1419 20.1284 27.5764 20.1072 29.0303C20.0819 32.211 20.583 35.374 21.5903 38.3911C21.8831 39.2803 21.7006 40.0746 21.0734 40.5497C20.4462 41.0247 19.6169 41.0242 18.8367 40.4885C17.4349 39.5447 16.4382 38.2401 15.5974 36.8037C14.1677 34.2698 13.2409 31.4837 12.8678 28.5983L12.8399 28.4096C12.3771 25.2781 12.3129 24.8433 9.0887 24.3365C3.351 23.4496 1.21367 14.7284 5.19904 10.6469C7.14946 8.65385 9.58544 7.95057 12.291 8.06806C13.796 8.131 15.231 8.54521 16.6681 8.96003C16.9865 9.05194 17.305 9.14389 17.6245 9.23204C17.8305 9.30954 18.0538 9.32893 18.27 9.2881C18.4863 9.24728 18.6872 9.14781 18.8507 9.00055C19.3619 8.58825 19.8148 8.12463 20.27 7.65863C20.5466 7.37552 20.824 7.09153 21.1158 6.81764C22.826 5.18549 24.9887 4.10712 27.3213 3.72344C27.8888 3.62612 28.468 3.6174 29.0382 3.69759C29.1825 3.73286 29.3347 3.71474 29.4667 3.64657C29.5987 3.5784 29.7016 3.46479 29.7564 3.32671C30.1657 2.57846 30.3892 1.7428 30.4081 0.890124C30.41 0.843678 30.4105 0.796663 30.4109 0.749782C30.4141 0.440227 30.4171 0.136442 30.815 0.0399446C31.1871 -0.0503227 31.3038 0.178334 31.4242 0.414149L31.4243 0.414198C31.4521 0.468636 31.48 0.523456 31.5114 0.57482C31.9418 1.34095 32.5591 1.9856 33.306 2.44863C34.0528 2.91166 34.9047 3.17798 35.7823 3.22276L35.8214 3.22642C35.8822 3.2322 35.9447 3.23815 36.0058 3.23819C36.3721 3.23041 36.7376 3.25686 36.84 3.69233C36.9369 4.10448 36.6433 4.25094 36.3646 4.38998L36.3175 4.41356C35.5688 4.82128 34.9307 5.40515 34.4582 6.11472C34.3152 6.26657 34.2333 6.46589 34.2282 6.67443C34.2231 6.88297 34.2952 7.08606 34.4306 7.24473C35.1446 8.30455 35.64 9.49617 35.8877 10.7498C36.1355 12.0035 36.1306 13.294 35.8735 14.5457C35.6438 15.7577 35.0235 16.8611 34.1072 17.6871C33.6654 18.1021 33.2404 18.5368 32.8166 18.9702L32.8166 18.9702C32.6297 19.1614 32.443 19.3523 32.2552 19.5412C31.9328 19.8414 31.7063 20.23 31.6039 20.6584C31.5016 21.0869 31.528 21.536 31.6799 21.9494C31.8247 22.4135 31.9768 22.8754 32.129 23.3373L32.1291 23.3376L32.1291 23.3377C32.6414 24.8928 33.1536 26.4477 33.3827 28.0841C33.6799 30.2068 33.8679 32.3505 33.4748 34.4967C33.3019 35.4326 32.9756 36.3336 32.5091 37.1632C32.3485 37.5081 32.0805 37.7917 31.7453 37.9717C31.4101 38.1518 31.0256 38.2184 30.6494 38.1618C30.2731 38.1052 29.9253 37.9283 29.6579 37.6577C29.3905 37.387 29.2179 37.037 29.1659 36.6601C29.0401 36.0845 28.9308 35.5049 28.8378 35.0119C28.8009 34.8164 28.7666 34.6344 28.7348 34.4718ZM19.8129 9.69505C19.8899 9.70698 19.9604 9.71942 20.0264 9.73108C20.1507 9.75303 20.2592 9.77219 20.3662 9.77986C21.4632 9.91397 22.5765 9.78078 23.6109 9.39165C23.919 9.26224 24.2707 9.1962 24.4452 9.59823C24.6197 10.0003 24.3429 10.2425 23.9947 10.3974C23.8325 10.4627 23.6669 10.5194 23.4988 10.5675C21.7102 11.1248 19.9337 10.8375 18.1727 10.4381C17.2053 10.2177 16.2461 9.96372 15.2867 9.70963C14.8699 9.59925 14.4531 9.48887 14.0355 9.38122C12.0015 8.85496 10.0158 9.10563 8.06762 9.79247C7.12234 10.0792 6.30476 10.683 5.75259 11.5021C4.37286 13.7365 3.759 16.1265 4.62017 18.7366C5.4043 21.1122 6.78664 22.8096 9.39007 23.2867C10.1191 23.4649 10.8328 23.7008 11.5245 23.9921C11.9851 24.1533 12.397 24.4293 12.7213 24.794C13.0455 25.1588 13.2714 25.6001 13.3776 26.0764C13.6286 26.9871 13.7971 27.9153 13.9655 28.8435L13.9656 28.8436L13.9824 28.9361C14.393 31.179 14.9122 33.3979 16.025 35.4162C16.8984 36.996 17.8804 38.5024 19.3738 39.5904C19.5148 39.7162 19.6946 39.7899 19.8832 39.7992C20.0719 39.8084 20.2581 39.7527 20.4106 39.6413C20.7821 39.3816 20.679 39.0422 20.5656 38.6992C19.899 36.7316 19.4382 34.7002 19.1904 32.6375C18.8645 29.8785 18.8997 27.1408 19.9833 24.5254C20.7308 22.7085 22.5346 22.2618 24.0614 23.5086C25.6937 24.8312 26.8089 26.5364 27.6996 28.3965C28.8645 30.7806 29.6725 33.3229 30.0976 35.942C30.1073 36.0063 30.1148 36.0732 30.1224 36.1409L30.1224 36.141C30.1703 36.5673 30.2221 37.028 30.8309 37.0711C31.4468 37.1147 31.598 36.694 31.7449 36.2852L31.7449 36.2851C31.7662 36.2257 31.7875 36.1666 31.81 36.1091C31.9844 35.6726 32.1259 35.2237 32.2332 34.766C33.0772 31.1275 32.4554 27.6161 31.2526 24.1816C30.9494 23.3603 30.713 22.516 30.5457 21.6567C30.4556 21.2278 30.4653 20.7839 30.5741 20.3592C30.6828 19.9346 30.8876 19.5407 31.1727 19.2078C31.7711 18.4755 32.4291 17.794 33.1399 17.1703C33.6482 16.7428 34.0662 16.2183 34.3693 15.6274C34.6725 15.0365 34.8548 14.3911 34.9056 13.7289C35.1417 11.7679 34.7072 9.78465 33.6728 8.10197C33.6647 8.20905 33.657 8.30586 33.6498 8.39477L33.6498 8.39534C33.6265 8.68575 33.61 8.89169 33.611 9.09508C33.6123 9.36084 33.5539 9.64768 33.2167 9.73484C32.8293 9.83143 32.6671 9.59033 32.5369 9.30409C32.2992 8.80829 31.9637 8.36572 31.5504 8.00306C30.6261 7.10454 29.4007 6.58187 28.1125 6.53665C28.0587 6.53501 28.0034 6.53556 27.9478 6.53611C27.6261 6.53933 27.2936 6.54266 27.1858 6.12104C27.0734 5.68098 27.3788 5.53126 27.6851 5.38113L27.6851 5.3811C27.723 5.36255 27.7609 5.34398 27.798 5.32487C27.9374 5.28012 28.0656 5.20598 28.1739 5.10744C28.2823 5.00891 28.3682 4.88828 28.4259 4.7537C24.655 4.8183 22.1605 7.07387 19.8129 9.69505ZM34.8009 4.17597C33.4615 3.86603 32.2516 3.14689 31.3393 2.11831C31.0245 3.46262 30.2901 4.67189 29.2424 5.57116C30.5605 5.89358 31.7636 6.57451 32.7186 7.53853C33.0592 6.23755 33.7801 5.06777 34.7893 4.17887L34.8009 4.17597ZM7.38745 32.3469C7.6831 32.2917 7.84536 32.4586 7.97554 32.6953C8.83155 34.2423 10.1183 35.0848 11.9102 35.0743C12.2437 35.0716 12.5152 35.1803 12.5914 35.5233C12.6677 35.8663 12.4521 36.019 12.1942 36.1638C11.4682 36.54 10.8623 37.1123 10.4454 37.8157C10.0284 38.5191 9.81715 39.3254 9.83553 40.1429C9.83098 40.4225 9.75658 40.6328 9.46456 40.7149C9.17253 40.797 8.95858 40.6214 8.80948 40.3585C8.44398 39.6411 7.88487 39.0404 7.19551 38.6244C6.50615 38.2085 5.71407 37.9939 4.90901 38.0049C4.59738 37.996 4.27414 37.9405 4.20739 37.5611C4.14064 37.1817 4.35408 37.0202 4.65198 36.8624C6.1859 36.0529 6.91047 34.7523 6.96252 33.0376L6.96292 33.0313C6.9819 32.7377 7.00132 32.437 7.38745 32.3469ZM10.5437 35.9967C9.52306 35.725 8.5942 35.184 7.85431 34.4303C7.5877 35.4425 7.03443 36.3561 6.26099 37.0614C7.26283 37.3881 8.1824 37.9271 8.95692 38.6417C9.26221 37.6438 9.80697 36.7358 10.5437 35.9967ZM5.15947 29.309C4.8796 28.9573 4.68809 28.5436 4.60098 28.1027C4.58579 27.9425 4.56696 27.7925 4.54302 27.6468C4.53769 27.5337 4.49232 27.4262 4.41501 27.3435C4.3377 27.2607 4.23349 27.2081 4.121 27.1952C4.01057 27.1639 3.89238 27.176 3.79059 27.229C3.68879 27.282 3.61106 27.3719 3.57328 27.4802C3.37832 28.0384 3.02288 28.5266 2.55155 28.8835C2.08022 29.2405 1.51398 29.4503 0.923861 29.4867C0.800335 29.4969 0.684988 29.5526 0.600084 29.6429C0.51518 29.7332 0.466739 29.8518 0.464112 29.9757C0.456942 30.0886 0.489643 30.2005 0.556514 30.2919C0.623385 30.3832 0.720184 30.4481 0.830037 30.4754C1.35147 30.6612 1.80885 30.9922 2.14816 31.4296C2.48746 31.8669 2.69452 32.3922 2.74487 32.9435C2.73759 33.0813 2.77976 33.2172 2.86379 33.3267C2.94781 33.4362 3.06818 33.5122 3.2032 33.5408C3.34112 33.5596 3.48106 33.5259 3.59532 33.4464C3.70959 33.3669 3.78984 33.2475 3.82019 33.1116C4.00641 32.6323 4.31759 32.2117 4.72138 31.8934C5.12518 31.5751 5.60685 31.3707 6.11635 31.3015C6.12821 31.2994 6.14011 31.2972 6.15204 31.2951C6.46428 31.2388 6.79051 31.1799 6.82514 30.769C6.85608 30.4017 6.59556 30.2906 6.33487 30.1793C6.29269 30.1613 6.25051 30.1433 6.20956 30.1242C5.79943 29.9403 5.43935 29.6608 5.15947 29.309ZM3.98918 31.1814C3.83185 31.2879 3.67155 31.3965 3.53797 31.5081L2.53614 30.2697C2.65116 30.1722 2.77075 30.0538 2.89107 29.9346C3.19826 29.6303 3.51018 29.3213 3.76287 29.345C4.11452 29.378 4.66817 30.0847 4.66864 30.496C4.66749 30.7218 4.33551 30.9467 3.98918 31.1814Z" fill="#5C9DFF"/>
</svg>
