<svg width="51" height="50" viewBox="0 0 51 50" fill="none" xmlns="http://www.w3.org/2000/svg">
<path d="M44.3275 20.3064C44.0949 20.2483 43.8794 20.136 43.6985 19.9786C43.5177 19.8213 43.3767 19.6234 43.287 19.401C42.0833 16.8104 40.2915 14.5365 38.0542 12.7603C37.5343 12.3477 37.1629 11.9454 37.1145 11.2292C37.0615 10.6742 36.8471 10.1467 36.4978 9.71209C36.1503 9.26317 36.1829 8.85402 36.3154 8.34124C36.5973 7.25742 36.5024 6.10998 36.0463 5.08719C35.5902 4.06441 34.7999 3.22704 33.8053 2.71247C32.8106 2.1979 31.6706 2.0367 30.5723 2.25532C29.474 2.47394 28.4826 3.05939 27.7608 3.91561C27.2443 4.55977 26.7133 5.19582 26.2233 5.86322C26.1827 5.94048 26.1267 6.00858 26.0588 6.06329C25.9908 6.11801 25.9123 6.15817 25.8282 6.18128C25.744 6.2044 25.656 6.20998 25.5697 6.19766C25.4833 6.18535 25.4003 6.15542 25.326 6.10972C24.1499 5.6439 22.7851 5.44408 21.809 6.17949C20.2851 7.29892 19.3472 6.56055 18.308 5.61482C18.1638 5.48679 18.0021 5.37783 17.8461 5.26141C16.1829 4.05077 13.7497 3.99309 12.1778 5.12894C10.2881 6.49109 9.43101 8.64927 10.2428 10.7025C10.6931 11.8738 11.0842 12.9526 10.6773 14.1944C10.6005 14.4338 10.602 14.6914 10.6814 14.9299C10.868 15.427 10.6448 15.7611 10.3622 16.1266C8.56135 18.4867 7.35406 21.2451 6.84206 24.1693C6.81123 24.4333 6.71743 24.6859 6.56854 24.906C6.41966 25.1261 6.22006 25.3072 5.98657 25.434C4.04825 26.632 3.26205 28.4931 3.55115 30.666C3.84024 32.839 5.1396 34.3323 7.25883 34.9971C7.51654 35.0595 7.756 35.1815 7.95786 35.3534C8.15973 35.5253 8.31835 35.7422 8.42093 35.9867C12.0729 43.5705 20.0753 47.919 28.675 46.7983L30.5333 46.4072C30.6713 46.3889 30.8094 46.3705 30.9394 46.3164C38.5775 43.9285 43.1972 38.794 44.8508 30.9795C44.8731 30.765 44.9485 30.5594 45.0703 30.3814C45.1921 30.2034 45.3563 30.0585 45.5482 29.96C46.459 29.4518 47.1953 28.6805 47.6609 27.7471C48.1264 26.8138 48.2996 25.7616 48.1576 24.7283C47.8129 22.4891 46.5208 20.9748 44.3275 20.3064ZM27.2831 6.7627C27.8618 6.0835 28.3426 5.34707 28.931 4.69C29.9204 3.60153 31.1754 3.17696 32.594 3.63058C34.0127 4.08419 34.9017 5.08335 35.1408 6.85483C35.2113 7.4106 35.101 7.97431 34.826 8.46244C34.5274 9.03412 34.6211 9.43651 35.0228 9.94178C35.3606 10.346 35.6035 10.8208 35.7336 11.3312C35.8638 11.8416 35.8779 12.3747 35.7749 12.8913C35.6719 13.4079 35.4545 13.8949 35.1386 14.3164C34.8227 14.7379 34.4163 15.0833 33.9494 15.3271C33.4094 15.6468 32.7898 15.8067 32.1626 15.7883C31.5354 15.7699 30.9262 15.5739 30.406 15.2231C29.6452 14.7355 28.9612 14.1206 28.2272 13.5826C28.1616 13.5478 28.1042 13.4993 28.059 13.4404C28.0138 13.3815 27.9818 13.3135 27.9652 13.2412C27.9485 13.1688 27.9477 13.0937 27.9627 13.0209C27.9777 12.9482 28.0082 12.8795 28.0521 12.8196C28.9547 10.903 28.7213 9.12405 27.3471 7.52033C27.0828 7.24434 27.0316 7.06046 27.2831 6.7627ZM23.183 7.22788C24.1087 7.10819 25.0444 7.35772 25.7876 7.9225C26.5307 8.48728 27.0217 9.32192 27.1543 10.2459C27.2715 11.1866 27.012 12.1355 26.4325 12.8857C25.8529 13.6359 25.0003 14.1265 24.0605 14.2507C23.5956 14.3219 23.1212 14.2976 22.6661 14.1791C22.211 14.0606 21.7849 13.8505 21.4138 13.5616C21.0428 13.2727 20.7346 12.9111 20.5082 12.499C20.2817 12.0868 20.1418 11.6328 20.0969 11.1647C20.0226 10.701 20.045 10.2269 20.1625 9.77214C20.2801 9.31742 20.4904 8.8919 20.7801 8.52227C21.0699 8.15263 21.4329 7.84686 21.8464 7.62412C22.2599 7.40138 22.7149 7.26648 23.183 7.22788ZM12.2088 11.5484C11.0013 10.0161 11.0742 8.04927 12.3831 6.74766C13.692 5.44606 15.5693 5.32343 17.1839 6.52047C17.3107 6.62736 17.4435 6.72698 17.5816 6.81885C18.7501 7.5299 19.5827 8.20535 18.8086 9.88077C18.1753 11.2564 18.8078 12.6912 19.7976 13.8442C20.0918 14.1697 20.1225 14.3999 19.834 14.746C19.2993 15.3792 18.8502 16.078 18.3077 16.7022C17.8739 17.2467 17.2823 17.6437 16.614 17.8386C15.9457 18.0335 15.2334 18.0169 14.575 17.791C13.9153 17.6227 13.3229 17.2565 12.8776 16.7415C12.4323 16.2266 12.1553 15.5876 12.084 14.9106C11.9512 14.2236 12.0571 13.5118 12.3844 12.8934C12.5106 12.6821 12.562 12.4344 12.5301 12.1904C12.4982 11.9463 12.385 11.7202 12.2088 11.5484ZM44.5336 28.9475C44.2567 29.0552 44.0172 29.2412 43.8444 29.4829C43.6715 29.7245 43.5729 30.0113 43.5604 30.3081C42.6244 37.2041 37.3757 43.1182 30.6696 44.917C29.8396 45.1412 28.9978 45.2766 28.2395 45.411C24.4077 45.9377 20.5085 45.2057 17.1287 43.3251C13.7488 41.4446 11.0712 38.5172 9.49858 34.9835C9.38972 34.6518 9.18845 34.358 8.91839 34.1368C8.64834 33.9155 8.32073 33.7759 7.97407 33.7344C7.19403 33.5822 6.48201 33.1875 5.93967 32.6065C5.39734 32.0256 5.05244 31.2881 4.95421 30.4995C4.71891 28.7308 5.45155 27.1713 7.00402 26.4429C7.3299 26.3123 7.61097 26.09 7.81325 25.8031C8.01553 25.5161 8.13036 25.1767 8.14386 24.8259C8.50779 22.2457 9.47348 19.7873 10.9629 17.6492C11.2453 17.257 11.3646 17.0973 11.7751 17.5679C13.9486 20.0489 17.5581 19.92 19.6088 17.3287C19.699 17.2237 19.7838 17.1141 19.8629 17.0005C20.6103 15.8539 21.3174 14.9067 23.0191 15.5769C24.1358 16.0238 25.382 15.5335 26.3647 14.7972C26.8513 14.4314 27.1355 14.5307 27.5654 14.8449C28.4736 15.5103 29.2871 16.3188 30.3593 16.7583C31.5325 17.2476 32.8494 17.265 34.0352 16.8068C35.221 16.3486 36.184 15.4502 36.7233 14.299C37.0233 13.6368 37.2207 13.7879 37.6234 14.1492C39.5978 15.8899 41.172 18.0373 42.238 20.4439C42.328 20.7312 42.499 20.9864 42.7305 21.1787C42.9621 21.3711 43.2443 21.4925 43.5432 21.5282C44.3607 21.6794 45.1094 22.0853 45.6822 22.6878C46.2551 23.2904 46.6226 24.0587 46.7322 24.8828C46.8418 25.7069 46.688 26.5446 46.2926 27.2759C45.8973 28.0073 45.2807 28.5948 44.5312 28.9545L44.5336 28.9475Z" fill="#5C9DFF"/>
<path d="M27.7421 41.9005C24.247 42.1346 21.3464 41.0786 19.3306 38.048C19.0509 37.6302 18.7129 37.1265 19.2859 36.7558C19.8588 36.3852 20.1543 36.8209 20.4713 37.2672C22.2026 39.6933 24.5623 40.8581 27.5365 40.4558C30.5108 40.0534 32.5586 38.3457 33.5642 35.4685C33.7355 34.9706 33.9577 34.553 34.5382 34.7166C35.1706 34.8935 35.0505 35.4246 34.8937 35.8804C33.8549 38.8858 31.8239 40.8456 28.7229 41.6529L27.7421 41.9005Z" fill="#5C9DFF"/>
<path d="M16.2265 25.1991C15.8805 25.2304 15.5448 25.3333 15.2408 25.5013C14.9367 25.6693 14.671 25.8988 14.4604 26.1751C14.2499 26.4513 14.0991 26.7684 14.0177 27.1061C13.9363 27.4438 13.9261 27.7948 13.9876 28.1366C14.0266 28.4799 14.1354 28.8116 14.3073 29.1114C14.4793 29.4111 14.7107 29.6724 14.9873 29.8794C15.264 30.0864 15.58 30.2346 15.9161 30.315C16.2521 30.3953 16.601 30.406 16.9414 30.3465C17.2846 30.3054 17.6158 30.1945 17.9146 30.0206C18.2135 29.8468 18.4736 29.6138 18.6791 29.3358C18.8846 29.0578 19.0312 28.7408 19.1097 28.4041C19.1883 28.0675 19.1972 27.7183 19.136 27.3781C19.0967 27.0402 18.989 26.7139 18.8195 26.419C18.6499 26.1241 18.422 25.8669 18.1498 25.663C17.8775 25.4591 17.5666 25.3128 17.2359 25.233C16.9052 25.1533 16.5617 25.1417 16.2265 25.1991ZM16.7623 28.9753C16.4403 29.023 16.1126 28.9408 15.8512 28.7469C15.5898 28.553 15.4162 28.2632 15.3685 27.9412C15.3207 27.6193 15.4029 27.2915 15.5968 27.0301C15.7907 26.7688 16.0805 26.5951 16.4025 26.5474C16.7245 26.4997 17.0522 26.5818 17.3136 26.7757C17.575 26.9696 17.7486 27.2595 17.7963 27.5814C17.844 27.9034 17.7619 28.2311 17.568 28.4925C17.3741 28.7539 17.0843 28.9275 16.7623 28.9753Z" fill="#5C9DFF"/>
<path d="M34.596 23.4076C34.2499 23.4346 33.9132 23.5329 33.6069 23.6964C33.3007 23.8598 33.0315 24.0848 32.8164 24.3572C32.6013 24.6297 32.4448 24.9437 32.3569 25.2795C32.269 25.6153 32.2515 25.9656 32.3054 26.3085C32.3452 26.6516 32.4537 26.9832 32.6244 27.2835C32.7952 27.5837 33.0247 27.8465 33.2993 28.056C33.5739 28.2656 33.8879 28.4176 34.2226 28.5031C34.5572 28.5886 34.9057 28.6057 35.2471 28.5535C35.5836 28.515 35.909 28.4096 36.2041 28.2435C36.4992 28.0774 36.7582 27.854 36.9657 27.5863C37.1733 27.3187 37.3252 27.0123 37.4126 26.6851C37.4999 26.3579 37.521 26.0165 37.4745 25.6811C37.4469 25.3379 37.3488 25.0042 37.1864 24.7007C37.024 24.3972 36.8008 24.1304 36.5306 23.9171C36.2605 23.7037 35.9493 23.5484 35.6164 23.4607C35.2835 23.3731 34.9362 23.355 34.596 23.4076ZM35.0571 27.2004C34.7369 27.2194 34.4206 27.1216 34.1669 26.9253C33.9132 26.729 33.7392 26.4475 33.6772 26.1327C33.6487 25.801 33.7519 25.4715 33.9645 25.2153C34.1771 24.9591 34.482 24.7969 34.8132 24.7638C35.1329 24.736 35.4505 24.8356 35.6971 25.0409C35.9437 25.2462 36.0993 25.5405 36.13 25.8599C36.1521 26.1773 36.054 26.4913 35.8553 26.7396C35.6565 26.988 35.3715 27.1525 35.0571 27.2004Z" fill="#5C9DFF"/>
</svg>
