<svg width="18" height="21" viewBox="0 0 18 21" fill="none" xmlns="http://www.w3.org/2000/svg">
<path d="M11.7871 0.109375C11.3729 0.109375 11.0371 0.445161 11.0371 0.859375C11.0371 1.27359 11.3729 1.60938 11.7871 1.60938V0.109375ZM16.7871 0.859375H17.5371C17.5371 0.445161 17.2013 0.109375 16.7871 0.109375V0.859375ZM16.7871 14.8594V15.6094C17.2013 15.6094 17.5371 15.2736 17.5371 14.8594H16.7871ZM0.256779 14.329C-0.0361139 14.6219 -0.0361139 15.0968 0.256779 15.3897L5.02975 20.1627C5.32264 20.4556 5.79752 20.4556 6.09041 20.1627C6.3833 19.8698 6.3833 19.3949 6.09041 19.102L1.84777 14.8594L6.09041 10.6167C6.3833 10.3238 6.3833 9.84897 6.09041 9.55607C5.79752 9.26318 5.32264 9.26318 5.02975 9.55607L0.256779 14.329ZM11.7871 1.60938H16.7871V0.109375H11.7871V1.60938ZM16.0371 0.859375V14.8594H17.5371V0.859375H16.0371ZM16.7871 14.1094H0.787109V15.6094H16.7871V14.1094Z" fill="#5C9DFF"/>
</svg>
