<svg width="184" height="17" viewBox="0 0 184 17" fill="none" xmlns="http://www.w3.org/2000/svg">
<path d="M0 0.416992H5.93103L12.7816 6.76182L19.7701 0.416992H25.6552V16.371H18.9425V7.45147L13.7931 12.463H11.954L6.75862 7.4055V16.6009H0V0.416992Z" fill="white"/>
<path d="M27.5859 0.416992H45.1492V4.32504H34.2986V6.43998H43.494V10.1181H34.2986V12.417H45.2871V16.371H27.5859V0.416992Z" fill="white"/>
<path d="M51.0812 15.5892C49.3294 14.9572 47.7533 13.917 46.4835 12.5547C45.3742 11.4437 44.7467 9.9408 44.7364 8.37083C44.7074 6.80612 45.2839 5.29069 46.3456 4.14094C47.6431 2.81179 49.2111 1.77694 50.9433 1.10646C53.1117 0.336015 55.4011 -0.0377621 57.7019 0.00300962C59.5053 -0.00142239 61.3004 0.246183 63.0352 0.738642C64.6772 1.17623 66.2322 1.89153 67.633 2.85358C68.7972 3.60818 69.6344 4.77371 69.9778 6.11795H63.1732C62.5616 5.39946 61.7673 4.85939 60.8743 4.55473C59.7912 4.20168 58.6571 4.03078 57.518 4.04899C56.4535 4.02251 55.3934 4.19401 54.3916 4.55473C53.5244 4.83881 52.7474 5.34625 52.1387 6.026C51.5847 6.67969 51.2901 7.51418 51.3111 8.37083C51.2874 9.24184 51.5816 10.0917 52.1387 10.7616C52.7516 11.4365 53.5272 11.9431 54.3916 12.2329C55.4008 12.5593 56.4575 12.7147 57.518 12.6927C58.6052 12.7121 59.6895 12.5727 60.7364 12.2789C61.4964 12.0573 62.15 11.5671 62.5755 10.8996H57.2421V7.45129H70.1617C70.3303 9.20814 69.9097 10.9712 68.9663 12.4628C67.7998 13.9714 66.193 15.0801 64.3686 15.6352C62.1557 16.4181 59.8188 16.792 57.472 16.7386C55.2885 16.7604 53.1204 16.3705 51.0812 15.5892Z" fill="white"/>
<path d="M85.7939 16.371L84.5066 14.2101H75.3112L74.0238 16.371H66.9434L76.7824 0.416992H83.0353L92.9204 16.371H85.7939ZM77.4261 10.5319H82.3916L80.1388 6.71584V6.11814V6.71584L77.4261 10.5319Z" fill="white"/>
<path d="M109.286 0.417283C111.61 0.370672 113.925 0.712541 116.137 1.42878C117.898 1.92231 119.489 2.89287 120.734 4.23338C121.803 5.34507 122.397 6.82927 122.39 8.37131C122.393 9.91771 121.819 11.4097 120.78 12.5552C119.503 13.8555 117.923 14.819 116.183 15.3598C113.966 16.0539 111.655 16.3952 109.332 16.3713H98.9873V0.417283H109.286ZM113.884 11.4058C114.398 11.0944 114.823 10.6558 115.118 10.1323C115.412 9.60883 115.567 9.01813 115.567 8.41728C115.567 7.81643 115.412 7.22574 115.118 6.70224C114.823 6.17874 114.398 5.74013 113.884 5.42878C112.428 4.61164 110.769 4.22871 109.102 4.32533H105.746V12.4633H109.194C110.839 12.5411 112.474 12.1759 113.93 11.4058H113.884Z" fill="white"/>
<path d="M122.896 0.416992H140.46V4.32504H129.609V6.43998H138.805V10.1181H129.609V12.417H140.598V16.371H122.896V0.416992Z" fill="white"/>
<path d="M141.335 0.416992H147.128L157.381 9.1986V0.416992H164.094V16.371H158.254L148.048 7.54343V16.371H141.335V0.416992Z" fill="white"/>
<path d="M170.851 4.32504H164.46V0.416992H183.908V4.32504H177.471V16.371H170.851V4.32504Z" fill="white"/>
</svg>
