<svg width="301" height="73" viewBox="0 0 301 73" fill="none" xmlns="http://www.w3.org/2000/svg">
<path d="M0 0.678711H9.67787L20.8562 11.0318L32.2596 0.678711H41.8624V26.7114H30.9092V12.1571L22.5067 20.3345H19.5058L11.0283 12.0821V27.0865H0V0.678711Z" fill="black"/>
<path d="M45.0127 0.678711H73.6712V7.0556H55.9659V10.5066H70.9704V16.5084H55.9659V20.2595H73.8963V26.7114H45.0127V0.678711Z" fill="black"/>
<path d="M83.3489 25.4375C80.4904 24.4062 77.9187 22.7089 75.8467 20.486C74.0367 18.6731 73.0126 16.2207 72.9958 13.659C72.9485 11.1058 73.8892 8.63299 75.6216 6.75691C77.7388 4.58809 80.2973 2.89949 83.1239 1.80544C86.6621 0.548287 90.3978 -0.0616177 94.1521 0.00491089C97.0947 -0.00232096 100.024 0.401705 102.855 1.20527C105.534 1.91929 108.071 3.08647 110.357 4.65629C112.257 5.88759 113.623 7.78943 114.183 9.98287H103.08C102.082 8.81048 100.786 7.92923 99.3287 7.43211C97.5613 6.85603 95.7107 6.57716 93.852 6.60687C92.1151 6.56367 90.3853 6.8435 88.7505 7.43211C87.3356 7.89565 86.0677 8.72365 85.0744 9.83282C84.1704 10.8995 83.6898 12.2611 83.724 13.659C83.6853 15.0802 84.1653 16.467 85.0744 17.5601C86.0745 18.6614 87.3401 19.4879 88.7505 19.9608C90.3973 20.4934 92.1216 20.747 93.852 20.7111C95.6261 20.7427 97.3953 20.5153 99.1036 20.0359C100.344 19.6743 101.41 18.8745 102.104 17.7852H93.4019V12.1585H114.483C114.758 15.0252 114.072 17.902 112.533 20.3359C110.629 22.7977 108.007 24.6067 105.03 25.5125C101.419 26.79 97.6063 27.4001 93.777 27.313C90.214 27.3485 86.6763 26.7122 83.3489 25.4375V25.4375Z" fill="black"/>
<path d="M139.99 26.7114L137.889 23.1854H122.885L120.784 26.7114H109.23L125.285 0.678711H135.488L151.618 26.7114H139.99ZM126.336 17.1836H134.438L130.762 10.9568V9.98147V10.9568L126.336 17.1836Z" fill="black"/>
<path d="M178.327 0.680677C182.119 0.604621 185.898 1.16246 189.506 2.33117C192.38 3.13648 194.976 4.72017 197.008 6.90752C198.752 8.72151 199.72 11.1433 199.709 13.6595C199.715 16.1828 198.778 18.6174 197.083 20.4866C194.999 22.6082 192.421 24.1805 189.581 25.0629C185.964 26.1954 182.192 26.7524 178.402 26.7134H161.522V0.680677H178.327ZM185.83 18.611C186.668 18.1029 187.362 17.3873 187.843 16.533C188.324 15.6788 188.577 14.715 188.577 13.7346C188.577 12.7541 188.324 11.7903 187.843 10.9361C187.362 10.0818 186.668 9.36615 185.83 8.8581C183.454 7.52475 180.747 6.89992 178.027 7.05757H172.551V20.3365H178.177C180.861 20.4636 183.53 19.8676 185.905 18.611H185.83Z" fill="black"/>
<path d="M200.531 0.678711H229.19V7.0556H211.485V10.5066H226.489V16.5084H211.485V20.2595H229.415V26.7114H200.531V0.678711Z" fill="black"/>
<path d="M230.623 0.678711H240.076L256.806 15.008V0.678711H267.759V26.7114H258.231L241.576 12.3072V26.7114H230.623V0.678711Z" fill="black"/>
<path d="M278.785 7.0556H268.356V0.678711H300.091V7.0556H289.588V26.7114H278.785V7.0556Z" fill="black"/>
<rect x="72.166" y="39.7324" width="154.874" height="32.605" rx="6.79271" fill="#E3EEFF"/>
<path d="M89.2758 61.9902C88.0758 61.9902 87.048 61.7291 86.1925 61.2069C85.3369 60.6791 84.6786 59.9458 84.2175 59.0069C83.7619 58.0681 83.5342 56.9792 83.5342 55.7403C83.5342 54.5014 83.7619 53.4126 84.2175 52.4737C84.6786 51.5348 85.3369 50.8043 86.1925 50.2821C87.048 49.7543 88.0758 49.4904 89.2758 49.4904C90.6591 49.4904 91.8118 49.8376 92.734 50.5321C93.6563 51.2209 94.3035 52.1515 94.6757 53.3237L92.6507 53.882C92.4174 53.0987 92.0202 52.4876 91.4591 52.0487C90.898 51.6043 90.1702 51.382 89.2758 51.382C88.4702 51.382 87.798 51.5626 87.2591 51.9237C86.7258 52.2848 86.323 52.7931 86.0508 53.4487C85.7841 54.0987 85.648 54.8626 85.6425 55.7403C85.6425 56.6181 85.7758 57.3847 86.0425 58.0403C86.3147 58.6903 86.7202 59.1958 87.2591 59.5569C87.798 59.918 88.4702 60.0986 89.2758 60.0986C90.1702 60.0986 90.898 59.8764 91.4591 59.4319C92.0202 58.9875 92.4174 58.3764 92.6507 57.5986L94.6757 58.157C94.3035 59.3292 93.6563 60.2625 92.734 60.9569C91.8118 61.6458 90.6591 61.9902 89.2758 61.9902ZM98.7636 61.7402V54.5237H95.7554V52.7404H103.78V54.5237H100.772V61.7402H98.7636ZM109.172 61.9902C108.272 61.9902 107.485 61.7875 106.813 61.3819C106.141 60.9764 105.619 60.418 105.247 59.7069C104.88 58.9903 104.697 58.1681 104.697 57.2403C104.697 56.2959 104.886 55.4681 105.263 54.757C105.641 54.0459 106.166 53.4903 106.838 53.0904C107.51 52.6904 108.288 52.4904 109.172 52.4904C110.077 52.4904 110.866 52.6931 111.538 53.0987C112.21 53.5042 112.733 54.0653 113.105 54.782C113.477 55.4931 113.663 56.3125 113.663 57.2403C113.663 58.1736 113.474 58.9986 113.097 59.7153C112.724 60.4264 112.202 60.9847 111.53 61.3902C110.858 61.7902 110.072 61.9902 109.172 61.9902ZM109.172 60.1069C109.972 60.1069 110.566 59.8403 110.955 59.3069C111.344 58.7736 111.538 58.0847 111.538 57.2403C111.538 56.3681 111.341 55.6737 110.947 55.157C110.552 54.6348 109.96 54.3737 109.172 54.3737C108.633 54.3737 108.188 54.4959 107.838 54.7403C107.494 54.9792 107.238 55.3153 107.072 55.7487C106.905 56.1764 106.822 56.6736 106.822 57.2403C106.822 58.1125 107.019 58.8097 107.413 59.3319C107.813 59.8486 108.399 60.1069 109.172 60.1069ZM115.483 61.7402V52.7404H117.133L120.357 58.9569L123.591 52.7404H125.232V61.7402H123.316V56.782L120.757 61.7402H119.966L117.408 56.782V61.7402H115.483ZM130.076 61.9902C129.426 61.9902 128.876 61.868 128.426 61.6236C127.976 61.3736 127.635 61.043 127.401 60.6319C127.173 60.2208 127.06 59.768 127.06 59.2736C127.06 58.8403 127.132 58.4514 127.276 58.107C127.421 57.757 127.643 57.457 127.943 57.207C128.243 56.9514 128.632 56.7431 129.11 56.582C129.471 56.4653 129.893 56.3598 130.376 56.2653C130.865 56.1709 131.393 56.0848 131.96 56.007C132.532 55.9236 133.129 55.8348 133.751 55.7403L133.035 56.1486C133.04 55.5264 132.901 55.0681 132.618 54.7737C132.335 54.4792 131.857 54.332 131.185 54.332C130.779 54.332 130.387 54.4264 130.01 54.6153C129.632 54.8042 129.368 55.1292 129.218 55.5903L127.385 55.0153C127.607 54.2542 128.029 53.6431 128.651 53.182C129.279 52.7209 130.123 52.4904 131.185 52.4904C131.985 52.4904 132.687 52.6209 133.293 52.882C133.904 53.1431 134.357 53.5709 134.651 54.1653C134.812 54.482 134.91 54.807 134.943 55.1403C134.976 55.4681 134.993 55.8264 134.993 56.2153V61.7402H133.235V59.7903L133.526 60.1069C133.121 60.7569 132.646 61.2347 132.101 61.5402C131.562 61.8402 130.887 61.9902 130.076 61.9902ZM130.476 60.3903C130.932 60.3903 131.321 60.3097 131.643 60.1486C131.965 59.9875 132.221 59.7903 132.41 59.5569C132.604 59.3236 132.735 59.1042 132.801 58.8986C132.907 58.6431 132.965 58.3514 132.976 58.0236C132.993 57.6903 133.001 57.4208 133.001 57.2153L133.618 57.3986C133.012 57.4931 132.493 57.5764 132.06 57.6486C131.626 57.7208 131.254 57.7903 130.943 57.857C130.632 57.9181 130.357 57.9875 130.118 58.0653C129.885 58.1486 129.687 58.2458 129.526 58.3569C129.365 58.4681 129.24 58.5958 129.151 58.7403C129.068 58.8847 129.026 59.0542 129.026 59.2486C129.026 59.4708 129.082 59.668 129.193 59.8403C129.304 60.0069 129.465 60.1403 129.676 60.2403C129.893 60.3403 130.16 60.3903 130.476 60.3903ZM139.421 61.7402V54.5237H136.412V52.7404H144.437V54.5237H141.429V61.7402H139.421ZM148.321 61.9902C147.671 61.9902 147.121 61.868 146.671 61.6236C146.221 61.3736 145.88 61.043 145.646 60.6319C145.419 60.2208 145.305 59.768 145.305 59.2736C145.305 58.8403 145.377 58.4514 145.521 58.107C145.666 57.757 145.888 57.457 146.188 57.207C146.488 56.9514 146.877 56.7431 147.355 56.582C147.716 56.4653 148.138 56.3598 148.621 56.2653C149.11 56.1709 149.638 56.0848 150.205 56.007C150.777 55.9236 151.374 55.8348 151.996 55.7403L151.28 56.1486C151.285 55.5264 151.146 55.0681 150.863 54.7737C150.58 54.4792 150.102 54.332 149.43 54.332C149.024 54.332 148.633 54.4264 148.255 54.6153C147.877 54.8042 147.613 55.1292 147.463 55.5903L145.63 55.0153C145.852 54.2542 146.274 53.6431 146.896 53.182C147.524 52.7209 148.369 52.4904 149.43 52.4904C150.23 52.4904 150.932 52.6209 151.538 52.882C152.149 53.1431 152.602 53.5709 152.896 54.1653C153.057 54.482 153.155 54.807 153.188 55.1403C153.221 55.4681 153.238 55.8264 153.238 56.2153V61.7402H151.48V59.7903L151.771 60.1069C151.366 60.7569 150.891 61.2347 150.346 61.5402C149.808 61.8402 149.133 61.9902 148.321 61.9902ZM148.721 60.3903C149.177 60.3903 149.566 60.3097 149.888 60.1486C150.21 59.9875 150.466 59.7903 150.655 59.5569C150.849 59.3236 150.98 59.1042 151.046 58.8986C151.152 58.6431 151.21 58.3514 151.221 58.0236C151.238 57.6903 151.246 57.4208 151.246 57.2153L151.863 57.3986C151.257 57.4931 150.738 57.5764 150.305 57.6486C149.871 57.7208 149.499 57.7903 149.188 57.857C148.877 57.9181 148.602 57.9875 148.363 58.0653C148.13 58.1486 147.933 58.2458 147.771 58.3569C147.61 58.4681 147.485 58.5958 147.396 58.7403C147.313 58.8847 147.271 59.0542 147.271 59.2486C147.271 59.4708 147.327 59.668 147.438 59.8403C147.549 60.0069 147.71 60.1403 147.921 60.2403C148.138 60.3403 148.405 60.3903 148.721 60.3903ZM154.574 61.7402V60.0569C154.902 60.118 155.155 60.1125 155.333 60.0403C155.51 59.9625 155.644 59.818 155.733 59.6069C155.821 59.3958 155.899 59.1153 155.966 58.7653C156.055 58.2708 156.133 57.7014 156.199 57.057C156.271 56.4125 156.333 55.7237 156.383 54.9903C156.438 54.257 156.488 53.507 156.533 52.7404H163.157V61.7402H161.157V54.6237H158.299C158.271 54.9848 158.238 55.3903 158.199 55.8403C158.16 56.2848 158.119 56.7347 158.074 57.1903C158.03 57.6458 157.98 58.0792 157.924 58.4903C157.874 58.8958 157.821 59.243 157.766 59.5319C157.638 60.1819 157.455 60.6958 157.216 61.0736C156.983 61.4513 156.655 61.693 156.233 61.7986C155.81 61.9097 155.258 61.8902 154.574 61.7402ZM169.473 61.9902C168.573 61.9902 167.787 61.7875 167.115 61.3819C166.443 60.9764 165.921 60.418 165.549 59.7069C165.182 58.9903 164.999 58.1681 164.999 57.2403C164.999 56.2959 165.187 55.4681 165.565 54.757C165.943 54.0459 166.468 53.4903 167.14 53.0904C167.812 52.6904 168.59 52.4904 169.473 52.4904C170.379 52.4904 171.168 52.6931 171.84 53.0987C172.512 53.5042 173.035 54.0653 173.407 54.782C173.779 55.4931 173.965 56.3125 173.965 57.2403C173.965 58.1736 173.776 58.9986 173.398 59.7153C173.026 60.4264 172.504 60.9847 171.832 61.3902C171.16 61.7902 170.373 61.9902 169.473 61.9902ZM169.473 60.1069C170.273 60.1069 170.868 59.8403 171.257 59.3069C171.646 58.7736 171.84 58.0847 171.84 57.2403C171.84 56.3681 171.643 55.6737 171.248 55.157C170.854 54.6348 170.262 54.3737 169.473 54.3737C168.935 54.3737 168.49 54.4959 168.14 54.7403C167.796 54.9792 167.54 55.3153 167.374 55.7487C167.207 56.1764 167.124 56.6736 167.124 57.2403C167.124 58.1125 167.321 58.8097 167.715 59.3319C168.115 59.8486 168.701 60.1069 169.473 60.1069ZM175.801 61.7402V52.7404H182.218V54.6237H177.809V61.7402H175.801ZM187.621 61.9902C186.721 61.9902 185.935 61.7875 185.263 61.3819C184.59 60.9764 184.068 60.418 183.696 59.7069C183.329 58.9903 183.146 58.1681 183.146 57.2403C183.146 56.2959 183.335 55.4681 183.713 54.757C184.091 54.0459 184.615 53.4903 185.288 53.0904C185.96 52.6904 186.738 52.4904 187.621 52.4904C188.527 52.4904 189.315 52.6931 189.988 53.0987C190.66 53.5042 191.182 54.0653 191.554 54.782C191.927 55.4931 192.113 56.3125 192.113 57.2403C192.113 58.1736 191.924 58.9986 191.546 59.7153C191.174 60.4264 190.652 60.9847 189.979 61.3902C189.307 61.7902 188.521 61.9902 187.621 61.9902ZM187.621 60.1069C188.421 60.1069 189.015 59.8403 189.404 59.3069C189.793 58.7736 189.988 58.0847 189.988 57.2403C189.988 56.3681 189.79 55.6737 189.396 55.157C189.002 54.6348 188.41 54.3737 187.621 54.3737C187.082 54.3737 186.638 54.4959 186.288 54.7403C185.943 54.9792 185.688 55.3153 185.521 55.7487C185.354 56.1764 185.271 56.6736 185.271 57.2403C185.271 58.1125 185.468 58.8097 185.863 59.3319C186.263 59.8486 186.849 60.1069 187.621 60.1069ZM201.749 52.7404V61.7402H199.824V55.8653L195.54 61.7402H193.932V52.7404H195.857V58.4653L200.157 52.7404H201.749ZM209.472 61.7402V58.7403H207.863C207.658 58.7403 207.4 58.7347 207.088 58.7236C206.783 58.7125 206.497 58.6847 206.23 58.6403C205.536 58.5125 204.961 58.2097 204.505 57.732C204.05 57.2486 203.822 56.5931 203.822 55.7653C203.822 54.9542 204.038 54.3014 204.472 53.807C204.905 53.3126 205.469 52.9959 206.163 52.857C206.452 52.7959 206.75 52.7626 207.055 52.757C207.366 52.7459 207.625 52.7404 207.83 52.7404H211.48V61.7402H209.472ZM203.588 61.7402L205.738 58.2986H207.83L205.697 61.7402H203.588ZM207.655 57.1653H209.472V54.3153H207.655C207.55 54.3153 207.422 54.3209 207.272 54.332C207.122 54.3431 206.972 54.3681 206.822 54.407C206.661 54.457 206.508 54.5431 206.363 54.6653C206.219 54.7876 206.1 54.9403 206.005 55.1237C205.911 55.307 205.863 55.5153 205.863 55.7487C205.863 56.0986 205.963 56.3903 206.163 56.6236C206.369 56.8514 206.608 57.0042 206.88 57.082C207.013 57.1153 207.15 57.1375 207.288 57.1486C207.433 57.1597 207.555 57.1653 207.655 57.1653Z" fill="#5C9DFF"/>
</svg>
