<svg width="184" height="51" viewBox="0 0 184 51" fill="none" xmlns="http://www.w3.org/2000/svg">
<path d="M0 0.733398H5.93103L12.7816 7.07823L19.7701 0.733398H25.6552V16.6874H18.9425V7.76788L13.7931 12.7794H11.954L6.75862 7.7219V16.9173H0V0.733398Z" fill="black"/>
<path d="M27.5869 0.733398H45.1501V4.64144H34.2996V6.75639H43.495V10.4345H34.2996V12.7334H45.2881V16.6874H27.5869V0.733398Z" fill="black"/>
<path d="M51.0812 15.9056C49.3294 15.2736 47.7533 14.2334 46.4835 12.8711C45.3742 11.7601 44.7467 10.2572 44.7364 8.68723C44.7074 7.12253 45.2839 5.60709 46.3456 4.45735C47.6431 3.12819 49.2111 2.09334 50.9433 1.42286C53.1117 0.652421 55.4011 0.278644 57.7019 0.319416C59.5053 0.314984 61.3004 0.562589 63.0352 1.05505C64.6772 1.49263 66.2322 2.20793 67.633 3.16999C68.7972 3.92459 69.6344 5.09012 69.9778 6.43436H63.1732C62.5616 5.71586 61.7673 5.17579 60.8743 4.87114C59.7912 4.51809 58.6571 4.34719 57.518 4.36539C56.4535 4.33892 55.3934 4.51041 54.3916 4.87114C53.5244 5.15521 52.7474 5.66265 52.1387 6.3424C51.5847 6.9961 51.2901 7.83059 51.3111 8.68723C51.2874 9.55824 51.5816 10.4081 52.1387 11.078C52.7516 11.7529 53.5272 12.2595 54.3916 12.5493C55.4008 12.8757 56.4575 13.0311 57.518 13.0091C58.6052 13.0285 59.6895 12.8891 60.7364 12.5953C61.4964 12.3737 62.15 11.8835 62.5755 11.216H57.2421V7.76769H70.1617C70.3303 9.52455 69.9097 11.2876 68.9663 12.7792C67.7998 14.2878 66.193 15.3965 64.3686 15.9516C62.1557 16.7345 59.8188 17.1084 57.472 17.055C55.2885 17.0768 53.1204 16.6869 51.0812 15.9056Z" fill="black"/>
<path d="M85.7939 16.6874L84.5066 14.5265H75.3112L74.0238 16.6874H66.9434L76.7824 0.733398H83.0353L92.9204 16.6874H85.7939ZM77.4261 10.8483H82.3916L80.1388 7.03225V6.43455V7.03225L77.4261 10.8483Z" fill="black"/>
<path d="M109.286 0.73369C111.61 0.687079 113.925 1.02895 116.137 1.74518C117.898 2.23872 119.489 3.20927 120.734 4.54978C121.803 5.66148 122.397 7.14568 122.39 8.68771C122.393 10.2341 121.819 11.7261 120.78 12.8716C119.503 14.1719 117.923 15.1354 116.183 15.6762C113.966 16.3703 111.655 16.7116 109.332 16.6877H98.9873V0.73369H109.286ZM113.884 11.7222C114.398 11.4108 114.823 10.9722 115.118 10.4487C115.412 9.92524 115.567 9.33454 115.567 8.73369C115.567 8.13284 115.412 7.54214 115.118 7.01864C114.823 6.49515 114.398 6.05654 113.884 5.74518C112.428 4.92805 110.769 4.54512 109.102 4.64174H105.746V12.7797H109.194C110.839 12.8575 112.474 12.4923 113.93 11.7222H113.884Z" fill="black"/>
<path d="M122.896 0.733398H140.46V4.64144H129.609V6.75639H138.805V10.4345H129.609V12.7334H140.598V16.6874H122.896V0.733398Z" fill="black"/>
<path d="M141.335 0.733398H147.128L157.381 9.51501V0.733398H164.094V16.6874H158.254L148.048 7.85984V16.6874H141.335V0.733398Z" fill="black"/>
<path d="M170.851 4.64144H164.46V0.733398H183.908V4.64144H177.471V16.6874H170.851V4.64144Z" fill="black"/>
<rect x="0.35" y="26.6703" width="183.3" height="23.3" rx="4.65" stroke="black" stroke-width="0.7"/>
<path d="M47.2803 42.5043C46.397 42.5043 45.6405 42.3121 45.0108 41.9277C44.381 41.5393 43.8964 40.9995 43.557 40.3084C43.2217 39.6173 43.054 38.8158 43.054 37.9039C43.054 36.992 43.2217 36.1905 43.557 35.4994C43.8964 34.8083 44.381 34.2705 45.0108 33.8861C45.6405 33.4977 46.397 33.3034 47.2803 33.3034C48.2986 33.3034 49.1471 33.559 49.8259 34.0702C50.5047 34.5772 50.9811 35.2622 51.2551 36.125L49.7646 36.536C49.5928 35.9594 49.3004 35.5096 48.8874 35.1865C48.4744 34.8594 47.9387 34.6958 47.2803 34.6958C46.6874 34.6958 46.1926 34.8287 45.7959 35.0945C45.4033 35.3603 45.1069 35.7345 44.9065 36.217C44.7102 36.6955 44.61 37.2578 44.6059 37.9039C44.6059 38.55 44.7041 39.1143 44.9003 39.5968C45.1007 40.0753 45.3992 40.4474 45.7959 40.7132C46.1926 40.979 46.6874 41.1119 47.2803 41.1119C47.9387 41.1119 48.4744 40.9484 48.8874 40.6212C49.3004 40.2941 49.5928 39.8442 49.7646 39.2717L51.2551 39.6827C50.9811 40.5456 50.5047 41.2326 49.8259 41.7437C49.1471 42.2508 48.2986 42.5043 47.2803 42.5043ZM54.2642 42.3203V37.0083H52.0498V35.6957H57.9568V37.0083H55.7425V42.3203H54.2642ZM61.9253 42.5043C61.2628 42.5043 60.6842 42.3551 60.1894 42.0566C59.6946 41.758 59.3102 41.3471 59.0362 40.8236C58.7663 40.2961 58.6314 39.6909 58.6314 39.008C58.6314 38.3128 58.7704 37.7035 59.0485 37.1801C59.3266 36.6566 59.713 36.2477 60.2078 35.9533C60.7026 35.6588 61.2751 35.5116 61.9253 35.5116C62.5919 35.5116 63.1725 35.6609 63.6673 35.9594C64.1621 36.2579 64.5465 36.6709 64.8205 37.1985C65.0945 37.7219 65.2315 38.3251 65.2315 39.008C65.2315 39.695 65.0925 40.3022 64.8144 40.8298C64.5404 41.3532 64.156 41.7642 63.6612 42.0627C63.1664 42.3571 62.5878 42.5043 61.9253 42.5043ZM61.9253 41.1181C62.5142 41.1181 62.9517 40.9218 63.238 40.5292C63.5242 40.1366 63.6673 39.6296 63.6673 39.008C63.6673 38.366 63.5222 37.8548 63.2318 37.4745C62.9415 37.0901 62.506 36.8979 61.9253 36.8979C61.5286 36.8979 61.2015 36.9879 60.9439 37.1678C60.6903 37.3436 60.5022 37.591 60.3795 37.91C60.2569 38.2249 60.1955 38.5909 60.1955 39.008C60.1955 39.65 60.3407 40.1632 60.631 40.5476C60.9255 40.9279 61.3569 41.1181 61.9253 41.1181ZM66.5707 42.3203V35.6957H67.7852L70.1591 40.2716L72.539 35.6957H73.7474V42.3203H72.3366V38.6706L70.4535 42.3203H69.8708L67.9876 38.6706V42.3203H66.5707ZM77.3129 42.5043C76.8344 42.5043 76.4296 42.4144 76.0984 42.2344C75.7671 42.0504 75.5156 41.8071 75.3439 41.5045C75.1762 41.2019 75.0924 40.8686 75.0924 40.5047C75.0924 40.1857 75.1455 39.8994 75.2519 39.6459C75.3582 39.3883 75.5218 39.1675 75.7426 38.9834C75.9634 38.7953 76.2497 38.642 76.6013 38.5234C76.8671 38.4375 77.1779 38.3598 77.5337 38.2903C77.8936 38.2208 78.282 38.1574 78.6991 38.1002C79.1203 38.0388 79.5599 37.9734 80.0179 37.9039L79.4904 38.2044C79.4945 37.7464 79.3923 37.4091 79.1837 37.1923C78.9752 36.9756 78.6235 36.8672 78.1287 36.8672C77.8302 36.8672 77.5419 36.9368 77.2638 37.0758C76.9857 37.2148 76.7915 37.454 76.6811 37.7935L75.3316 37.3702C75.4952 36.81 75.806 36.3602 76.264 36.0208C76.7261 35.6813 77.3476 35.5116 78.1287 35.5116C78.7175 35.5116 79.2348 35.6077 79.6806 35.7999C80.1304 35.9921 80.4637 36.307 80.6804 36.7446C80.799 36.9776 80.8706 37.2169 80.8951 37.4622C80.9196 37.7035 80.9319 37.9673 80.9319 38.2535V42.3203H79.6376V40.885L79.8523 41.1181C79.5538 41.5965 79.2042 41.9482 78.8034 42.1731C78.4068 42.3939 77.9099 42.5043 77.3129 42.5043ZM77.6073 41.3266C77.9426 41.3266 78.2289 41.2673 78.4661 41.1487C78.7032 41.0301 78.8913 40.885 79.0304 40.7132C79.1735 40.5415 79.2696 40.3799 79.3187 40.2286C79.3964 40.0405 79.4393 39.8258 79.4475 39.5846C79.4598 39.3392 79.4659 39.1409 79.4659 38.9896L79.9198 39.1245C79.4741 39.194 79.0917 39.2554 78.7728 39.3085C78.4538 39.3617 78.1798 39.4128 77.9508 39.4619C77.7218 39.5069 77.5194 39.558 77.3435 39.6152C77.1718 39.6766 77.0266 39.7481 76.908 39.8299C76.7894 39.9117 76.6974 40.0058 76.632 40.1121C76.5707 40.2184 76.54 40.3431 76.54 40.4863C76.54 40.6498 76.5809 40.795 76.6627 40.9218C76.7445 41.0445 76.8631 41.1426 77.0184 41.2162C77.1779 41.2898 77.3742 41.3266 77.6073 41.3266ZM84.1911 42.3203V37.0083H81.9768V35.6957H87.8838V37.0083H85.6694V42.3203H84.1911ZM90.7429 42.5043C90.2644 42.5043 89.8596 42.4144 89.5283 42.2344C89.1971 42.0504 88.9456 41.8071 88.7739 41.5045C88.6062 41.2019 88.5224 40.8686 88.5224 40.5047C88.5224 40.1857 88.5755 39.8994 88.6819 39.6459C88.7882 39.3883 88.9517 39.1675 89.1726 38.9834C89.3934 38.7953 89.6796 38.642 90.0313 38.5234C90.2971 38.4375 90.6079 38.3598 90.9637 38.2903C91.3235 38.2208 91.712 38.1574 92.1291 38.1002C92.5503 38.0388 92.9899 37.9734 93.4479 37.9039L92.9204 38.2044C92.9245 37.7464 92.8223 37.4091 92.6137 37.1923C92.4052 36.9756 92.0535 36.8672 91.5587 36.8672C91.2602 36.8672 90.9719 36.9368 90.6938 37.0758C90.4157 37.2148 90.2215 37.454 90.1111 37.7935L88.7616 37.3702C88.9252 36.81 89.236 36.3602 89.694 36.0208C90.156 35.6813 90.7776 35.5116 91.5587 35.5116C92.1475 35.5116 92.6648 35.6077 93.1106 35.7999C93.5604 35.9921 93.8937 36.307 94.1104 36.7446C94.229 36.9776 94.3005 37.2169 94.3251 37.4622C94.3496 37.7035 94.3619 37.9673 94.3619 38.2535V42.3203H93.0676V40.885L93.2823 41.1181C92.9838 41.5965 92.6342 41.9482 92.2334 42.1731C91.8367 42.3939 91.3399 42.5043 90.7429 42.5043ZM91.0373 41.3266C91.3726 41.3266 91.6589 41.2673 91.896 41.1487C92.1332 41.0301 92.3213 40.885 92.4604 40.7132C92.6035 40.5415 92.6996 40.3799 92.7487 40.2286C92.8264 40.0405 92.8693 39.8258 92.8775 39.5846C92.8897 39.3392 92.8959 39.1409 92.8959 38.9896L93.3498 39.1245C92.9041 39.194 92.5217 39.2554 92.2027 39.3085C91.8838 39.3617 91.6098 39.4128 91.3808 39.4619C91.1518 39.5069 90.9494 39.558 90.7735 39.6152C90.6018 39.6766 90.4566 39.7481 90.338 39.8299C90.2194 39.9117 90.1274 40.0058 90.062 40.1121C90.0007 40.2184 89.97 40.3431 89.97 40.4863C89.97 40.6498 90.0109 40.795 90.0927 40.9218C90.1744 41.0445 90.293 41.1426 90.4484 41.2162C90.6079 41.2898 90.8042 41.3266 91.0373 41.3266ZM95.3454 42.3203V41.0813C95.5867 41.1262 95.7728 41.1221 95.9036 41.069C96.0345 41.0117 96.1326 40.9054 96.198 40.75C96.2635 40.5946 96.3207 40.3881 96.3698 40.1305C96.4352 39.7665 96.4925 39.3474 96.5415 38.873C96.5947 38.3987 96.6397 37.8916 96.6765 37.3518C96.7174 36.812 96.7542 36.26 96.7869 35.6957H101.663V42.3203H100.191V37.0819H98.0873C98.0669 37.3477 98.0423 37.6462 98.0137 37.9775C97.9851 38.3046 97.9544 38.6359 97.9217 38.9712C97.889 39.3065 97.8522 39.6255 97.8113 39.9281C97.7745 40.2266 97.7356 40.4822 97.6947 40.6948C97.6007 41.1733 97.4657 41.5515 97.2899 41.8296C97.1181 42.1077 96.8769 42.2856 96.5661 42.3633C96.2553 42.445 95.8484 42.4307 95.3454 42.3203ZM106.313 42.5043C105.65 42.5043 105.071 42.3551 104.577 42.0566C104.082 41.758 103.697 41.3471 103.423 40.8236C103.154 40.2961 103.019 39.6909 103.019 39.008C103.019 38.3128 103.158 37.7035 103.436 37.1801C103.714 36.6566 104.1 36.2477 104.595 35.9533C105.09 35.6588 105.662 35.5116 106.313 35.5116C106.979 35.5116 107.56 35.6609 108.055 35.9594C108.549 36.2579 108.934 36.6709 109.208 37.1985C109.482 37.7219 109.619 38.3251 109.619 39.008C109.619 39.695 109.48 40.3022 109.202 40.8298C108.928 41.3532 108.543 41.7642 108.048 42.0627C107.554 42.3571 106.975 42.5043 106.313 42.5043ZM106.313 41.1181C106.901 41.1181 107.339 40.9218 107.625 40.5292C107.911 40.1366 108.055 39.6296 108.055 39.008C108.055 38.366 107.909 37.8548 107.619 37.4745C107.329 37.0901 106.893 36.8979 106.313 36.8979C105.916 36.8979 105.589 36.9879 105.331 37.1678C105.078 37.3436 104.889 37.591 104.767 37.91C104.644 38.2249 104.583 38.5909 104.583 39.008C104.583 39.65 104.728 40.1632 105.018 40.5476C105.313 40.9279 105.744 41.1181 106.313 41.1181ZM110.97 42.3203V35.6957H115.693V37.0819H112.448V42.3203H110.97ZM119.671 42.5043C119.008 42.5043 118.43 42.3551 117.935 42.0566C117.44 41.758 117.056 41.3471 116.782 40.8236C116.512 40.2961 116.377 39.6909 116.377 39.008C116.377 38.3128 116.516 37.7035 116.794 37.1801C117.072 36.6566 117.458 36.2477 117.953 35.9533C118.448 35.6588 119.02 35.5116 119.671 35.5116C120.337 35.5116 120.918 35.6609 121.413 35.9594C121.907 36.2579 122.292 36.6709 122.566 37.1985C122.84 37.7219 122.977 38.3251 122.977 39.008C122.977 39.695 122.838 40.3022 122.56 40.8298C122.286 41.3532 121.901 41.7642 121.407 42.0627C120.912 42.3571 120.333 42.5043 119.671 42.5043ZM119.671 41.1181C120.259 41.1181 120.697 40.9218 120.983 40.5292C121.27 40.1366 121.413 39.6296 121.413 39.008C121.413 38.366 121.268 37.8548 120.977 37.4745C120.687 37.0901 120.251 36.8979 119.671 36.8979C119.274 36.8979 118.947 36.9879 118.689 37.1678C118.436 37.3436 118.248 37.591 118.125 37.91C118.002 38.2249 117.941 38.5909 117.941 39.008C117.941 39.65 118.086 40.1632 118.376 40.5476C118.671 40.9279 119.102 41.1181 119.671 41.1181ZM130.07 35.6957V42.3203H128.653V37.9959L125.5 42.3203H124.316V35.6957H125.733V39.9097L128.898 35.6957H130.07ZM135.755 42.3203V40.1121H134.571C134.419 40.1121 134.229 40.108 134 40.0998C133.775 40.0916 133.565 40.0712 133.368 40.0385C132.857 39.9444 132.434 39.7216 132.099 39.3699C131.763 39.0141 131.596 38.5316 131.596 37.9223C131.596 37.3252 131.755 36.8447 132.074 36.4808C132.393 36.1169 132.808 35.8838 133.319 35.7815C133.532 35.7365 133.751 35.712 133.976 35.7079C134.205 35.6997 134.395 35.6957 134.546 35.6957H137.233V42.3203H135.755ZM131.424 42.3203L133.007 39.787H134.546L132.976 42.3203H131.424ZM134.417 38.9528H135.755V36.855H134.417C134.34 36.855 134.246 36.8591 134.135 36.8672C134.025 36.8754 133.914 36.8938 133.804 36.9224C133.685 36.9592 133.573 37.0226 133.467 37.1126C133.36 37.2026 133.272 37.315 133.203 37.45C133.133 37.5849 133.099 37.7383 133.099 37.91C133.099 38.1676 133.172 38.3823 133.319 38.5541C133.471 38.7217 133.647 38.8342 133.847 38.8914C133.945 38.916 134.045 38.9323 134.148 38.9405C134.254 38.9487 134.344 38.9528 134.417 38.9528Z" fill="black"/>
</svg>
