<svg width="198" height="53" viewBox="0 0 198 53" fill="none" xmlns="http://www.w3.org/2000/svg">
<rect opacity="0.5" x="90.4697" y="27.3496" width="107.53" height="25.3012" rx="5.37132" fill="#E3EEFF"/>
<path d="M0 0.449219H6.3715L13.7308 7.26524L21.2383 0.449219H27.5604V17.5881H20.3493V8.00611L14.8174 13.3898H12.8418L7.26054 7.95672V17.835H0V0.449219Z" fill="#131313"/>
<path d="M29.6348 0.449219H48.5023V4.64749H36.8459V6.9195H46.7242V10.8708H36.8459V13.3404H48.6505V17.5881H29.6348V0.449219Z" fill="#131313"/>
<path d="M54.8748 16.7469C52.9928 16.068 51.2997 14.9506 49.9356 13.4871C48.744 12.2935 48.0698 10.679 48.0587 8.99248C48.0276 7.31157 48.6469 5.6836 49.7874 4.44846C51.1813 3.0206 52.8657 1.9089 54.7266 1.18863C57.056 0.360969 59.5154 -0.0405665 61.9871 0.00323312C63.9244 -0.00152802 65.8529 0.264465 67.7165 0.793496C69.4805 1.26358 71.1509 2.032 72.6557 3.0655C73.9064 3.87614 74.8058 5.12823 75.1747 6.5723H67.8647C67.2077 5.80044 66.3545 5.22027 65.3951 4.89299C64.2316 4.51372 63.0132 4.33012 61.7896 4.34968C60.646 4.32124 59.5072 4.50547 58.4309 4.89299C57.4994 5.19816 56.6647 5.74328 56.0108 6.47351C55.4156 7.17575 55.0992 8.07222 55.1217 8.99248C55.0962 9.92817 55.4122 10.8411 56.0108 11.5608C56.6692 12.2859 57.5024 12.83 58.4309 13.1414C59.5151 13.492 60.6503 13.6589 61.7896 13.6353C62.9575 13.6561 64.1223 13.5064 65.247 13.1908C66.0634 12.9527 66.7655 12.4261 67.2226 11.709H61.4932V8.00465H75.3722C75.5533 9.89198 75.1015 11.7859 74.088 13.3883C72.8349 15.009 71.1088 16.2 69.1489 16.7963C66.7716 17.6374 64.2612 18.0391 61.7402 17.9817C59.3945 18.0051 57.0653 17.5862 54.8748 16.7469Z" fill="#131313"/>
<path d="M92.1636 17.5881L90.7806 15.2667H80.9023L79.5194 17.5881H71.9131L82.4829 0.449219H89.2001L99.8193 17.5881H92.1636ZM83.1743 11.3153H88.5086L86.0884 7.21585V6.57376V7.21585L83.1743 11.3153Z" fill="#131313"/>
<path d="M117.403 0.448845C119.899 0.398773 122.386 0.766029 124.762 1.53546C126.654 2.06564 128.364 3.10828 129.701 4.54834C130.849 5.74259 131.487 7.33702 131.479 8.99357C131.483 10.6548 130.866 12.2576 129.75 13.4882C128.378 14.885 126.681 15.9201 124.811 16.5011C122.43 17.2467 119.947 17.6134 117.452 17.5877H106.339V0.448845H117.403ZM122.342 12.2534C122.894 11.9189 123.35 11.4477 123.667 10.8854C123.984 10.323 124.15 9.68843 124.15 9.04296C124.15 8.39749 123.984 7.76292 123.667 7.20055C123.35 6.63817 122.894 6.16699 122.342 5.83251C120.778 4.95469 118.995 4.54333 117.205 4.64712H113.599V13.3894H117.304C119.071 13.4731 120.828 13.0807 122.391 12.2534H122.342Z" fill="#131313"/>
<path d="M132.021 0.449219H150.888V4.64749H139.232V6.9195H149.11V10.8708H139.232V13.3404H151.036V17.5881H132.021V0.449219Z" fill="#131313"/>
<path d="M151.832 0.449219H158.055L169.07 9.88299V0.449219H176.281V17.5881H170.008L159.043 8.1049V17.5881H151.832V0.449219Z" fill="#131313"/>
<path d="M183.54 4.64749H176.675V0.449219H197.567V4.64749H190.653V17.5881H183.54V4.64749Z" fill="#131313"/>
<path d="M103.754 44.1856C102.825 44.1856 102.03 43.9836 101.369 43.5797C100.707 43.1714 100.198 42.6042 99.8411 41.878C99.4887 41.1518 99.3125 40.3096 99.3125 39.3514C99.3125 38.3931 99.4887 37.5509 99.8411 36.8247C100.198 36.0985 100.707 35.5334 101.369 35.1295C102.03 34.7213 102.825 34.5172 103.754 34.5172C104.823 34.5172 105.715 34.7857 106.428 35.3229C107.142 35.8557 107.642 36.5755 107.93 37.4821L106.364 37.914C106.184 37.3081 105.876 36.8354 105.442 36.496C105.008 36.1522 104.445 35.9803 103.754 35.9803C103.13 35.9803 102.611 36.12 102.194 36.3993C101.781 36.6786 101.47 37.0718 101.259 37.5788C101.053 38.0816 100.948 38.6724 100.943 39.3514C100.943 40.0303 101.046 40.6233 101.253 41.1303C101.463 41.6331 101.777 42.0241 102.194 42.3034C102.611 42.5828 103.13 42.7224 103.754 42.7224C104.445 42.7224 105.008 42.5505 105.442 42.2068C105.876 41.863 106.184 41.3903 106.364 40.7887L107.93 41.2206C107.642 42.1273 107.142 42.8492 106.428 43.3863C105.715 43.9191 104.823 44.1856 103.754 44.1856ZM109.333 43.9922V37.031H115.379V43.9922H113.825V38.4877H110.886V43.9922H109.333ZM120.353 44.1856C119.649 44.1856 119.03 44.033 118.497 43.7279C117.964 43.4228 117.547 42.9996 117.246 42.4581C116.95 41.9167 116.802 41.2936 116.802 40.5889C116.802 39.8283 116.948 39.1687 117.24 38.6101C117.532 38.0472 117.938 37.6111 118.458 37.3017C118.978 36.9923 119.58 36.8376 120.263 36.8376C120.985 36.8376 121.597 37.0073 122.1 37.3468C122.607 37.682 122.983 38.1568 123.228 38.7713C123.473 39.3857 123.565 40.1098 123.505 40.9434H121.965V40.3762C121.96 39.6199 121.827 39.0678 121.565 38.7197C121.303 38.3716 120.89 38.1976 120.327 38.1976C119.691 38.1976 119.219 38.3953 118.909 38.7906C118.6 39.1816 118.445 39.7553 118.445 40.5116C118.445 41.2163 118.6 41.762 118.909 42.1487C119.219 42.5355 119.67 42.7289 120.263 42.7289C120.645 42.7289 120.974 42.6451 121.249 42.4775C121.528 42.3056 121.743 42.0585 121.894 41.7362L123.428 42.2003C123.161 42.8277 122.749 43.3154 122.19 43.6635C121.636 44.0115 121.024 44.1856 120.353 44.1856ZM117.955 40.9434V39.7703H122.745V40.9434H117.955ZM130.77 45.4553V43.9922H124.93V37.031H126.484V42.5355H129.423V37.031H130.976V42.6128H132.323V45.4553H130.77ZM139.386 37.031V43.9922H137.897V39.448L134.584 43.9922H133.34V37.031H134.829V41.4591L138.155 37.031H139.386ZM143.142 44.1856C142.64 44.1856 142.214 44.091 141.866 43.9019C141.518 43.7086 141.254 43.4529 141.073 43.1349C140.897 42.8169 140.809 42.4667 140.809 42.0843C140.809 41.7491 140.865 41.4483 140.977 41.1819C141.088 40.9112 141.26 40.6792 141.492 40.4858C141.724 40.2881 142.025 40.127 142.395 40.0024C142.674 39.9121 143 39.8305 143.374 39.7574C143.752 39.6844 144.161 39.6178 144.599 39.5576C145.042 39.4932 145.504 39.4244 145.985 39.3514L145.43 39.6672C145.435 39.1859 145.327 38.8314 145.108 38.6037C144.889 38.3759 144.52 38.2621 144 38.2621C143.686 38.2621 143.383 38.3351 143.091 38.4812C142.799 38.6273 142.594 38.8787 142.478 39.2353L141.06 38.7906C141.232 38.2019 141.559 37.7292 142.04 37.3726C142.526 37.0159 143.179 36.8376 144 36.8376C144.618 36.8376 145.162 36.9386 145.63 37.1405C146.103 37.3425 146.453 37.6734 146.681 38.1331C146.806 38.3781 146.881 38.6295 146.907 38.8873C146.932 39.1408 146.945 39.418 146.945 39.7188V43.9922H145.585V42.4839L145.811 42.7289C145.497 43.2316 145.13 43.6012 144.709 43.8375C144.292 44.0695 143.77 44.1856 143.142 44.1856ZM143.452 42.948C143.804 42.948 144.105 42.8857 144.354 42.7611C144.603 42.6365 144.801 42.4839 144.947 42.3034C145.097 42.123 145.198 41.9532 145.25 41.7942C145.332 41.5966 145.377 41.371 145.385 41.1175C145.398 40.8596 145.405 40.6512 145.405 40.4922L145.882 40.634C145.413 40.7071 145.012 40.7715 144.676 40.8274C144.341 40.8833 144.053 40.937 143.813 40.9885C143.572 41.0358 143.359 41.0895 143.175 41.1497C142.994 41.2141 142.842 41.2893 142.717 41.3753C142.592 41.4612 142.496 41.5601 142.427 41.6718C142.362 41.7835 142.33 41.9146 142.33 42.065C142.33 42.2368 142.373 42.3894 142.459 42.5226C142.545 42.6515 142.67 42.7546 142.833 42.832C143 42.9093 143.207 42.948 143.452 42.948ZM147.979 43.9922V42.6902C148.232 42.7374 148.428 42.7331 148.565 42.6773C148.703 42.6171 148.806 42.5054 148.875 42.3421C148.943 42.1788 149.004 41.9618 149.055 41.6911C149.124 41.3087 149.184 40.8682 149.236 40.3698C149.291 39.8713 149.339 39.3385 149.377 38.7713C149.42 38.2041 149.459 37.6239 149.493 37.031H154.618V43.9922H153.071V38.4877H150.86C150.838 38.767 150.813 39.0807 150.783 39.4287C150.752 39.7725 150.72 40.1205 150.686 40.4729C150.651 40.8253 150.613 41.1604 150.57 41.4784C150.531 41.7921 150.49 42.0607 150.447 42.2841C150.349 42.7869 150.207 43.1843 150.022 43.4765C149.841 43.7687 149.588 43.9557 149.261 44.0373C148.935 44.1232 148.507 44.1082 147.979 43.9922ZM162.462 37.031V43.9922H160.973V39.448L157.66 43.9922H156.416V37.031H157.905V41.4591L161.23 37.031H162.462ZM167.294 44.1856C166.577 44.1856 165.964 44.0266 165.457 43.7086C164.95 43.3863 164.561 42.948 164.291 42.3937C164.024 41.8394 163.889 41.212 163.885 40.5116C163.889 39.7983 164.029 39.1666 164.304 38.6166C164.583 38.0622 164.978 37.6282 165.49 37.3146C166.001 36.9966 166.609 36.8376 167.314 36.8376C168.104 36.8376 168.773 37.0374 169.318 37.437C169.868 37.8324 170.227 38.3738 170.395 39.0613L168.848 39.4803C168.727 39.1064 168.528 38.8164 168.248 38.6101C167.969 38.3996 167.651 38.2943 167.294 38.2943C166.89 38.2943 166.557 38.391 166.295 38.5843C166.033 38.7734 165.84 39.0355 165.715 39.3707C165.591 39.7059 165.528 40.0862 165.528 40.5116C165.528 41.1733 165.677 41.7083 165.973 42.1165C166.27 42.5247 166.71 42.7289 167.294 42.7289C167.707 42.7289 168.031 42.6343 168.268 42.4452C168.508 42.2562 168.689 41.9833 168.809 41.6267L170.395 41.9812C170.18 42.6902 169.804 43.2359 169.267 43.6183C168.73 43.9965 168.072 44.1856 167.294 44.1856ZM173.383 43.9922V38.4103H171.056V37.031H177.263V38.4103H174.936V43.9922H173.383ZM178.478 43.9922L178.472 37.031H180.025V39.3514H180.805C180.998 39.3514 181.215 39.3557 181.456 39.3643C181.701 39.3729 181.905 39.3922 182.068 39.4223C182.459 39.5082 182.792 39.6457 183.067 39.8348C183.347 40.0239 183.559 40.2709 183.705 40.576C183.851 40.8811 183.925 41.2485 183.925 41.6782C183.925 42.2927 183.766 42.7847 183.448 43.1543C183.13 43.5195 182.685 43.7687 182.113 43.9019C181.946 43.9406 181.737 43.9664 181.488 43.9793C181.239 43.9879 181.018 43.9922 180.824 43.9922H178.478ZM180.025 42.774H180.96C181.054 42.774 181.159 42.7697 181.275 42.7611C181.391 42.7525 181.501 42.7331 181.604 42.7031C181.797 42.6515 181.969 42.5355 182.12 42.355C182.27 42.1702 182.345 41.9446 182.345 41.6782C182.345 41.3989 182.27 41.169 182.12 40.9885C181.969 40.8081 181.785 40.6899 181.565 40.634C181.462 40.6083 181.357 40.5911 181.25 40.5825C181.146 40.5739 181.05 40.5696 180.96 40.5696H180.025V42.774ZM184.653 43.9922V37.031H186.206V43.9922H184.653Z" fill="#5C9DFF"/>
</svg>
