<svg width="307" height="24" viewBox="0 0 307 24" fill="none" xmlns="http://www.w3.org/2000/svg">
<rect x="193" width="114" height="24" rx="5" fill="#E3EEFF"/>
<path d="M0 4.41309H5.93103L12.7816 10.7579L19.7701 4.41309H25.6552V20.3671H18.9425V11.4476L13.7931 16.4591H11.954L6.75862 11.4016V20.597H0V4.41309Z" fill="#131313"/>
<path d="M27.5859 4.41309H45.1492V8.32113H34.2986V10.4361H43.494V14.1142H34.2986V16.4131H45.2871V20.3671H27.5859V4.41309Z" fill="#131313"/>
<path d="M51.0802 19.5863C49.3284 18.9543 47.7524 17.9141 46.4825 16.5518C45.3733 15.4408 44.7457 13.9379 44.7354 12.3679C44.7064 10.8032 45.2829 9.28776 46.3446 8.13801C47.6421 6.80886 49.2101 5.77401 50.9423 5.10353C53.1107 4.33309 55.4001 3.95931 57.7009 4.00008C59.5043 3.99565 61.2994 4.24325 63.0343 4.73571C64.6763 5.1733 66.2313 5.8886 67.632 6.85065C68.7962 7.60525 69.6334 8.77078 69.9768 10.115H63.1722C62.5606 9.39653 61.7664 8.85646 60.8734 8.5518C59.7902 8.19875 58.6561 8.02785 57.517 8.04606C56.4526 8.01958 55.3924 8.19108 54.3906 8.5518C53.5235 8.83588 52.7465 9.34332 52.1377 10.0231C51.5837 10.6768 51.2892 11.5113 51.3101 12.3679C51.2864 13.2389 51.5806 14.0888 52.1377 14.7587C52.7506 15.4336 53.5262 15.9402 54.3906 16.23C55.3998 16.5564 56.4565 16.7118 57.517 16.6897C58.6043 16.7092 59.6885 16.5698 60.7354 16.2759C61.4954 16.0544 62.149 15.5642 62.5745 14.8966H57.2412V11.4484H70.1607C70.3293 13.2052 69.9087 14.9682 68.9653 16.4599C67.7988 17.9685 66.1921 19.0771 64.3676 19.6323C62.1547 20.4152 59.8178 20.7891 57.4711 20.7357C55.2875 20.7575 53.1194 20.3675 51.0802 19.5863V19.5863Z" fill="#131313"/>
<path d="M85.792 20.3671L84.5046 18.2062H75.3092L74.0219 20.3671H66.9414L76.7805 4.41309H83.0334L92.9184 20.3671H85.792ZM77.4242 14.528H82.3897L80.1368 10.7119V10.1142V10.7119L77.4242 14.528Z" fill="#131313"/>
<path d="M109.287 4.41435C111.611 4.36774 113.926 4.70961 116.138 5.42585C117.899 5.91938 119.49 6.88994 120.735 8.23045C121.804 9.34214 122.398 10.8263 122.391 12.3684C122.394 13.9148 121.82 15.4068 120.781 16.5523C119.504 17.8525 117.924 18.8161 116.184 19.3569C113.967 20.0509 111.656 20.3923 109.333 20.3684H98.9883V4.41435H109.287ZM113.885 15.4029C114.399 15.0915 114.824 14.6529 115.119 14.1294C115.413 13.6059 115.568 13.0152 115.568 12.4144C115.568 11.8135 115.413 11.2228 115.119 10.6993C114.824 10.1758 114.399 9.7372 113.885 9.42585C112.429 8.60871 110.77 8.22578 109.103 8.3224H105.747V16.4603H109.195C110.84 16.5382 112.475 16.173 113.931 15.4029H113.885Z" fill="#131313"/>
<path d="M122.895 4.41309H140.458V8.32113H129.607V10.4361H138.803V14.1142H129.607V16.4131H140.596V20.3671H122.895V4.41309Z" fill="#131313"/>
<path d="M141.336 4.41309H147.129L157.382 13.1947V4.41309H164.095V20.3671H158.255L148.049 11.5395V20.3671H141.336V4.41309Z" fill="#131313"/>
<path d="M170.852 8.32113H164.461V4.41309H183.909V8.32113H177.472V20.3671H170.852V8.32113Z" fill="#131313"/>
<path d="M205.594 16.1342C204.711 16.1342 203.955 15.942 203.325 15.5576C202.695 15.1691 202.21 14.6294 201.871 13.9383C201.536 13.2472 201.368 12.4457 201.368 11.5338C201.368 10.6218 201.536 9.82034 201.871 9.12925C202.21 8.43816 202.695 7.90042 203.325 7.51602C203.955 7.12754 204.711 6.9333 205.594 6.9333C206.613 6.9333 207.461 7.18888 208.14 7.70004C208.819 8.20711 209.295 8.89207 209.569 9.75491L208.079 10.1659C207.907 9.58929 207.614 9.13947 207.201 8.81642C206.788 8.48927 206.253 8.3257 205.594 8.3257C205.001 8.3257 204.507 8.4586 204.11 8.72441C203.717 8.99021 203.421 9.36438 203.22 9.84692C203.024 10.3254 202.924 10.8876 202.92 11.5338C202.92 12.1799 203.018 12.7442 203.214 13.2267C203.415 13.7052 203.713 14.0773 204.11 14.3431C204.507 14.6089 205.001 14.7418 205.594 14.7418C206.253 14.7418 206.788 14.5782 207.201 14.2511C207.614 13.9239 207.907 13.4741 208.079 12.9016L209.569 13.3126C209.295 14.1754 208.819 14.8624 208.14 15.3736C207.461 15.8807 206.613 16.1342 205.594 16.1342ZM212.578 15.9502V10.6382H210.364V9.32554H216.271V10.6382H214.056V15.9502H212.578ZM220.239 16.1342C219.577 16.1342 218.998 15.985 218.503 15.6864C218.009 15.3879 217.624 14.9769 217.35 14.4535C217.08 13.926 216.945 13.3208 216.945 12.6379C216.945 11.9427 217.084 11.3334 217.362 10.8099C217.641 10.2865 218.027 9.87759 218.522 9.58316C219.017 9.28873 219.589 9.14152 220.239 9.14152C220.906 9.14152 221.487 9.29078 221.981 9.58929C222.476 9.88781 222.861 10.3008 223.135 10.8284C223.409 11.3518 223.546 11.955 223.546 12.6379C223.546 13.3249 223.406 13.9321 223.128 14.4596C222.854 14.9831 222.47 15.3941 221.975 15.6926C221.48 15.987 220.902 16.1342 220.239 16.1342ZM220.239 14.7479C220.828 14.7479 221.266 14.5517 221.552 14.1591C221.838 13.7665 221.981 13.2594 221.981 12.6379C221.981 11.9958 221.836 11.4847 221.546 11.1044C221.255 10.72 220.82 10.5278 220.239 10.5278C219.843 10.5278 219.516 10.6178 219.258 10.7977C219.004 10.9735 218.816 11.2209 218.694 11.5399C218.571 11.8548 218.51 12.2208 218.51 12.6379C218.51 13.2799 218.655 13.7931 218.945 14.1775C219.239 14.5578 219.671 14.7479 220.239 14.7479ZM224.885 15.9502V9.32554H226.099L228.473 13.9015L230.853 9.32554H232.061V15.9502H230.651V12.3005L228.768 15.9502H228.185L226.302 12.3005V15.9502H224.885ZM235.627 16.1342C235.148 16.1342 234.744 16.0442 234.412 15.8643C234.081 15.6803 233.83 15.437 233.658 15.1344C233.49 14.8318 233.406 14.4985 233.406 14.1345C233.406 13.8156 233.46 13.5293 233.566 13.2758C233.672 13.0182 233.836 12.7973 234.057 12.6133C234.277 12.4252 234.564 12.2719 234.915 12.1533C235.181 12.0674 235.492 11.9897 235.848 11.9202C236.208 11.8507 236.596 11.7873 237.013 11.73C237.434 11.6687 237.874 11.6033 238.332 11.5338L237.804 11.8343C237.809 11.3763 237.706 11.039 237.498 10.8222C237.289 10.6055 236.938 10.4971 236.443 10.4971C236.144 10.4971 235.856 10.5666 235.578 10.7057C235.3 10.8447 235.105 11.0839 234.995 11.4233L233.646 11.0001C233.809 10.4399 234.12 9.99005 234.578 9.65063C235.04 9.31122 235.662 9.14152 236.443 9.14152C237.032 9.14152 237.549 9.23762 237.995 9.42981C238.444 9.62201 238.778 9.93689 238.994 10.3744C239.113 10.6075 239.185 10.8468 239.209 11.0921C239.234 11.3334 239.246 11.5971 239.246 11.8834V15.9502H237.952V14.5149L238.166 14.7479C237.868 15.2264 237.518 15.5781 237.117 15.803C236.721 16.0238 236.224 16.1342 235.627 16.1342ZM235.921 14.9565C236.257 14.9565 236.543 14.8972 236.78 14.7786C237.017 14.66 237.205 14.5149 237.344 14.3431C237.488 14.1714 237.584 14.0098 237.633 13.8585C237.71 13.6704 237.753 13.4557 237.761 13.2145C237.774 12.9691 237.78 12.7708 237.78 12.6195L238.234 12.7544C237.788 12.8239 237.406 12.8853 237.087 12.9384C236.768 12.9916 236.494 13.0427 236.265 13.0918C236.036 13.1368 235.833 13.1879 235.658 13.2451C235.486 13.3065 235.341 13.378 235.222 13.4598C235.103 13.5416 235.011 13.6357 234.946 13.742C234.885 13.8483 234.854 13.973 234.854 14.1161C234.854 14.2797 234.895 14.4249 234.977 14.5517C235.058 14.6743 235.177 14.7725 235.332 14.8461C235.492 14.9197 235.688 14.9565 235.921 14.9565ZM242.505 15.9502V10.6382H240.291V9.32554H246.198V10.6382H243.983V15.9502H242.505ZM249.057 16.1342C248.578 16.1342 248.174 16.0442 247.842 15.8643C247.511 15.6803 247.26 15.437 247.088 15.1344C246.92 14.8318 246.836 14.4985 246.836 14.1345C246.836 13.8156 246.89 13.5293 246.996 13.2758C247.102 13.0182 247.266 12.7973 247.487 12.6133C247.707 12.4252 247.994 12.2719 248.345 12.1533C248.611 12.0674 248.922 11.9897 249.278 11.9202C249.638 11.8507 250.026 11.7873 250.443 11.73C250.864 11.6687 251.304 11.6033 251.762 11.5338L251.234 11.8343C251.239 11.3763 251.136 11.039 250.928 10.8222C250.719 10.6055 250.367 10.4971 249.873 10.4971C249.574 10.4971 249.286 10.5666 249.008 10.7057C248.73 10.8447 248.535 11.0839 248.425 11.4233L247.076 11.0001C247.239 10.4399 247.55 9.99005 248.008 9.65063C248.47 9.31122 249.092 9.14152 249.873 9.14152C250.462 9.14152 250.979 9.23762 251.425 9.42981C251.874 9.62201 252.208 9.93689 252.424 10.3744C252.543 10.6075 252.615 10.8468 252.639 11.0921C252.664 11.3334 252.676 11.5971 252.676 11.8834V15.9502H251.382V14.5149L251.596 14.7479C251.298 15.2264 250.948 15.5781 250.547 15.803C250.151 16.0238 249.654 16.1342 249.057 16.1342ZM249.351 14.9565C249.687 14.9565 249.973 14.8972 250.21 14.7786C250.447 14.66 250.635 14.5149 250.774 14.3431C250.917 14.1714 251.014 14.0098 251.063 13.8585C251.14 13.6704 251.183 13.4557 251.191 13.2145C251.204 12.9691 251.21 12.7708 251.21 12.6195L251.664 12.7544C251.218 12.8239 250.836 12.8853 250.517 12.9384C250.198 12.9916 249.924 13.0427 249.695 13.0918C249.466 13.1368 249.263 13.1879 249.088 13.2451C248.916 13.3065 248.771 13.378 248.652 13.4598C248.533 13.5416 248.441 13.6357 248.376 13.742C248.315 13.8483 248.284 13.973 248.284 14.1161C248.284 14.2797 248.325 14.4249 248.407 14.5517C248.488 14.6743 248.607 14.7725 248.762 14.8461C248.922 14.9197 249.118 14.9565 249.351 14.9565ZM253.659 15.9502V14.7111C253.901 14.7561 254.087 14.752 254.218 14.6989C254.348 14.6416 254.447 14.5353 254.512 14.3799C254.577 14.2245 254.635 14.018 254.684 13.7604C254.749 13.3964 254.806 12.9773 254.856 12.5029C254.909 12.0286 254.954 11.5215 254.99 10.9817C255.031 10.4419 255.068 9.88986 255.101 9.32554H259.977V15.9502H258.505V10.7118H256.401C256.381 10.9776 256.356 11.2761 256.328 11.6074C256.299 11.9345 256.268 12.2657 256.236 12.6011C256.203 12.9364 256.166 13.2553 256.125 13.558C256.088 13.8565 256.05 14.1121 256.009 14.3247C255.915 14.8031 255.78 15.1814 255.604 15.4595C255.432 15.7376 255.191 15.9154 254.88 15.9931C254.569 16.0749 254.162 16.0606 253.659 15.9502ZM264.627 16.1342C263.964 16.1342 263.385 15.985 262.891 15.6864C262.396 15.3879 262.011 14.9769 261.737 14.4535C261.468 13.926 261.333 13.3208 261.333 12.6379C261.333 11.9427 261.472 11.3334 261.75 10.8099C262.028 10.2865 262.414 9.87759 262.909 9.58316C263.404 9.28873 263.976 9.14152 264.627 9.14152C265.293 9.14152 265.874 9.29078 266.369 9.58929C266.863 9.88781 267.248 10.3008 267.522 10.8284C267.796 11.3518 267.933 11.955 267.933 12.6379C267.933 13.3249 267.794 13.9321 267.516 14.4596C267.242 14.9831 266.857 15.3941 266.362 15.6926C265.868 15.987 265.289 16.1342 264.627 16.1342ZM264.627 14.7479C265.215 14.7479 265.653 14.5517 265.939 14.1591C266.225 13.7665 266.369 13.2594 266.369 12.6379C266.369 11.9958 266.223 11.4847 265.933 11.1044C265.643 10.72 265.207 10.5278 264.627 10.5278C264.23 10.5278 263.903 10.6178 263.645 10.7977C263.392 10.9735 263.203 11.2209 263.081 11.5399C262.958 11.8548 262.897 12.2208 262.897 12.6379C262.897 13.2799 263.042 13.7931 263.332 14.1775C263.627 14.5578 264.058 14.7479 264.627 14.7479ZM269.284 15.9502V9.32554H274.007V10.7118H270.762V15.9502H269.284ZM277.985 16.1342C277.322 16.1342 276.744 15.985 276.249 15.6864C275.754 15.3879 275.37 14.9769 275.096 14.4535C274.826 13.926 274.691 13.3208 274.691 12.6379C274.691 11.9427 274.83 11.3334 275.108 10.8099C275.386 10.2865 275.772 9.87759 276.267 9.58316C276.762 9.28873 277.334 9.14152 277.985 9.14152C278.651 9.14152 279.232 9.29078 279.727 9.58929C280.221 9.88781 280.606 10.3008 280.88 10.8284C281.154 11.3518 281.291 11.955 281.291 12.6379C281.291 13.3249 281.152 13.9321 280.874 14.4596C280.6 14.9831 280.215 15.3941 279.721 15.6926C279.226 15.987 278.647 16.1342 277.985 16.1342ZM277.985 14.7479C278.573 14.7479 279.011 14.5517 279.297 14.1591C279.584 13.7665 279.727 13.2594 279.727 12.6379C279.727 11.9958 279.582 11.4847 279.291 11.1044C279.001 10.72 278.565 10.5278 277.985 10.5278C277.588 10.5278 277.261 10.6178 277.003 10.7977C276.75 10.9735 276.562 11.2209 276.439 11.5399C276.316 11.8548 276.255 12.2208 276.255 12.6379C276.255 13.2799 276.4 13.7931 276.69 14.1775C276.985 14.5578 277.416 14.7479 277.985 14.7479ZM288.384 9.32554V15.9502H286.967V11.6258L283.814 15.9502H282.63V9.32554H284.047V13.5396L287.212 9.32554H288.384ZM294.069 15.9502V13.742H292.885C292.733 13.742 292.543 13.7379 292.314 13.7297C292.089 13.7215 291.879 13.7011 291.683 13.6684C291.171 13.5743 290.748 13.3514 290.413 12.9998C290.077 12.644 289.91 12.1615 289.91 11.5522C289.91 10.9551 290.069 10.4746 290.388 10.1107C290.707 9.74673 291.122 9.51364 291.633 9.41141C291.846 9.36643 292.065 9.34189 292.29 9.3378C292.519 9.32962 292.709 9.32554 292.86 9.32554H295.547V15.9502H294.069ZM289.738 15.9502L291.321 13.4169H292.86L291.29 15.9502H289.738ZM292.731 12.5827H294.069V10.4849H292.731C292.654 10.4849 292.56 10.4889 292.449 10.4971C292.339 10.5053 292.228 10.5237 292.118 10.5523C291.999 10.5891 291.887 10.6525 291.781 10.7425C291.674 10.8324 291.586 10.9449 291.517 11.0798C291.447 11.2148 291.413 11.3681 291.413 11.5399C291.413 11.7975 291.486 12.0122 291.633 12.184C291.785 12.3516 291.961 12.4641 292.161 12.5213C292.259 12.5459 292.359 12.5622 292.462 12.5704C292.568 12.5786 292.658 12.5827 292.731 12.5827Z" fill="#5C9DFF"/>
</svg>
