<svg width="33" height="33" fill="none" xmlns="http://www.w3.org/2000/svg"><path d="m16.484.164 1.831 5.94 3.753-4.955-.31 6.208 5.22-3.373-2.414 5.728 6.06-1.384-4.229 4.556 6.168.772-5.532 2.836 5.532 2.835-6.168.772 4.229 4.556-6.06-1.384L26.979 29l-5.221-3.373.31 6.208-3.753-4.955-1.831 5.94-1.832-5.94-3.753 4.955.311-6.208L5.989 29l2.415-5.728-6.06 1.384L6.572 20.1l-6.168-.772 5.532-2.835-5.532-2.836 6.168-.772-4.228-4.556 6.06 1.384-2.415-5.728 5.221 3.373-.31-6.208 3.752 4.955 1.832-5.94Z" fill="#5C9DFF"/></svg>