<svg width="11" height="6" fill="none" xmlns="http://www.w3.org/2000/svg"><path d="M1.688.33A.75.75 0 0 0 .627 1.39L1.687.33Zm3.715 4.776-.53.53a.75.75 0 0 0 1.06 0l-.53-.53Zm4.776-3.715A.75.75 0 1 0 9.119.33l1.06 1.06Zm-9.552 0 .01.01.01.01.01.009.009.01.01.01.01.01.01.01.01.01.01.009.01.01.009.01.01.01.01.01.01.01.01.01.01.01.01.01.01.01.01.01.01.01a13.783 13.783 0 0 0 .02.02l.01.01.01.01.011.01.01.011.01.01a6.18 6.18 0 0 0 .02.02l.011.011.01.01.01.01.011.01.01.011.01.01.011.011.01.01.011.01.01.011.01.01.011.011.01.01.011.011.01.01.011.011.01.01.011.011.01.01.011.011.011.01.01.011.011.01.01.012.011.01.011.01.01.011.011.011.011.01.01.012.011.01.011.01.01.012.012.01.01.011.011.01.01.012.012.01.01.011.011.011.011.01.01.012.012.01.01.011.011.011.011.011.011.011.011.01.011.012a5.6 5.6 0 0 0 .022.022l.01.01.012.011.01.011.011.011.011.011.011.011.011.011.011.011.011.011.011.011.011.011.011.011.011.011.011.011.011.011.011.011.011.011.011.011.012.011.01.011.012.011.01.011.012.012.01.01.012.012.011.01.011.012.011.011.011.011.011.011.011.011.012.011.01.011.012.012.011.01.011.012.011.011.011.011.011.011.012.011.01.012.012.01.011.012.011.01.011.012.011.011.012.011.01.012.012.01.011.012.011.011.011.011.012.011.01.011a11.726 11.726 0 0 0 .045.045l.011.011.012.011.01.012.012.01.011.012.011.011.011.011.011.011.012.011.01.012.012.01.011.012a5.85 5.85 0 0 1 .033.033l.012.011a11.663 11.663 0 0 0 .022.023l.01.01.012.012.011.011.011.011.011.011.011.011.012.011a5.798 5.798 0 0 1 .044.045l.011.01.011.012.011.01.011.012.011.011a11.507 11.507 0 0 1 .022.022l.011.011.011.011.011.011.011.011.011.011.011.011.011.011.011.011.011.011.011.011.011.011.011.011.011.011.011.011.011.01.011.012.01.01.012.012.01.01.012.011a5.58 5.58 0 0 1 .021.022l.011.011.011.01.01.012.012.01.01.011.011.011.011.011.011.01a5.478 5.478 0 0 1 .022.022l.01.011.011.01.01.012.011.01.011.011.01.01.012.011.01.011.01.01.012.011.01.011.01.01.011.011.011.01.01.011a5.267 5.267 0 0 0 .022.022l.01.01.01.01.011.011.01.01.011.011.01.01.011.011.01.01.011.01.01.011.01.01.011.011.01.01.011.01.01.011.01.01.011.01.01.011.01.01.01.01.011.01.01.011.01.01.01.01.01.01.01.01.011.01.01.011.01.01.01.01.01.01.01.01.01.01.01.01.01.01.01.01.01.01a9.283 9.283 0 0 0 .02.02l.01.01.01.01.01.01.01.01.01.01.01.009.009.01.01.01.01.01.01.009.009.01.01.01.009.009.01.01.01.009.009.01.01.01.009.009.01.01.009.009.01.01.009.008.01.01.009.01.009.009.01.009.009.01.009.009.009.009a4.025 4.025 0 0 0 .018.018l.01.01.009.009.009.009.01.009.008.009.01.009a7.7 7.7 0 0 0 .008.01l.01.008.008.01.01.008.008.009.01.009.008.009a7.38 7.38 0 0 0 .026.026l.01.009.008.009.009.008.008.01.009.008.009.008.008.009.009.009.008.008.009.009.008.008a3.374 3.374 0 0 1 .092.092l.008.008.008.008.008.008.008.008.008.008.008.008.008.008.008.008.008.008.008.007.007.008.008.008.008.008.008.007a2.78 2.78 0 0 1 .023.023l.007.008.008.008.007.007.008.008.007.007a2.588 2.588 0 0 0 .015.015l.007.007.008.007a5 5 0 0 0 .014.015l.007.007.008.007.007.007.007.008.007.007a4.656 4.656 0 0 0 .014.014l.007.007.007.006.007.007a4.408 4.408 0 0 1 .013.014l.007.007.007.007.006.006.007.007.007.006.006.007.007.007.006.006.007.007.006.006.007.006.006.007.006.006.007.006.006.007.006.006.006.006.006.006.006.006.006.006.006.006.006.006.006.006.006.006.006.006.006.006.005.005.006.006.006.006.005.005.006.006.006.005.005.006.006.005.005.006.005.005.006.005a2.626 2.626 0 0 1 .02.021l.006.005.005.006.005.005.005.005.005.005.005.004.004.005.005.005.005.005.005.005.004.004.005.005.005.004.004.005.005.004.004.005.004.004.005.005.004.004.004.004.005.004.004.005.004.004a17533209380.945 17533209380.945 0 0 0 .008.008l.004.004a1.458 1.458 0 0 1 .008.008l.004.003c0 .002.002.003.003.004l.004.004.004.004.003.003.004.004.004.003c0 .002.002.003.003.004l.004.003.003.004.003.003.004.003a.498.498 0 0 1 .003.004l.003.003a.937.937 0 0 0 .003.003l.003.003.003.003a.85.85 0 0 1 .003.003l.003.003.003.003a.38.38 0 0 1 .003.003l.003.003.002.002.003.003a.658.658 0 0 1 .005.005l.003.003.002.002.003.003.002.002.003.002.002.003.002.002.002.002.002.002.002.002.002.002.002.002.002.002.002.002.002.002.002.001.001.002.002.002.001.001.002.002.001.001a.188.188 0 0 1 .003.003l.001.001.002.001v.002h.002l.001.002h.001l.001.002.002.002.001.001h.001v.001h.001v.001h.001v.001h.001v.001l.53-.53.531-.53v-.001h-.001v-.001H5.93v-.001l-.001-.002-.002-.001-.001-.002h-.001l-.001-.002h-.001l-.001-.002-.002-.001v-.001l-.002-.002-.002-.001v-.001a.1.1 0 0 0-.002-.002l-.002-.001a.116.116 0 0 1-.005-.005l-.002-.002-.001-.002-.002-.002-.002-.002-.002-.002-.002-.002-.002-.002a.21.21 0 0 1-.002-.002l-.002-.002-.003-.002-.002-.002-.002-.003-.003-.002-.002-.002-.002-.003-.003-.002-.003-.003-.002-.003-.003-.002-.003-.003-.002-.003a.38.38 0 0 0-.003-.003l-.003-.003-.003-.003-.003-.003-.003-.003-.003-.003-.003-.003-.004-.003-.003-.003-.003-.004-.003-.003-.004-.003-.003-.004-.004-.003-.003-.004-.004-.003-.004-.004-.003-.004-.004-.003-.004-.004a1.392 1.392 0 0 1-.007-.008l-.004-.004-.004-.004-.004-.004-.004-.004-.005-.004-.004-.004-.004-.004-.004-.005-.005-.004-.004-.004-.004-.005a1.857 1.857 0 0 1-.005-.004l-.004-.005a1.933 1.933 0 0 0-.005-.004l-.004-.005a2.01 2.01 0 0 1-.005-.004l-.005-.005-.004-.005a2.147 2.147 0 0 0-.005-.005l-.005-.004-.005-.005a2.252 2.252 0 0 1-.005-.005l-.005-.005-.005-.005-.005-.005-.005-.005-.005-.005-.005-.005-.005-.006-.005-.005-.006-.005-.005-.006-.005-.005-.006-.005-.005-.006-.006-.005-.005-.006-.006-.005L5.6 4.24a1.516 1.516 0 0 1-.006-.006l-.006-.005-.006-.006a1.58 1.58 0 0 1-.005-.006l-.006-.006-.006-.006-.006-.006-.006-.006a3.397 3.397 0 0 0-.012-.012l-.006-.006a3.534 3.534 0 0 1-.006-.006l-.006-.006-.007-.006-.006-.006-.006-.007a3.769 3.769 0 0 1-.006-.006l-.007-.006a1.925 1.925 0 0 1-.006-.007l-.007-.006-.006-.007-.006-.006a4.03 4.03 0 0 1-.007-.007l-.007-.006-.006-.007-.007-.006-.007-.007-.006-.007-.007-.007a4.376 4.376 0 0 0-.007-.006l-.007-.007-.007-.007-.007-.007a4.57 4.57 0 0 1-.006-.007l-.007-.007-.008-.007-.007-.007-.007-.007-.007-.007-.007-.008-.007-.007-.007-.007-.008-.007-.007-.008-.007-.007a2.567 2.567 0 0 1-.015-.015l-.008-.007-.007-.008-.008-.007a121049006224.192 121049006224.192 0 0 0-.015-.015l-.007-.008a2.759 2.759 0 0 0-.023-.023l-.008-.008-.008-.007-.008-.008-.008-.008-.007-.008-.008-.008-.008-.008L5.16 3.8l-.008-.008-.008-.008a3.07 3.07 0 0 0-.09-.09 3.326 3.326 0 0 0-.026-.026L5.02 3.66a3.422 3.422 0 0 1-.009-.009l-.009-.008-.008-.009-.009-.008-.008-.009-.009-.009-.009-.008-.008-.009-.01-.009-.008-.008a82210313658.96 82210313658.96 0 0 1-.018-.018l-.008-.009a3.717 3.717 0 0 1-.01-.009l-.008-.009-.01-.009-.008-.009-.01-.009-.008-.009-.01-.009-.008-.009a3.895 3.895 0 0 1-.01-.009l-.008-.009-.01-.009-.009-.01-.009-.008a3.999 3.999 0 0 1-.018-.019l-.01-.01-.009-.008-.01-.01-.008-.009-.01-.01-.01-.009-.009-.01-.009-.009-.01-.009-.009-.01-.01-.009-.009-.01-.01-.01-.01-.009-.009-.01-.01-.009-.009-.01-.01-.01-.01-.009-.009-.01-.01-.01-.01-.009-.01-.01a4.509 4.509 0 0 0-.009-.01l-.01-.01a9.096 9.096 0 0 0-.01-.01l-.01-.009a9.17 9.17 0 0 1-.01-.01l-.01-.01a4.62 4.62 0 0 1-.01-.01l-.009-.01-.01-.01-.01-.01a9.395 9.395 0 0 0-.01-.01l-.01-.01-.01-.01-.01-.01-.01-.01-.01-.01-.01-.01-.01-.01-.01-.01-.01-.01-.01-.01-.01-.01-.011-.01-.01-.01-.01-.011-.01-.01-.011-.01-.01-.01-.01-.011-.011-.01-.01-.01-.01-.011-.011-.01-.01-.01-.01-.011a5.109 5.109 0 0 1-.011-.01l-.01-.011a5.138 5.138 0 0 1-.011-.01l-.01-.011a5.168 5.168 0 0 1-.011-.01l-.01-.011-.011-.01-.01-.011-.011-.01-.01-.011-.011-.01a5.267 5.267 0 0 1-.01-.011l-.011-.01-.01-.011-.012-.011-.01-.01-.01-.011a5.347 5.347 0 0 0-.011-.011l-.011-.01-.01-.011-.011-.011-.011-.01a5.407 5.407 0 0 0-.01-.011l-.012-.011a10.86 10.86 0 0 0-.021-.022l-.01-.01-.012-.011a5.478 5.478 0 0 0-.01-.01L3.88 2.52l-.01-.01-.012-.011-.01-.011-.011-.01a5.54 5.54 0 0 0-.055-.055l-.01-.011-.011-.011-.011-.01a11.227 11.227 0 0 1-.011-.012l-.011-.01-.011-.012-.011-.01-.011-.012a11.32 11.32 0 0 0-.011-.01l-.011-.012a5.673 5.673 0 0 1-.01-.01l-.012-.011-.01-.011-.012-.011-.01-.011a11.413 11.413 0 0 0-.012-.011l-.01-.011a5.725 5.725 0 0 0-.012-.011l-.011-.012-.011-.01a5.746 5.746 0 0 1-.022-.023l-.011-.01-.011-.012-.011-.01-.011-.012-.011-.01a5.787 5.787 0 0 0-.045-.045l-.01-.011-.012-.011a11.632 11.632 0 0 1-.011-.012l-.011-.01-.011-.012-.011-.01-.012-.012a5.83 5.83 0 0 0-.022-.022l-.01-.011-.012-.012-.011-.01a11.695 11.695 0 0 0-.011-.012l-.011-.011-.012-.011-.01-.011-.012-.011-.011-.012a5.86 5.86 0 0 0-.011-.01l-.011-.012-.011-.011a5.86 5.86 0 0 0-.034-.033l-.011-.012-.011-.01-.011-.012a5.86 5.86 0 0 0-.012-.011l-.01-.011-.012-.011-.011-.012-.011-.01a5.86 5.86 0 0 0-.011-.012l-.011-.011-.012-.011-.01-.011-.012-.011a5.86 5.86 0 0 0-.011-.012l-.011-.01-.011-.012-.011-.011-.012-.011-.01-.011-.012-.011-.011-.012a11.663 11.663 0 0 0-.033-.033l-.012-.011-.01-.011-.012-.011-.01-.011-.012-.011-.011-.012-.011-.01-.011-.012-.011-.01-.011-.012-.011-.011-.012-.011-.01-.011a11.538 11.538 0 0 1-.012-.011l-.01-.011-.012-.011a11.507 11.507 0 0 0-.01-.011l-.012-.011-.01-.011-.012-.012-.011-.01-.011-.012-.011-.01-.011-.012-.011-.01-.011-.012-.011-.01a11.351 11.351 0 0 0-.011-.012l-.011-.01a5.663 5.663 0 0 0-.01-.011l-.012-.011-.01-.011-.012-.011-.01-.011-.012-.011a5.611 5.611 0 0 1-.021-.022l-.011-.01-.011-.012-.011-.01a11.135 11.135 0 0 0-.01-.011l-.012-.011-.01-.011-.011-.011-.011-.01-.011-.012-.01-.01-.012-.011a10.961 10.961 0 0 1-.021-.022L2.346.99l-.01-.011a36.24 36.24 0 0 0-.011-.011l-.011-.01a27.051 27.051 0 0 0-.01-.011L2.291.935l-.01-.01A26.881 26.881 0 0 0 2.27.912l-.01-.01a26.745 26.745 0 0 0-.011-.01L2.24.881 2.227.87a26.565 26.565 0 0 0-.01-.01L2.208.85a26.43 26.43 0 0 0-.011-.01L2.186.828a7.01 7.01 0 0 1-.01-.011l-.011-.01-.01-.011-.011-.01a26.008 26.008 0 0 0-.01-.011l-.011-.01-.01-.011-.011-.01-.01-.011-.01-.01-.011-.01-.01-.011-.011-.01-.01-.011-.01-.01-.011-.01a20.094 20.094 0 0 0-.01-.011l-.01-.01a19.969 19.969 0 0 0-.011-.01l-.01-.01a16.534 16.534 0 0 0-.01-.011L1.957.6 1.946.59l-.01-.01-.01-.011a16.255 16.255 0 0 0-.01-.01l-.01-.01a6.924 6.924 0 0 1-.011-.01l-.01-.01-.01-.01a15.97 15.97 0 0 0-.01-.01l-.01-.01-.01-.01-.01-.01-.01-.011a13.438 13.438 0 0 0-.01-.01l-.01-.01-.01-.01a15.494 15.494 0 0 0-.01-.01l-.01-.01-.01-.01a15.308 15.308 0 0 0-.01-.01l-.01-.01-.01-.01a12.96 12.96 0 0 0-.02-.019L1.708.35a11.198 11.198 0 0 0-.01-.01L1.687.33.628 1.39Zm5.306 4.245 4.246-4.245L9.119.33 4.872 4.576l1.06 1.06Z" fill="#5C9DFF"/></svg>