<svg width="53" height="25" fill="none" xmlns="http://www.w3.org/2000/svg"><path d="M51.908 13.962a3.743 3.743 0 0 0-1.482-2.936c-.842-.684-.881-.755.078-1.2 2.149-.987 2.643-2.767 2.46-4.88C52.8 2.95 50.992 1.03 49.176.945c-1.11-.05-2.291.096-3.176.734-1.36.988-2.445.773-3.827 0-1.812-1.024-3.727-.845-5.464.43-.616.45-.866 1.174-1.332 1.79A9.396 9.396 0 0 0 34.081 2 2.864 2.864 0 0 0 31.646.926c-1.2.043-2.438.2-3.401.934-1.074.83-2.009.774-3.008 0a.41.41 0 0 0-.078-.043C22.907.497 19.35.79 18.012 4.005a7.245 7.245 0 0 0-1.432-2.123 2.821 2.821 0 0 0-2.406-.956 6.757 6.757 0 0 0-3.71 1.146c-.748.544-1.357.562-2.148.053A5.797 5.797 0 0 0 4.07 1.17C2.14 1.5.872 2.745.436 4.936a4.372 4.372 0 0 0 1.983 4.611c.433.251.938.398 1.278.9-1.937 1.12-2.33 2.907-2.273 4.969.079 2.352 0 4.712 0 7.068 0 1.575.025 1.604 1.593 1.604h47.975c.655 0 .952-.305.948-1-.032-3.043.007-6.086-.032-9.126Zm-2.112-5.234a2.542 2.542 0 0 0-1.53 2.746 15.077 15.077 0 0 1-.092 4.092 5.064 5.064 0 0 1-1.024 2.292 9.838 9.838 0 0 1-.118-2.417 7.945 7.945 0 0 0-1.433-4.615c-.916-1.321-2.166-1.307-3.068.04a7.461 7.461 0 0 0-1.353 4.446v2.653a3.917 3.917 0 0 1-1.107-2.148 10.817 10.817 0 0 1-.193-3.638c.276-1.73-.301-2.965-1.92-3.688a2.898 2.898 0 0 1-.526-.333 2.421 2.421 0 0 1-.254-.358h4.347c.147 0 .318.018.333.211.071.881.745.792 1.328.813.584.022 1.25 0 1.876 0 .544 0 1.11 0 1.189-.759.021-.225.204-.265.394-.265h4.379a2.71 2.71 0 0 1-1.221.928h-.007Zm-6.614-1.6c.047-.674.641-.327.989-.359.29-.029.827-.218.762.401-.064.62-.655.143-.884.38-.344-.136-.902.179-.86-.423h-.007Zm-2.23-4.555c.974.179 1.769.83 2.635 1.289.867.458 1.772.848 2.793.798.469-.021 1.074.04 1.035-.659-.022-.569-.52-.648-.989-.626-.168 0-.358.064-.494-.086.842-.88 3.05-1.328 4.028-.82 1.146.598 1.952 2.248 1.765 3.555-.05.358-.193.527-.562.523h-4.379c-.254 0-.504-.036-.522-.358-.05-.716-.555-.716-1.074-.716h-2.41c-.34 0-.791.036-.802.397-.022.835-.57.67-1.05.673h-3.752c-.5 0-.694-.164-.687-.665.025-2.804 1.597-3.842 4.465-3.305ZM19.054 5.699c.3-2.682 1.507-3.653 4.54-3.12.942.166 1.722.792 2.55 1.265a5.335 5.335 0 0 0 3.06.809c.459-.029.878-.165.838-.698-.032-.466-.43-.598-.859-.584h-.716a4.364 4.364 0 0 1 3.58-1.074c1.36.161 2.74 2.625 2.26 3.903-.122.33-.358.336-.649.336h-4.185c-.333 0-.587-.053-.616-.462-.032-.512-.394-.608-.82-.608H25.71c-.573 0-1.189-.075-1.207.791 0 .297-.265.276-.472.276h-4.383c-.651.025-.64-.42-.594-.834Zm11.848 6.143a10.35 10.35 0 0 1-.477 4.934 3.327 3.327 0 0 1-.82 1.246c0-1.106-.025-2.03 0-2.95.058-1.661-.547-3.09-1.475-4.407-.798-1.128-2.087-1.075-2.864.068a7.544 7.544 0 0 0-1.432 4.608c.032.827 0 1.654 0 2.653a3.58 3.58 0 0 1-1.006-1.694 11.165 11.165 0 0 1-.358-3.985c.265-2.148 0-2.71-1.84-3.792a1.758 1.758 0 0 1-.86-.698h4.39c.197 0 .336.072.358.301.068.716.605.716 1.12.716h2.055c.538 0 1.121.025 1.186-.755 0-.23.204-.269.39-.269h4.35c-.304.537-.748.673-1.124.874-1.278.687-1.787 1.654-1.593 3.15Zm-5.088-4.718c0-.649.57-.359.877-.359.308 0 .874-.297.874.359 0 .655-.58.26-.888.408-.29-.161-.87.25-.863-.408ZM1.66 5.788c.247-2.714 1.511-3.724 4.454-3.222.974.164 1.79.784 2.643 1.27a5.37 5.37 0 0 0 2.864.824c.498 0 1.056-.06 1.024-.716-.029-.573-.548-.612-1.024-.58h-.53c1.21-.934 2.57-1.46 3.978-.899 1.289.516 1.815 1.733 1.915 3.101.054.695-.154 1.038-.948.999-1.279-.064-2.564-.018-3.846-.018-.33 0-.673.036-.716-.455-.043-.49-.383-.615-.806-.615H8.341c-.573 0-1.167-.072-1.224.78-.022.312-.333.286-.57.286h-4.2c-.587.026-.73-.247-.687-.755Zm8.532 1.321c.029.67-.558.28-.855.43-.298-.154-.867.243-.888-.398-.022-.64.555-.358.855-.358.301 0 .863-.308.888.326ZM3.597 8.74c-.4-.22-.87-.359-1.235-.917H6.55c.254 0 .562-.068.598.358.05.608.516.67.974.68a57.09 57.09 0 0 0 2.413 0c.462 0 .917-.09.96-.698.025-.358.282-.326.519-.326h4.192c-.222.537-.687.645-1.045.856-1.575.924-1.79 1.56-1.64 3.38.172 2.016.143 4.05-1.335 5.79 0-.839-.029-1.676 0-2.507a7.486 7.486 0 0 0-1.368-4.537c-.845-1.26-2.102-1.288-2.954-.05a7.211 7.211 0 0 0-1.432 4.422c.029.892 0 1.79 0 2.8a2.976 2.976 0 0 1-1.013-1.704 11.425 11.425 0 0 1-.312-4.43c.23-1.456-.258-2.441-1.51-3.118Zm46.417 14.006a3.713 3.713 0 0 0-.448 0c-15.243 0-30.483.006-45.722.018-.877 0-1.178-.176-1.146-1.117.076-2.385.026-4.77.026-7.161a2.864 2.864 0 0 1 .998-2.385c.076 1.125.18 2.149.205 3.165.028 1.39.644 2.507 1.471 3.563a1.27 1.27 0 0 0 1.533.401 1.243 1.243 0 0 0 .787-1.275c.025-1.396-.157-2.803.158-4.189a6.936 6.936 0 0 1 .977-2.191c.315-.498.62-.498.935 0a6.416 6.416 0 0 1 1.142 3.43v2.95a1.213 1.213 0 0 0 .784 1.279 1.354 1.354 0 0 0 1.593-.462c1.232-1.393 1.465-3.087 1.526-4.834a9.51 9.51 0 0 0-.09-2.406 1.335 1.335 0 0 1 .86-1.654 4.018 4.018 0 0 0 2.38-2.506 4.296 4.296 0 0 0 2.507 2.563 1.256 1.256 0 0 1 .791 1.522c-.29 1.432-.032 2.864.054 4.275.071 1.232.716 2.256 1.503 3.18a1.246 1.246 0 0 0 1.472.336 1.192 1.192 0 0 0 .77-1.196c.028-1.396-.143-2.8.16-4.19a7.004 7.004 0 0 1 1.03-2.262c.329-.52.612-.473.916.025a6.316 6.316 0 0 1 1.107 3.344c0 .985.042 1.97 0 2.95-.022.656.218 1.125.816 1.336a1.325 1.325 0 0 0 1.525-.433c1.225-1.343 1.518-2.954 1.561-4.648.049-.954.049-1.91 0-2.864a1.336 1.336 0 0 1 .87-1.479 4.189 4.189 0 0 0 2.36-2.323c.426 1.27 1.385 1.9 2.46 2.406a1.275 1.275 0 0 1 .787 1.528c-.276 1.368 0 2.736.04 4.1.046 1.3.716 2.385 1.525 3.355a1.256 1.256 0 0 0 1.475.358 1.183 1.183 0 0 0 .759-1.2c.018-1.31-.118-2.62.115-3.938a7.073 7.073 0 0 1 1.013-2.449c.333-.548.612-.659 1.006-.021a6.144 6.144 0 0 1 1.074 3.437c-.021.952 0 1.908 0 2.864a1.242 1.242 0 0 0 .86 1.303 1.314 1.314 0 0 0 1.51-.469c1.114-1.292 1.472-2.828 1.511-4.475V12.13a2.148 2.148 0 0 1 1.074 1.987c.033 2.653 0 5.31.022 7.963.018.498-.129.727-.641.666Z" fill="#5C9DFF"/></svg>