<svg width="38" height="38" fill="none" xmlns="http://www.w3.org/2000/svg"><path d="M29.067 15.15c-.22-2.334-1.034-4.396-3.139-5.691-1.96-1.213-4.06-1.072-6.175-.481-1.377.383-2.592 1.111-3.778 1.883-.792.515-1.477.54-2.28 0-.773-.48-1.576-.91-2.404-1.287a8.214 8.214 0 0 0-5.114-.734c-3.112.518-5.185 2.735-5.56 5.94-.313 2.685.271 5.757 3.476 7.217.219.1.406.262.625.357 1.477.645 1.773 1.794 1.598 3.297a20.871 20.871 0 0 0 .328 7.356c.388 1.6.947 3.115 2.081 4.362a1.728 1.728 0 0 0 1.895.538c.633-.239.964-.794.959-1.603v-1.94a17.16 17.16 0 0 1 .256-4.294c.331-1.857.835-3.642 2.041-5.15.616-.775 1.44-.758 2.016.043a8.194 8.194 0 0 1 1.105 2.015c1.074 2.983 1.322 6.07 1.077 9.213-.058.72.15 1.235.74 1.57a1.537 1.537 0 0 0 1.869-.176 5.17 5.17 0 0 0 .834-.985c1.408-2.079 1.765-4.468 1.95-6.893.126-1.675-.052-3.354-.162-5.027a1.926 1.926 0 0 1 1-1.934c.633-.389 1.263-.78 1.917-1.135a4.86 4.86 0 0 0 2.15-2.32 8.024 8.024 0 0 0 .695-4.14Zm-1.584 3.565a4.11 4.11 0 0 1-1.946 2.13c-.888.425-1.714.967-2.456 1.613a2.358 2.358 0 0 0-.798 1.92c.055.838.09 1.676.133 2.51.13 2.46-.035 4.895-.806 7.239a6.866 6.866 0 0 1-1.44 2.473c-.21.236-.423.47-.795.288-.371-.181-.288-.45-.27-.74a24.76 24.76 0 0 0-.82-8.609 10.028 10.028 0 0 0-1.728-3.362c-.913-1.152-2.531-1.123-3.455.034-1.552 1.926-2.047 4.235-2.425 6.588-.287 1.727-.178 3.49-.143 5.24 0 .313.152.69-.288.864-.44.172-.66-.18-.884-.438-1.094-1.281-1.564-2.825-1.857-4.451-.438-2.43-.303-4.869-.124-7.308.092-1.25-.45-2.119-1.44-2.772a14.377 14.377 0 0 0-1.661-1.002c-1.756-.84-2.439-2.358-2.666-4.152-.288-2.372.622-4.319 2.251-5.965A3.706 3.706 0 0 1 6.18 9.79a9.03 9.03 0 0 1 5.534 1.114c1.44.812 2.842 1.684 4.414 2.24a6.667 6.667 0 0 0 3.1.389c.372-.047.683-.17.631-.61-.052-.441-.386-.43-.711-.401a5.911 5.911 0 0 1-3.032-.501c2.093-1.44 4.218-2.51 6.772-2.401 1.992.086 3.512.967 4.385 2.755a7.503 7.503 0 0 1 .21 6.34Zm9.23-16.699c-.38-.07-.766-.1-1.152-.092H14.702a1.826 1.826 0 0 1-1.491-.61 3.507 3.507 0 0 0-2.46-1.21C7.833-.08 4.908.034 1.983.044 1.012.045.572.603.565 1.571v3.455c0 .377 0 .78.501.783.501.003.527-.38.527-.768v-3.38c0-.237-.04-.536.32-.519.36.018.233.297.233.498v3.455c0 .36-.04.792.484.792s.55-.417.547-.832V1.601c.006-.161-.08-.45.196-.45.348-.022.244.289.247.476v3.455c0 .4 0 .832.556.812.556-.02.466-.452.466-.81v-3.38c0-.198-.095-.53.19-.535.369 0 .225.351.228.556v3.308c0 .392-.023.846.51.864.598.02.56-.481.575-.884v-3.38c0-.19-.09-.498.256-.475.268.02.193.288.193.463 0 1.03-.023 2.062.02 3.092.018.435-.305 1.178.51 1.166.714-.014.478-.705.49-1.151.025-1.03 0-2.062.014-3.092 0-.185-.118-.507.225-.496.342.012.213.326.215.516V5.11c0 .38.035.768.522.78.53.014.5-.409.5-.772V1.664c0-.216-.094-.552.288-.53.311.02.22.323.222.519v3.455c0 .368-.026.789.495.783.521-.006.533-.386.53-.772V1.664c0-.466.104-.59.576-.426.69.234 1.292.672 1.727 1.256 1.345 1.776 3.139 2.32 5.3 2.242 2.753-.1 5.514-.025 8.27-.025h9.28c.333.004.667-.03.993-.104a1.207 1.207 0 0 0 .97-1.325 1.22 1.22 0 0 0-1.028-1.266Zm-.423 1.62H17.224c-.74 0-1.486.015-2.237-.641h21.291c.193 0 .447.046.43.348-.018.302-.228.27-.418.282v.012Z" fill="#5C9DFF"/></svg>