<svg width="42" height="38" fill="none" xmlns="http://www.w3.org/2000/svg"><path d="M41.382 5.101c-1.232-1.226-2.455-2.461-3.69-3.685a2.575 2.575 0 0 0-.572-.423 1.43 1.43 0 0 0-1.852.392 1.446 1.446 0 0 0 .066 1.895c.198.238.415.46.648.663.364.286.286.515-.025.795-.409.363-.775.772-1.166 1.143-.772.75-.555.755-1.33-.034-1.012-1.038-1.663-1.046-2.692-.014-3.96 3.95-7.901 7.918-11.88 11.845-.766.763-1.33 1.487-.595 2.624-2.078-.409-3.736-.043-4.713 1.976-.306-.488-.64-.957-1.004-1.404a2.355 2.355 0 0 0-2.032-.835c-.757.032-1.586.08-2.187.546-1.089.858-2 .572-3.073-.048-1.343-.775-3.198-.46-4.221.491-1.024.952-1.35 2.836-.798 4.245.343.875 1.063 1.31 1.824 1.715.388.209.491.349.048.66-.943.66-1.352 1.601-1.337 2.765.025 2.095 0 4.19 0 6.288 0 1.144.022 1.158 1.166 1.158h36.648c.98 0 1.075-.094 1.075-1.043 0-1.907-.043-3.81.014-5.717.049-1.555-.286-2.884-1.738-3.716.066-.1.092-.175.146-.212.148-.117.308-.218.477-.3 1.232-.529 1.735-1.538 1.913-2.798.24-1.747-1.238-4.048-2.973-4.042a5.762 5.762 0 0 0-3.227.969 1.05 1.05 0 0 1-1.298.034c-1.31-.832-2.71-1.206-4.422-.557.323-.343.497-.535.68-.72 2.63-2.653 5.263-5.307 7.898-7.962.698-.703.738-1.397.177-2.089-.317-.392-1.032-.652-.934-1.13.088-.428.671-.76 1.037-1.142l.052-.052c.937-.938.937-.938 1.938-.034.088.083.184.159.286.226a1.455 1.455 0 0 0 2.27-.944 1.69 1.69 0 0 0-.604-1.529ZM18.755 21.394c.18-.151.32-.386.571-.12.735.743 1.478 1.478 2.213 2.221.065.078.125.161.177.249-.141.164-.29.32-.449.469-.186.165-.286-.02-.409-.129-.709-.7-1.409-1.412-2.12-2.11-.206-.223-.22-.391.017-.58Zm4.684 7.5a7.338 7.338 0 0 1-.285 3.097 2.048 2.048 0 0 1-.598.983c-.04-.826-.103-1.56-.111-2.287a5.566 5.566 0 0 0-1.095-3.184 1.264 1.264 0 0 0-2.155-.026 5.623 5.623 0 0 0-1.187 3.35v2.178a2.496 2.496 0 0 1-.857-1.583 10.64 10.64 0 0 1-.149-2.982 4.973 4.973 0 0 0-.097-1.535c-.129-.591.572-.857.93-1.212.285-.286.448.123.6.286.428.44.808.423 1.209-.02.191-.211.405-.4.603-.606.134-.143.254-.203.408-.028.415.466.758.225 1.07-.126.402-.455.765-.858 1.469-.426.446.266.926.02 1.3-.317.375-.338.758-.72 1.144-1.078.097-.089.177-.249.348-.172.172.078.106.203.103.315 0 .94-.157 1.86-1.114 2.287-1.387.62-1.707 1.695-1.536 3.087Zm-5.62-5.213c.13-.223.287-.417.593-.812.385.472.646.798.92 1.112.189.22.497.36.108.718-.34.314-.571.343-.857-.023-.16-.2-.377-.358-.54-.572-.092-.114-.366-.186-.223-.423Zm-.78-2.501c.218 0 .303.048.232.286-.032.105-.054.285 0 .343.646.651.017.969-.357 1.306-.475.426-.62.832-.049 1.266.392.286.355.546-.014.81-.02 0-.032.036-.052.05-.351.235-.52.858-1.029.715a1.803 1.803 0 0 1-1.295-1.389c-.054-.254-.082-.512-.094-.589 0-1.866.995-2.841 2.658-2.801v.003ZM2.393 25.968c-1.22-.65-1.621-1.647-1.3-2.965.382-1.58 1.4-1.918 3.075-1.737.912.097 1.64.726 2.447 1.123a4.07 4.07 0 0 0 2.038.54c.34-.02.78 0 .763-.534-.017-.535-.392-.518-.769-.51-.094 0-.189 0-.495-.033 1.032-.67 2.001-.972 2.985-.675.932.286 1.429 1.083 1.543 2.044.152 1.2-.137 2.17-1.346 2.781-1.21.612-1.37 1.166-1.266 2.493.123 1.557.163 3.144-.912 4.642-.106-1.195.057-2.244-.152-3.279a6.18 6.18 0 0 0-.929-2.218c-.674-1.01-1.692-1.015-2.366-.017a5.397 5.397 0 0 0-1.05 3.267c.026.677 0 1.355 0 2.198a2.859 2.859 0 0 1-.857-1.55 9.828 9.828 0 0 1-.134-3.258c.125-1.077-.326-1.798-1.275-2.312Zm36.27 4.236c.026 2.047 0 4.096.018 6.143 0 .374-.129.526-.498.489a4.317 4.317 0 0 0-.428 0H2.759c-1.06 0-.93.123-.935-.97v-5.568a2 2 0 0 1 .769-1.666c0 1.363-.049 2.624.391 3.836.198.538.513 1.026.92 1.43a1.024 1.024 0 0 0 1.19.196.926.926 0 0 0 .572-.977c-.038-1.212-.075-2.427.285-3.608.183-.588.338-1.469.878-1.509.615-.046.755.858.978 1.404.454 1.114.285 2.286.285 3.458 0 .572.018 1.115.692 1.318.675.203 1-.22 1.352-.666.718-.909.915-1.972.95-3.081a28.09 28.09 0 0 0 0-2.353 1.04 1.04 0 0 1 .628-1.143c.778-.383 1.49-.858 1.798-1.881.415.752.798 1.33 1.458 1.672.34.177 0 .354-.126.475-.969.983-1.95 1.955-2.924 2.932-.12.118-.237.235-.352.358-.226.234-.303.517-.065.76.237.243.546.206.809-.06 1.04-1.05 2.088-2.092 3.144-3.127.16-.16.286-.389.591-.438a23.123 23.123 0 0 0 .05 3.616c.104.95.491 1.846 1.111 2.573a1.026 1.026 0 0 0 1.232.286c.435-.149.572-.52.572-.97 0-.997-.083-2 .091-2.992.137-.67.395-1.309.76-1.886.286-.464.486-.386.77.02.857 1.234.829 2.64.837 4.047 0 .286-.043.572-.028.858a1.04 1.04 0 0 0 .745 1.02.938.938 0 0 0 1.07-.369c.62-.717 1.086-1.532 1.126-2.49.048-1.143.26-2.286.054-3.43-.097-.531.26-.791.658-.983a3.238 3.238 0 0 0 1.843-1.972c.329 1.166 1.144 1.623 1.967 2.052a.95.95 0 0 1 .52.995 58.891 58.891 0 0 0 0 2.927 4.55 4.55 0 0 0 1.035 2.753 1.092 1.092 0 0 0 1.318.431c.497-.168.611-.591.631-1.086.043-1.066-.128-2.144.138-3.198.159-.6.423-1.166.78-1.673.203-.285.403-.3.6 0a4.66 4.66 0 0 1 .91 2.513c.016.809.022 1.62 0 2.43 0 .505.16.883.65 1.066a1.023 1.023 0 0 0 1.207-.372 4.365 4.365 0 0 0 1.124-2.715c.022-.755 0-1.51 0-2.419a1.747 1.747 0 0 1 .846 1.55v-.006Zm-7.145-8.773c.608.27 1.183.615 1.775.918a4.001 4.001 0 0 0 2.172.572c.369-.032.775-.098.732-.572-.037-.415-.403-.472-.76-.455h-.5c1.4-1.017 3.224-1.166 4.073.163.849 1.33.48 3.182-.858 3.868-1.012.517-1.49 1.22-1.34 2.398a9.457 9.457 0 0 1-.11 3.053 2.938 2.938 0 0 1-.857 1.626c0-.723-.014-1.446 0-2.17a5.431 5.431 0 0 0-1.117-3.318c-.592-.857-1.598-.857-2.199 0a5.394 5.394 0 0 0-1.143 3.31c.017.703 0 1.404 0 2.287-.775-.835-.92-1.69-.972-2.553a15.39 15.39 0 0 1 .02-2.352c.095-1.072-.326-1.858-1.295-2.212-1.332-.49-1.743-2.119-1.117-3.508.534-1.18 2.11-1.663 3.507-1.049l-.012-.006Zm4.888-11.208c.34.332.303.572-.018.89-4.142 4.14-8.28 8.284-12.414 12.43-.332.332-.572.327-.883 0a292.12 292.12 0 0 0-3.842-3.838c-.36-.355-.337-.62.023-.943.512-.463.963-1.27 1.503-1.33.438-.045.972.795 1.461 1.247.286.257.572.654.94.234.312-.354.063-.706-.24-.986a11.527 11.527 0 0 0-.874-.843c-.55-.406-.463-.71 0-1.144.337-.311.534-.303.786.035.043.057.106.097.151.148.238.286.515.375.8.109a.48.48 0 0 0-.062-.8c-.623-.45-.449-.79.043-1.198.254-.212.4-.255.64 0 .426.449.883.857 1.32 1.303a.514.514 0 0 0 .647.135.472.472 0 0 0 .268-.47.857.857 0 0 0-.286-.48c-.374-.368-.743-.74-1.12-1.1-.249-.237-.523-.44-.083-.763.323-.24.543-.806 1.032-.186.246.315.614.572.957.194.343-.377.052-.729-.285-.966-.458-.331-.226-.557.065-.817.292-.26.475-.632.884-.126.35.389.72.76 1.109 1.112.266.286.543.543.895.166.351-.378.048-.646-.212-.906-.355-.355-.683-.735-1.066-1.052-.383-.318-.286-.572.037-.844.286-.24.506-.648.883-.122.061.073.128.14.2.202.263.252.555.303.818.032a.467.467 0 0 0-.103-.746c-.683-.469-.409-.82.06-1.23.41-.359.799-.74 1.166-1.143.326-.351.606-.383.958-.025a487.06 487.06 0 0 0 3.853 3.827l-.011-.006Zm1.008-4.219c-.537.538-1.086 1.064-1.606 1.615-.246.26-.406.215-.635-.02-.228-.234-.26-.4 0-.64.552-.523 1.078-1.072 1.618-1.606.132-.13.266-.318.47-.115.145.146.35.249.388.509-.069.089-.143.18-.223.263l-.012-.006Zm3.48.54a.498.498 0 0 1-.387.286c-.22 0-.334-.163-.466-.285-1.263-1.261-2.524-2.527-3.79-3.785-.234-.232-.434-.497-.12-.789.315-.292.572-.071.795.163 1.242 1.246 2.487 2.493 3.736 3.739.183.183.391.371.243.677l-.012-.005Z" fill="#5C9DFF"/></svg>