<svg width="198" height="53" fill="none" xmlns="http://www.w3.org/2000/svg"><rect opacity=".5" x="90.47" y="27.35" width="107.53" height="25.301" rx="5.371" fill="#E3EEFF"/><path d="M0 .45h6.372l7.359 6.815L21.238.45h6.322v17.14h-7.21V8.005l-5.533 5.384h-1.975L7.26 7.957v9.878H0V.449Zm29.635 0h18.867v4.197H36.846V6.92h9.878v3.952h-9.878v2.47H48.65v4.247H29.635V.45Z" fill="#131313"/><path d="M54.875 16.747a12.594 12.594 0 0 1-4.94-3.26 6.422 6.422 0 0 1-1.876-4.495 6.52 6.52 0 0 1 1.728-4.544 13.929 13.929 0 0 1 4.94-3.26 20.596 20.596 0 0 1 7.26-1.185 20.793 20.793 0 0 1 5.73.79 16.003 16.003 0 0 1 4.939 2.272 5.927 5.927 0 0 1 2.519 3.507h-7.31a5.63 5.63 0 0 0-2.47-1.679 11.063 11.063 0 0 0-3.605-.543 9.236 9.236 0 0 0-3.36.543 5.58 5.58 0 0 0-2.42 1.58 3.754 3.754 0 0 0-.888 2.52c-.026.935.29 1.848.889 2.568a5.73 5.73 0 0 0 2.42 1.58c1.084.351 2.22.518 3.359.494a12.018 12.018 0 0 0 3.457-.444 3.507 3.507 0 0 0 1.976-1.482h-5.73V8.005h13.88a8.545 8.545 0 0 1-1.285 5.383 9.878 9.878 0 0 1-4.94 3.408 20.793 20.793 0 0 1-7.408 1.186 18.668 18.668 0 0 1-6.865-1.235Zm37.289.841-1.383-2.321h-9.879l-1.383 2.321h-7.606L82.483.45H89.2l10.62 17.14h-7.656Zm-8.99-6.273h5.335l-2.42-4.1v-.641.642l-2.915 4.1ZM117.403.449c2.496-.05 4.983.317 7.359 1.086a10.668 10.668 0 0 1 4.939 3.013 6.37 6.37 0 0 1 1.778 4.446 6.667 6.667 0 0 1-1.729 4.494 11.852 11.852 0 0 1-4.939 3.013 23.804 23.804 0 0 1-7.359 1.087h-11.113V.448h11.064Zm4.939 11.804a3.755 3.755 0 0 0 0-6.42 9.386 9.386 0 0 0-5.137-1.186h-3.606v8.742h3.705a9.876 9.876 0 0 0 5.087-1.136h-.049ZM132.021.45h18.867v4.197h-11.656V6.92h9.878v3.952h-9.878v2.47h11.804v4.247h-19.015V.45Zm19.811 0h6.223l11.015 9.433V.449h7.211v17.14h-6.273l-10.965-9.484v9.483h-7.211V.45Zm31.708 4.197h-6.865V.45h20.892v4.198h-6.914v12.941h-7.113V4.648Z" fill="#131313"/><path d="M103.754 44.186c-.929 0-1.724-.202-2.385-.606a4.05 4.05 0 0 1-1.528-1.702c-.352-.726-.528-1.568-.528-2.527 0-.958.176-1.8.528-2.526a4.007 4.007 0 0 1 1.528-1.696c.661-.408 1.456-.612 2.385-.612 1.069 0 1.961.269 2.674.806.714.533 1.214 1.252 1.502 2.16l-1.566.431c-.18-.606-.488-1.079-.922-1.418-.434-.344-.997-.516-1.688-.516-.624 0-1.143.14-1.56.42-.413.279-.724.672-.935 1.179-.206.503-.311 1.093-.316 1.772 0 .68.103 1.272.31 1.78.21.502.524.893.941 1.172.417.28.936.42 1.56.42.691 0 1.254-.172 1.688-.516.434-.344.742-.817.922-1.418l1.566.432c-.288.906-.788 1.628-1.502 2.165-.713.533-1.605.8-2.674.8Zm5.579-.194v-6.961h6.046v6.961h-1.554v-5.504h-2.939v5.504h-1.553Zm11.02.194c-.704 0-1.323-.153-1.856-.458a3.26 3.26 0 0 1-1.251-1.27c-.296-.541-.444-1.164-.444-1.87 0-.76.146-1.42.438-1.978a3.2 3.2 0 0 1 1.218-1.308c.52-.31 1.122-.464 1.805-.464.722 0 1.334.17 1.837.509.507.335.883.81 1.128 1.424.245.615.337 1.339.277 2.172h-1.54v-.567c-.005-.756-.138-1.308-.4-1.656-.262-.348-.675-.522-1.238-.522-.636 0-1.108.197-1.418.593-.309.39-.464.964-.464 1.72 0 .705.155 1.251.464 1.638.31.386.761.58 1.354.58.382 0 .711-.084.986-.252.279-.171.494-.418.645-.74l1.534.463a3.111 3.111 0 0 1-1.238 1.463 3.384 3.384 0 0 1-1.837.523Zm-2.398-3.243V39.77h4.79v1.173h-4.79Zm12.815 4.512v-1.463h-5.84v-6.961h1.554v5.505h2.939V37.03h1.553v5.582h1.347v2.842h-1.553Zm8.616-8.424v6.961h-1.489v-4.544l-3.313 4.544h-1.244v-6.961h1.489v4.428l3.326-4.428h1.231Zm3.756 7.155c-.502 0-.928-.095-1.276-.284a2.01 2.01 0 0 1-.793-.767 2.133 2.133 0 0 1-.264-1.05c0-.336.056-.637.168-.903.111-.27.283-.503.515-.696.232-.198.533-.359.903-.484.279-.09.605-.172.979-.245.378-.073.787-.14 1.225-.2.443-.064.905-.133 1.386-.206l-.555.316c.005-.481-.103-.836-.322-1.063-.219-.228-.588-.342-1.108-.342-.314 0-.617.073-.909.22-.292.145-.497.397-.613.753l-1.418-.444a2.637 2.637 0 0 1 .98-1.418c.486-.357 1.139-.535 1.96-.535.618 0 1.162.1 1.63.303.473.202.823.532 1.051.992.125.245.2.496.226.754.025.254.038.531.038.832v4.273h-1.36v-1.508l.226.245c-.314.503-.681.872-1.102 1.108-.417.232-.939.349-1.567.349Zm.31-1.238c.352 0 .653-.062.902-.187s.447-.277.593-.458a1.6 1.6 0 0 0 .303-.509c.082-.197.127-.423.135-.676.013-.258.02-.467.02-.626l.477.142c-.469.073-.87.138-1.206.193-.335.056-.623.11-.863.162a5.439 5.439 0 0 0-.638.16 1.97 1.97 0 0 0-.458.226.997.997 0 0 0-.29.297.768.768 0 0 0-.097.393c0 .172.043.324.129.458a.9.9 0 0 0 .374.309c.167.077.374.116.619.116Zm4.527 1.044V42.69c.253.047.449.043.586-.013a.597.597 0 0 0 .31-.335c.068-.163.129-.38.18-.65.069-.383.129-.824.181-1.322.055-.499.103-1.031.141-1.599.043-.567.082-1.147.116-1.74h5.125v6.961h-1.547v-5.504h-2.211c-.022.279-.047.593-.077.94-.031.345-.063.693-.097 1.045-.035.352-.073.687-.116 1.005-.039.314-.08.583-.123.806-.098.503-.24.9-.425 1.193a1.21 1.21 0 0 1-.761.56c-.326.086-.754.071-1.282-.045Zm14.483-6.961v6.961h-1.489v-4.544l-3.313 4.544h-1.244v-6.961h1.489v4.428l3.325-4.428h1.232Zm4.832 7.155c-.717 0-1.33-.16-1.837-.477a3.17 3.17 0 0 1-1.166-1.315c-.267-.555-.402-1.182-.406-1.882.004-.714.144-1.345.419-1.895a3.154 3.154 0 0 1 1.186-1.302c.511-.318 1.119-.477 1.824-.477.79 0 1.459.2 2.004.599.55.395.909.937 1.077 1.624l-1.547.42c-.121-.375-.32-.665-.6-.87a1.542 1.542 0 0 0-.954-.317c-.404 0-.737.097-.999.29-.262.19-.455.451-.58.787a3.272 3.272 0 0 0-.187 1.14c0 .662.149 1.197.445 1.605.297.409.737.613 1.321.613.413 0 .737-.095.974-.284.24-.189.421-.462.541-.818l1.586.354c-.215.71-.591 1.255-1.128 1.637-.537.378-1.195.568-1.973.568Zm6.089-.194V38.41h-2.327v-1.379h6.207v1.38h-2.327v5.581h-1.553Zm5.095 0-.006-6.961h1.553v2.32h.78c.193 0 .41.005.651.013.245.009.449.028.612.058.391.086.724.224.999.413.28.189.492.436.638.741.146.305.22.672.22 1.102 0 .615-.159 1.107-.477 1.476-.318.365-.763.615-1.335.748a3.68 3.68 0 0 1-.625.077c-.249.009-.47.013-.664.013h-2.346Zm1.547-1.218h.935c.094 0 .199-.004.315-.013.116-.009.226-.028.329-.058a1.04 1.04 0 0 0 .741-1.025c0-.28-.075-.509-.225-.69a1.044 1.044 0 0 0-.555-.354 1.941 1.941 0 0 0-.315-.051 3.521 3.521 0 0 0-.29-.013h-.935v2.204Zm4.628 1.218v-6.961h1.553v6.961h-1.553Z" fill="#5C9DFF"/></svg>