<svg width="343" height="68" fill="none" xmlns="http://www.w3.org/2000/svg"><rect x=".517" y="12.257" width="340" height="55" rx="14.5" transform="rotate(-1.979 .517 12.257)" fill="#5C9DFF" stroke="#fff"/><rect x="213.788" y="20.749" width="113.3" height="23.3" rx="4.65" transform="rotate(-1.979 213.788 20.749)" stroke="#fff" stroke-width=".7"/><path d="m20.693 31.485 5.928-.204 7.065 6.104 6.766-6.582 5.881-.204.551 15.945-6.709.232-.307-8.915-4.974 5.187-1.838.063-5.367-4.875.318 9.19-6.755.234-.559-16.175Zm27.57-.952 17.552-.606.135 3.906-10.844.374.073 2.114 9.19-.318.127 3.676-9.19.318.08 2.297 10.982-.38.136 3.953-17.69.61-.551-15.944Z" fill="#fff"/><path d="M72.268 44.885a11.725 11.725 0 0 1-4.7-2.874 5.977 5.977 0 0 1-1.89-4.12 6.068 6.068 0 0 1 1.462-4.284 12.964 12.964 0 0 1 4.49-3.191 19.172 19.172 0 0 1 6.717-1.336 19.359 19.359 0 0 1 5.355.55 14.897 14.897 0 0 1 4.668 1.956 5.517 5.517 0 0 1 2.456 3.181l-6.8.235a5.241 5.241 0 0 0-2.352-1.483 10.298 10.298 0 0 0-3.372-.39 8.598 8.598 0 0 0-3.107.614 5.196 5.196 0 0 0-2.2 1.548 3.494 3.494 0 0 0-.746 2.372c.006.872.33 1.71.91 2.361a5.334 5.334 0 0 0 2.301 1.393 9.52 9.52 0 0 0 3.141.351 11.172 11.172 0 0 0 3.202-.525 3.265 3.265 0 0 0 1.79-1.442l-5.33.185-.119-3.447 12.912-.446a7.953 7.953 0 0 1-1.022 5.05 9.195 9.195 0 0 1-4.485 3.33 19.357 19.357 0 0 1-6.854 1.34 17.379 17.379 0 0 1-6.427-.928Zm34.718-.417-1.361-2.115-9.19.318-1.212 2.204-7.076.244 9.282-16.284 6.249-.216 10.43 15.603-7.122.246Zm-8.565-5.546 4.963-.172-2.383-3.736-.021-.597.021.597-2.58 3.908Zm31.493-11.208a20.868 20.868 0 0 1 6.881.774 9.927 9.927 0 0 1 4.692 2.645 5.928 5.928 0 0 1 1.797 4.078 6.205 6.205 0 0 1-1.464 4.237 11.028 11.028 0 0 1-4.498 2.962 22.155 22.155 0 0 1-6.811 1.247l-10.339.357-.551-15.944 10.293-.356Zm4.974 10.823a3.487 3.487 0 0 0 1.58-3.045 3.495 3.495 0 0 0-1.786-2.928 8.736 8.736 0 0 0-4.817-.938l-3.354.116.281 8.133 3.446-.119a9.195 9.195 0 0 0 4.696-1.22l-.046.001Zm8.629-11.295 17.552-.606.135 3.905-10.844.375.073 2.114 9.19-.318.127 3.676-9.19.318.08 2.297 10.982-.38.136 3.953-17.691.61-.55-15.944Zm18.426-.636 5.79-.2 10.55 8.423-.303-8.777 6.708-.231.551 15.944-5.835.202-10.506-8.47.305 8.822-6.709.232-.551-15.945Zm29.634 2.887-6.387.22-.135-3.905 19.436-.672.135 3.906-6.433.222.416 12.039-6.616.229-.416-12.04ZM226.57 36.1c-.883.031-1.645-.135-2.288-.497a3.851 3.851 0 0 1-1.509-1.569c-.359-.679-.554-1.474-.585-2.385-.032-.912.108-1.718.419-2.42a3.817 3.817 0 0 1 1.397-1.663c.616-.41 1.366-.63 2.249-.66 1.017-.036 1.874.19 2.57.678.696.483 1.196 1.15 1.499 2.004l-1.475.462c-.192-.57-.499-1.01-.923-1.318-.424-.313-.965-.458-1.623-.435-.593.02-1.083.17-1.47.45a2.444 2.444 0 0 0-.85 1.152c-.18.485-.261 1.05-.242 1.696.022.646.139 1.206.352 1.682.217.471.528.833.934 1.085.405.252.905.367 1.497.347.658-.023 1.188-.205 1.589-.546.402-.341.679-.8.83-1.379l1.504.36c-.244.871-.696 1.574-1.357 2.108-.661.53-1.5.813-2.518.848Zm6.974-.425-.184-5.308-2.213.076-.045-1.312 5.903-.204.046 1.312-2.213.077.183 5.308-1.477.051Zm7.662-.08c-.662.023-1.245-.106-1.75-.388a3.075 3.075 0 0 1-1.195-1.192c-.288-.518-.444-1.118-.467-1.8-.024-.695.094-1.31.354-1.842a3.064 3.064 0 0 1 1.116-1.266c.484-.311 1.051-.478 1.701-.5.666-.024 1.252.105 1.757.387.504.28.903.68 1.195 1.198.292.514.449 1.112.473 1.794.024.687-.094 1.299-.354 1.835a3.079 3.079 0 0 1-1.11 1.273c-.484.31-1.057.478-1.72.5Zm-.047-1.386c.588-.02 1.019-.231 1.291-.633.273-.403.398-.914.377-1.536-.022-.641-.185-1.147-.488-1.517-.304-.374-.746-.551-1.326-.531-.397.014-.72.115-.972.303a1.557 1.557 0 0 0-.538.762c-.112.319-.16.687-.146 1.103.022.642.185 1.15.488 1.524.308.37.746.545 1.314.525Zm4.684 1.041-.229-6.62 1.214-.042 2.53 4.491 2.221-4.655 1.207-.042.229 6.62-1.41.05-.126-3.648-1.756 3.713-.582.02-2.008-3.583.126 3.648-1.416.049Zm10.742-.187c-.478.017-.886-.059-1.223-.227a1.903 1.903 0 0 1-.779-.704 2.023 2.023 0 0 1-.286-.99 2.211 2.211 0 0 1 .129-.864c.098-.261.254-.487.468-.679.214-.196.495-.359.842-.49.263-.095.571-.183.924-.265a21.99 21.99 0 0 1 1.158-.23c.419-.076.856-.156 1.312-.242l-.517.319c-.012-.458-.126-.791-.342-1-.216-.21-.571-.306-1.065-.29-.299.01-.584.09-.858.239-.273.148-.459.394-.557.737l-1.363-.376a2.507 2.507 0 0 1 .885-1.381c.45-.355 1.065-.546 1.846-.573.588-.02 1.109.058 1.561.234.456.177.8.48 1.032.91.126.229.206.465.239.71.033.24.054.503.064.79l.14 4.064-1.293.044-.05-1.434.223.225c-.282.489-.619.852-1.012 1.091-.389.234-.881.362-1.478.383Zm.253-1.187c.336-.011.62-.08.853-.207.233-.127.416-.278.549-.455a1.51 1.51 0 0 0 .271-.494c.071-.19.107-.407.106-.648.004-.246.003-.444-.002-.596l.459.12c-.443.085-.824.16-1.14.223a18.54 18.54 0 0 0-.817.182c-.227.053-.427.11-.601.174-.17.067-.312.144-.428.23a.95.95 0 0 0-.266.291.732.732 0 0 0-.079.377.781.781 0 0 0 .137.431.85.85 0 0 0 .366.282c.162.068.36.098.592.09Zm6.615.766-.184-5.309-2.213.077-.045-1.312 5.903-.204.046 1.312-2.213.076.183 5.31-1.477.05Zm6.554-.042c-.478.016-.886-.06-1.223-.228a1.904 1.904 0 0 1-.779-.703 2.023 2.023 0 0 1-.286-.991 2.211 2.211 0 0 1 .129-.864c.098-.26.254-.487.468-.679.214-.195.495-.359.842-.49.263-.094.571-.183.924-.264.357-.082.743-.159 1.158-.23.419-.076.856-.157 1.311-.242l-.516.318c-.012-.458-.126-.791-.342-1-.216-.21-.571-.306-1.065-.29-.299.011-.585.09-.858.24-.273.148-.459.393-.557.737l-1.363-.377a2.506 2.506 0 0 1 .885-1.38c.45-.356 1.065-.547 1.846-.574.588-.02 1.109.058 1.561.235.456.176.8.48 1.032.91.126.228.206.465.239.709.033.24.054.503.064.79l.14 4.064-1.293.045-.05-1.435.223.226c-.282.488-.619.852-1.012 1.09-.389.235-.881.362-1.478.383Zm.253-1.187c.336-.012.62-.081.853-.208.233-.127.415-.278.549-.454.137-.177.227-.342.271-.495.071-.19.107-.407.106-.648.004-.245.003-.444-.002-.595l.459.119c-.444.085-.824.16-1.14.223-.317.065-.589.125-.817.182a5.347 5.347 0 0 0-.601.174c-.17.068-.312.144-.428.23a.95.95 0 0 0-.266.292.731.731 0 0 0-.079.377.781.781 0 0 0 .137.43.86.86 0 0 0 .366.283c.162.068.36.098.592.09Zm4.34.844-.042-1.238c.242.036.428.026.557-.032a.567.567 0 0 0 .283-.329c.06-.157.11-.366.15-.625.053-.366.096-.787.129-1.263.036-.475.064-.984.082-1.524.022-.541.04-1.094.053-1.66l4.874-.168.229 6.62-1.472.052-.181-5.236-2.102.073a73.719 73.719 0 0 1-.101 1.894 24.67 24.67 0 0 1-.077.96c-.026.3-.056.556-.09.77-.077.482-.199.864-.365 1.148a1.15 1.15 0 0 1-.705.559c-.308.092-.715.092-1.222-.001Zm10.967-.195c-.662.023-1.245-.106-1.75-.387a3.075 3.075 0 0 1-1.195-1.193c-.288-.518-.444-1.118-.467-1.8-.024-.695.093-1.309.353-1.841.26-.533.632-.955 1.117-1.267.484-.311 1.051-.478 1.701-.5.666-.023 1.251.106 1.756.387.505.281.904.68 1.196 1.199.291.513.449 1.111.473 1.794.023.686-.095 1.298-.354 1.835a3.079 3.079 0 0 1-1.11 1.272c-.484.311-1.058.478-1.72.501Zm-.048-1.385c.589-.02 1.019-.232 1.292-.634.272-.402.398-.914.377-1.535-.023-.642-.185-1.148-.489-1.518-.303-.374-.745-.55-1.325-.53-.397.013-.721.114-.972.303a1.551 1.551 0 0 0-.538.761 2.995 2.995 0 0 0-.146 1.104c.022.641.185 1.15.488 1.523.308.37.745.545 1.313.526Zm4.697 1.04-.229-6.62 4.72-.163.048 1.385-3.243.112.181 5.235-1.477.052Zm8.701-.116c-.662.023-1.245-.106-1.75-.388a3.075 3.075 0 0 1-1.195-1.192c-.288-.518-.444-1.118-.467-1.8-.024-.695.094-1.31.353-1.842a3.07 3.07 0 0 1 1.117-1.266c.484-.311 1.051-.478 1.701-.5.666-.024 1.252.105 1.756.387.505.281.904.68 1.196 1.198.292.514.449 1.112.473 1.794.024.687-.094 1.299-.354 1.836a3.079 3.079 0 0 1-1.11 1.272c-.484.311-1.058.478-1.72.501Zm-.047-1.386c.588-.02 1.019-.231 1.291-.633.273-.402.398-.914.377-1.535-.022-.642-.185-1.148-.489-1.518-.303-.374-.745-.551-1.325-.531-.397.014-.72.115-.972.303a1.557 1.557 0 0 0-.538.762c-.112.319-.16.687-.146 1.103.022.642.185 1.15.488 1.524.308.37.745.545 1.314.525Zm10.205-5.778.229 6.621-1.416.049-.15-4.322-3.001 4.43-1.183.042-.229-6.621 1.416-.049.146 4.212 3.017-4.321 1.171-.04Zm5.91 6.425-.076-2.207-1.183.04c-.151.006-.341.008-.571.008a4.93 4.93 0 0 1-.633-.04 2.271 2.271 0 0 1-1.292-.624c-.348-.344-.532-.82-.553-1.43-.02-.596.122-1.082.429-1.456a2.169 2.169 0 0 1 1.22-.742c.211-.052.429-.085.653-.096.229-.016.419-.027.57-.032l2.685-.093.229 6.62-1.478.052Zm-4.328.15 1.495-2.587 1.538-.053-1.482 2.586-1.551.053Zm2.876-3.47 1.336-.046-.072-2.096-1.337.046c-.077.002-.171.01-.281.022-.11.012-.22.034-.329.066a.958.958 0 0 0-.331.202 1.093 1.093 0 0 0-.252.346.986.986 0 0 0-.088.464c.009.257.09.47.243.636.157.162.336.268.539.319.098.02.199.034.302.038.106.005.196.006.27.003Z" fill="#fff"/></svg>