<svg width="31" height="39" fill="none" xmlns="http://www.w3.org/2000/svg"><path d="M30.052 3.91A5.986 5.986 0 0 0 25.509.372c-2.236-.402-4.371.033-6.393 1.06-1.022.518-1.928 1.224-2.986 1.7a.912.912 0 0 1-.942-.022c-1.435-.807-2.826-1.724-4.407-2.226-2.364-.752-4.683-.746-6.914.513C1.027 3.01-.012 6.657.432 9.384c.377 2.33 1.43 4.182 3.696 5.184.534.265 1.043.576 1.524.929a1.978 1.978 0 0 1 .958 1.928c-.05.639-.055 1.284-.132 1.928-.066.551.154.78.672.782.518.003 1.102 0 1.653 0 1.51 0 1.51 0 1.512 1.488 0 1.055 0 1.077 1.072 1.072.446 0 .595.12.584.58a88.884 88.884 0 0 0 0 4.199c.019.578-.113.956-.692 1.146-.32.104-.617.314-.44.71.176.397.503.312.826.163.09-.03.182-.052.275-.063-.041.89.402 1.928-.895 2.283-.259.075-.306.339-.21.576a.457.457 0 0 0 .565.275c.171-.03.303-.217.551-.113 0 .414-.024.849 0 1.279a.603.603 0 0 1-.421.65c-.347.157-.917.259-.736.81.215.639.722.187 1.116.151.143.432-.124.98.482 1.264.997.46 1.967.981 2.942 1.488a.777.777 0 0 0 .777-.02 100.48 100.48 0 0 1 2.898-1.42.827.827 0 0 0 .512-.868c-.025-.94.052-1.885-.022-2.818-.085-1.042 0-1.907 1.223-2.188a.325.325 0 0 0 .118-.069c.202-.173.375-.369.199-.644a.51.51 0 0 0-.659-.207c-.275.094-.487.345-.81.323-.184-1.055-.23-2.03 1.102-2.342a.352.352 0 0 0 .119-.069c.212-.157.397-.33.275-.628-.12-.297-.43-.292-.708-.2-.278.09-.493.33-.785.305-.22-1.102-.151-2.063 1.18-2.375a.2.2 0 0 0 .063-.033c.237-.146.385-.344.253-.625a.472.472 0 0 0-.686-.237c-.275.105-.487.347-.843.353 0-.138-.024-.276-.024-.394-.02-1.119-.02-1.127 1.074-1.231.396-.039.578-.218.573-.612 0-.435.03-.873 0-1.306-.047-.498.093-.697.633-.663.777.046 1.56 0 2.339 0 .55 0 .793-.235.738-.805-.063-.636-.08-1.28-.121-1.928a1.989 1.989 0 0 1 .97-1.928 44.79 44.79 0 0 1 2.074-1.218 5.027 5.027 0 0 0 2.099-2.019c1.46-2.735 1.432-5.542.157-8.316ZM18.546 30.524c0 .303-.196.386-.397.488-1.57.799-3.146 1.59-4.71 2.396-.345.177-.48.207-.537-.275-.108-.94.179-1.485 1.102-1.884 1.52-.667 2.969-1.496 4.545-2.306-.009.581-.036 1.077-.003 1.581Zm-.375 5.49a2.036 2.036 0 0 0-.245.121c-2.43 1.204-2.43 1.204-4.683-.148-.435-.262-.49-1.133-.05-1.364 1.739-.906 3.49-1.785 5.347-2.73v3.56a.504.504 0 0 1-.369.55v.011Zm-.388-7.713a173.93 173.93 0 0 0-4.292 2.176c-.413.215-.534.232-.592-.325-.102-.956.204-1.485 1.118-1.865 1.33-.55 2.598-1.261 3.873-1.928.499-.275.741-.275.653.378a3.872 3.872 0 0 0 0 .454c.215.56-.217.824-.76 1.088v.022Zm-.648-2.636c-1.413.567-2.754 1.352-4.22 2.096v-4.594c0-.367.133-.477.483-.474 1.561 0 3.12.014 4.682 0 .361 0 .513.116.463.474a.46.46 0 0 0 0 .137c.245 1.201-.237 1.893-1.407 2.361Zm3.058-4.344c.036.344-.13.424-.44.424h-7.975c-.389 0-.551-.127-.504-.515.016-.114.016-.23 0-.344-.091-.582.099-.805.735-.777 1.234.055 2.48.017 3.71.017 1.306 0 2.612.019 3.918 0 .465 0 .614.148.55.586-.019.203-.017.407.006.609ZM29.3 11.304a4.526 4.526 0 0 1-2.041 2.14c-.482.276-.94.576-1.427.827-1.653.826-2.204 2.204-2.036 3.986.088.9.053.903-.857.903H8.22c-.57 0-.785-.124-.689-.713.347-2.094-.512-3.545-2.396-4.446-.29-.138-.551-.344-.827-.477-2.002-.881-2.713-2.6-2.95-4.608-.3-2.576.697-4.683 2.501-6.418C5.015 1.39 6.533 1.324 8.045 1.354c1.653.047 3.121.626 4.545 1.414 1.425.787 2.81 1.636 4.333 2.234a7.81 7.81 0 0 0 3.452.454c.347-.022.683-.11.634-.55-.05-.442-.392-.458-.733-.411-1.176.168-2.264-.138-3.457-.579 2.055-1.28 3.994-2.451 6.377-2.672 3.688-.341 6.44 1.895 6.757 5.623.13 1.528.003 3.019-.653 4.437Z" fill="#5C9DFF"/><path d="M15.69 15.249a2.436 2.436 0 0 1 1.774.766c.193.206.363.446.104.719-.259.272-.482.182-.738 0-1.055-.705-1.242-.708-2.237 0-.253.176-.498.25-.735 0-.29-.276-.119-.551.105-.772a2.548 2.548 0 0 1 1.727-.713Z" fill="#5C9DFF"/></svg>