<svg width="51" height="50" fill="none" xmlns="http://www.w3.org/2000/svg"><path d="M44.328 20.306a1.519 1.519 0 0 1-1.041-.905 18.354 18.354 0 0 0-5.233-6.64c-.52-.413-.891-.816-.94-1.532a2.855 2.855 0 0 0-.616-1.517c-.348-.449-.315-.858-.183-1.37a4.938 4.938 0 0 0-8.554-4.426c-.517.644-1.048 1.28-1.538 1.947a.638.638 0 0 1-.897.247c-1.176-.466-2.54-.666-3.517.07-1.524 1.119-2.462.38-3.501-.565-.144-.128-.306-.237-.462-.354-1.663-1.21-4.096-1.268-5.668-.132-1.89 1.362-2.747 3.52-1.935 5.574.45 1.17.841 2.25.434 3.491-.076.24-.075.497.004.736.187.497-.036.831-.319 1.197a18.525 18.525 0 0 0-3.52 8.042 1.658 1.658 0 0 1-.855 1.265c-1.939 1.198-2.725 3.06-2.436 5.232.29 2.173 1.589 3.666 3.708 4.331a1.692 1.692 0 0 1 1.162.99c3.652 7.584 11.654 11.932 20.254 10.811l1.858-.39a1.58 1.58 0 0 0 .406-.092c7.639-2.388 12.258-7.522 13.912-15.337a1.296 1.296 0 0 1 .697-1.019 5.184 5.184 0 0 0 2.61-5.232c-.345-2.239-1.637-3.753-3.83-4.422ZM27.282 6.763c.579-.68 1.06-1.416 1.648-2.073.99-1.088 2.244-1.513 3.663-1.06 1.419.454 2.308 1.453 2.547 3.225.07.556-.04 1.12-.315 1.607-.299.572-.205.975.197 1.48a3.524 3.524 0 0 1-1.074 5.385 3.316 3.316 0 0 1-3.543-.104c-.76-.488-1.445-1.102-2.179-1.64a.518.518 0 0 1-.175-.763c.903-1.917.67-3.696-.705-5.3-.264-.276-.315-.46-.064-.757Zm-4.1.465a3.552 3.552 0 0 1 3.971 3.018 3.592 3.592 0 0 1-3.093 4.005 3.457 3.457 0 0 1-3.964-3.086 3.41 3.41 0 0 1 3.086-3.937Zm-10.974 4.32c-1.208-1.532-1.135-3.499.174-4.8 1.309-1.302 3.186-1.425 4.8-.228.128.107.26.207.399.299 1.168.71 2 1.386 1.227 3.062-.634 1.375-.001 2.81.989 3.963.294.326.325.556.036.902-.535.633-.984 1.332-1.526 1.956a3.373 3.373 0 0 1-3.733 1.089 3.333 3.333 0 0 1-2.491-2.88 3.068 3.068 0 0 1 .3-2.018 1.094 1.094 0 0 0-.175-1.345Zm32.325 17.4a1.528 1.528 0 0 0-.974 1.36c-.936 6.896-6.184 12.81-12.89 14.609-.83.224-1.672.36-2.43.494A17.852 17.852 0 0 1 9.498 34.983a1.834 1.834 0 0 0-1.525-1.249 3.77 3.77 0 0 1-3.02-3.235c-.235-1.768.498-3.328 2.05-4.056a1.818 1.818 0 0 0 1.14-1.617 16.615 16.615 0 0 1 2.819-7.177c.282-.392.402-.552.812-.081 2.174 2.48 5.783 2.352 7.834-.24.09-.104.175-.214.254-.328.747-1.146 1.454-2.093 3.156-1.423 1.117.447 2.363-.043 3.346-.78.486-.366.77-.266 1.2.048.909.665 1.722 1.474 2.794 1.913a4.932 4.932 0 0 0 6.364-2.459c.3-.662.498-.511.9-.15a18.24 18.24 0 0 1 4.615 6.295 1.562 1.562 0 0 0 1.305 1.084 3.94 3.94 0 0 1 .988 7.427l.003-.007Z" fill="#5C9DFF"/><path d="M27.742 41.9c-3.495.235-6.396-.821-8.411-3.852-.28-.418-.618-.922-.045-1.292s.868.065 1.185.511c1.732 2.426 4.091 3.591 7.066 3.189 2.974-.403 5.022-2.11 6.027-4.988.172-.497.394-.915.974-.751.633.177.513.708.356 1.163-1.04 3.006-3.07 4.966-6.171 5.773l-.98.248ZM16.227 25.2a2.504 2.504 0 0 0-2.24 2.937 2.535 2.535 0 0 0 2.954 2.21 2.534 2.534 0 0 0 2.169-1.943c.078-.337.087-.686.026-1.026a2.505 2.505 0 0 0-2.91-2.179Zm.535 3.775a1.227 1.227 0 1 1-.36-2.428 1.227 1.227 0 0 1 .36 2.428Zm17.834-5.567a2.516 2.516 0 0 0-2.29 2.9 2.573 2.573 0 0 0 2.941 2.245 2.54 2.54 0 0 0 2.227-2.872 2.503 2.503 0 0 0-2.878-2.273Zm.461 3.792a1.326 1.326 0 0 1-1.38-1.067 1.267 1.267 0 0 1 1.136-1.37 1.217 1.217 0 0 1 1.317 1.097 1.267 1.267 0 0 1-1.073 1.34Z" fill="#5C9DFF"/></svg>