<svg width="44" height="41" fill="none" xmlns="http://www.w3.org/2000/svg"><path d="M22.87 41c-6.079-.06-10.865-4.03-11.999-10.012a17.037 17.037 0 0 1-.199-2.526c-.117-2.792-1.822-5.014-4.395-5.684a5.23 5.23 0 0 0-3.018.209c-.698.23-1.4.454-2.106.631a.514.514 0 0 1-.708-.316.486.486 0 0 1 .316-.631c1.84-.594 3.64-1.468 5.655-1.007 2.958.691 5.001 3.135 5.326 6.295.12 1.172.06 2.36.351 3.521a10.948 10.948 0 0 0 9.223 8.24c2.014.285 3.928.238 5.588-1.161a5.705 5.705 0 0 0 1.721-2.59c.774-2.263 1.15-4.628 1.743-6.945.474-1.848.846-3.752 2.1-5.299a7.24 7.24 0 0 1 4.777-2.64 12 12 0 0 1 5.503.639c.417.142.98.259.802.852-.176.594-.688.395-1.124.253-1.98-.632-4-.97-6.04-.382-2.125.612-3.45 2.08-4.149 4.174-.947 2.794-1.373 5.708-2.188 8.525-.495 1.733-1.127 3.312-2.605 4.474-1.357 1.048-2.904 1.399-4.575 1.38Z" fill="#5C9DFF"/><path d="M32.775 4.645c-1.548-.142-3.025.23-4.525.461a1.171 1.171 0 0 1-1.219-.432c-1.039-1.21-2.017-2.51-3.444-3.325-5.172-2.962-9.34.552-9.987 4.903-.275 1.86.157 3.474 1.578 4.81.307.323.59.67.843 1.038a1.554 1.554 0 0 1 .237 1.696c-.16.36-.3.729-.464 1.086-1.077 2.361-1.876 4.793-1.876 7.672a6.908 6.908 0 0 0 .49 2.763 1.56 1.56 0 0 0 1.579 1.102c.742-.006 1.165-.502 1.417-1.222.455-1.342.913-2.687 1.434-4.004.773-1.951 1.957-3.593 3.789-4.714.745-.454 1.263-.287 1.518.534a9.121 9.121 0 0 1 .269 4.59c-.37 1.895-1.121 3.663-1.768 5.463-.26.714-.272 1.342.315 1.866.588.524 1.31.483 1.977.104a7.521 7.521 0 0 0 2.084-1.784c1.746-2.055 2.703-4.499 3.347-7.07.495-1.982.751-2.351 2.728-2.563 2.576-.278 4.19-1.699 5.051-4.013 1.7-4.42-.268-8.5-5.373-8.96Zm4.767 7.057c-.445 2.065-1.263 3.934-3.57 4.582-.68.189-1.396.24-2.085.4-1.162.269-1.989.916-2.289 2.129a22.873 22.873 0 0 1-2.412 6.314c-.663 1.121-1.443 2.138-2.596 2.801-.258.148-.517.452-.846.155-.328-.297-.038-.55.067-.786a21.284 21.284 0 0 0 1.733-6.205c.18-1.553.18-3.094-.376-4.587a2.03 2.03 0 0 0-3.081-1.046c-2.447 1.529-3.672 3.97-4.81 6.476-.363.9-.68 1.82-.946 2.754-.082.249-.11.571-.43.587-.319.016-.442-.316-.533-.594-.584-1.762-.392-3.52.028-5.282a25.165 25.165 0 0 1 1.787-4.875 2.91 2.91 0 0 0-.445-3.366 10.84 10.84 0 0 0-.815-.963c-1.171-1.12-1.455-2.472-1.212-4.035.426-2.75 3.284-5.172 5.58-4.79a7.48 7.48 0 0 1 4.356 2.355c1.2 1.286 2.258 2.71 3.688 3.79.6.472 1.293.812 2.034.997.4.095.827.186.975-.335.149-.52-.243-.678-.657-.77-.764-.164-1.386-.594-2.15-1.137 1.794-.43 3.404-.631 5.052-.315 2.918.524 4.578 2.854 3.953 5.746Z" fill="#5C9DFF"/></svg>