<svg width="37" height="41" fill="none" xmlns="http://www.w3.org/2000/svg"><path fill-rule="evenodd" clip-rule="evenodd" d="M28.735 34.472a28.428 28.428 0 0 0-2.764-7.127 10.484 10.484 0 0 0-2.683-3.093c-.852-.688-1.813-.445-2.252.562a10.75 10.75 0 0 0-.929 4.216 28.835 28.835 0 0 0 1.483 9.361c.293.89.11 1.684-.517 2.159-.627.475-1.456.474-2.236-.061-1.402-.944-2.399-2.249-3.24-3.685a22.594 22.594 0 0 1-2.73-8.206l-.027-.188c-.463-3.132-.527-3.567-3.751-4.073-5.738-.887-7.875-9.609-3.89-13.69 1.95-1.993 4.386-2.696 7.092-2.579 1.505.063 2.94.477 4.377.892.319.092.637.184.957.272a1.2 1.2 0 0 0 1.226-.231c.51-.413.964-.876 1.419-1.342.277-.283.554-.567.846-.841a11.75 11.75 0 0 1 6.205-3.095 5.57 5.57 0 0 1 1.717-.025.615.615 0 0 0 .718-.371A5.323 5.323 0 0 0 30.411.75c.003-.31.006-.614.404-.71.372-.09.489.138.61.374a5.203 5.203 0 0 0 4.358 2.809l.038.003c.061.006.124.012.185.012.366-.008.732.019.834.454.097.412-.197.559-.475.698l-.047.024a5.25 5.25 0 0 0-1.86 1.7.847.847 0 0 0-.027 1.13 9.606 9.606 0 0 1 1.443 7.302 5.644 5.644 0 0 1-1.767 3.141c-.442.415-.867.85-1.29 1.283-.187.191-.374.382-.562.571a2.237 2.237 0 0 0-.575 2.408c.145.464.297.926.449 1.388.512 1.556 1.025 3.11 1.254 4.747.297 2.123.485 4.266.092 6.413a8.644 8.644 0 0 1-.966 2.666 1.762 1.762 0 0 1-3.343-.503c-.126-.575-.235-1.155-.328-1.648-.037-.196-.071-.378-.103-.54ZM19.813 9.695l.213.036c.125.022.233.041.34.049 1.097.134 2.21 0 3.245-.388.308-.13.66-.196.834.206.175.402-.102.644-.45.8a5.042 5.042 0 0 1-.496.17c-1.789.557-3.565.27-5.326-.13a85.302 85.302 0 0 1-2.886-.728c-.417-.11-.834-.221-1.252-.329-2.034-.526-4.02-.275-5.967.411a4.296 4.296 0 0 0-2.315 1.71c-1.38 2.234-1.994 4.624-1.133 7.235.784 2.375 2.167 4.073 4.77 4.55.73.178 1.443.414 2.134.705a2.87 2.87 0 0 1 1.854 2.084c.25.911.42 1.84.588 2.767l.016.093c.411 2.243.93 4.462 2.043 6.48.873 1.58 1.855 3.086 3.349 4.174a.826.826 0 0 0 1.037.051c.371-.26.268-.599.155-.942a30.068 30.068 0 0 1-1.376-6.061c-.326-2.76-.29-5.497.793-8.113.748-1.816 2.552-2.263 4.078-1.016 1.633 1.322 2.748 3.027 3.639 4.887a27.064 27.064 0 0 1 2.398 7.546c.01.064.017.131.024.199.048.426.1.887.709.93.616.044.767-.377.914-.786.021-.06.043-.118.065-.176.174-.436.316-.885.423-1.343.844-3.638.222-7.15-.98-10.584a16.266 16.266 0 0 1-.707-2.525 2.86 2.86 0 0 1 .627-2.45 17.137 17.137 0 0 1 1.967-2.037 4.995 4.995 0 0 0 1.766-3.441 8.748 8.748 0 0 0-1.233-5.627l-.023.293c-.023.29-.04.497-.039.7.001.266-.057.553-.394.64-.388.096-.55-.145-.68-.43a4.074 4.074 0 0 0-.987-1.302 5.194 5.194 0 0 0-3.438-1.466 2.989 2.989 0 0 0-.164 0c-.322.002-.654.006-.762-.416-.113-.44.193-.59.5-.74l.112-.056a1.023 1.023 0 0 0 .628-.571c-3.771.064-6.265 2.32-8.613 4.941ZM34.8 4.176a6.623 6.623 0 0 1-3.462-2.058 6.505 6.505 0 0 1-2.097 3.453A7.352 7.352 0 0 1 32.72 7.54a6.758 6.758 0 0 1 2.07-3.36l.012-.003ZM7.387 32.346c.296-.054.458.113.589.35.856 1.546 2.142 2.389 3.934 2.378.334-.002.605.106.681.45.077.342-.139.495-.397.64a4.37 4.37 0 0 0-2.358 3.979c-.005.28-.08.49-.371.572-.292.082-.506-.094-.656-.357a4.311 4.311 0 0 0-3.9-2.353c-.312-.009-.635-.065-.702-.444-.066-.38.147-.54.445-.699 1.534-.81 2.258-2.11 2.31-3.824v-.007c.02-.293.04-.594.425-.684Zm3.157 3.65a5.893 5.893 0 0 1-2.69-1.566 5.434 5.434 0 0 1-1.593 2.631 7.324 7.324 0 0 1 2.696 1.58 6.398 6.398 0 0 1 1.587-2.644ZM5.159 29.31a2.813 2.813 0 0 1-.558-1.206 6.698 6.698 0 0 0-.058-.456.477.477 0 0 0-.422-.452.45.45 0 0 0-.548.285 3.002 3.002 0 0 1-2.65 2.007.501.501 0 0 0-.459.489.484.484 0 0 0 .366.5 2.9 2.9 0 0 1 1.915 2.468.58.58 0 0 0 .458.597.555.555 0 0 0 .617-.43 2.879 2.879 0 0 1 2.296-1.81l.036-.006c.312-.056.639-.115.673-.526.031-.367-.23-.478-.49-.59l-.125-.055a2.812 2.812 0 0 1-1.05-.815Zm-1.17 1.872a5.728 5.728 0 0 0-.451.327L2.536 30.27c.115-.098.235-.216.355-.335.307-.305.62-.614.872-.59.352.033.905.74.906 1.151-.002.226-.333.45-.68.685Z" fill="#5C9DFF"/></svg>