<svg width="48" height="49" fill="none" xmlns="http://www.w3.org/2000/svg"><path d="M39.17 9.544c-1.901-3.813-5.157-5.905-9.354-6.155-4.322-.26-7.78 1.515-10.159 5.205a10.773 10.773 0 0 0-1.749 5.604c-.013.433-.11.55-.55.434-.775-.22-1.572-.358-2.35-.562a9.854 9.854 0 0 0-6.042.276c-2.23.824-3.893 2.263-4.64 4.58a8.905 8.905 0 0 0 .383 6.596c.977 2.147 2.494 3.682 4.94 4.083.384.064.75.232 1.133.301 1.682.314 2.524 1.329 2.72 3.015a24.4 24.4 0 0 0 2.174 7.46c.93 2.013 2.146 3.809 4.043 5.05a1.792 1.792 0 0 0 2.187-.067c.556-.435.738-1.114.457-1.927a28.498 28.498 0 0 1-1.513-6.717c-.197-2.19-.25-4.361.6-6.462.539-1.324 1.485-1.598 2.581-.691a11.092 11.092 0 0 1 2.574 3.033 22.462 22.462 0 0 1 2.64 6.642l.5 1.87.054.201c.174.968.604 1.453 1.39 1.566.868.126 1.58-.291 1.982-1.155a9.712 9.712 0 0 0 .899-3.391c.28-3.326-.436-6.49-1.535-9.598-.26-.738-.48-1.493-.669-2.25-.15-.561-.064-1.04.657-1.184.403-.1.794-.242 1.165-.427a11.217 11.217 0 0 0 5.481-15.33Zm-6.065 27.54c-.073 1.404-.232 2.798-.81 4.107-.177.406-.374.742-.893.718-.519-.024-.57-.42-.666-.821-.191-.808-.43-1.603-.645-2.405a21.774 21.774 0 0 0-3.109-7.327 11.71 11.71 0 0 0-2.636-2.805c-1.31-1.012-3.062-.505-3.71 1.03-.97 2.264-1.046 4.65-.832 7.052a27.784 27.784 0 0 0 1.585 6.982c.128.361.244.708-.143.995-.387.287-.785.159-1.133-.112-1.77-1.378-2.968-3.188-3.877-5.201a23.053 23.053 0 0 1-1.71-6.167 13.083 13.083 0 0 0-.537-2.147 2.521 2.521 0 0 0-1.399-1.455 11.647 11.647 0 0 0-2.887-.922c-2.276-.447-3.479-1.995-4.282-4.008-1.02-2.565-.505-4.986.792-7.286.544-.971 1.473-1.555 2.524-1.931a10.432 10.432 0 0 1 6.511-.284c.134.039.269.063.404.095.71.185 1.53.215 2.108.6.579.387.378 1.306.567 1.977 1.406 4.947 6.554 8.503 11.64 7.979.505-.052.873-.134.885.65.012.857.382 1.703.677 2.526.967 2.648 1.729 5.319 1.576 8.16Zm6.053-24.645c1.203 5.87-2.527 10.879-7.513 12.066-6.304 1.506-11.495-2.648-12.519-7.815-1.185-5.918 2.512-10.849 7.627-12.065a10.164 10.164 0 0 1 12.405 7.814Z" fill="#5C9DFF"/><path d="M34.89 11.692c-.145-.628-.488-.754-1.061-.575-.884.263-1.78.477-2.669.73-.374.1-.532.034-.627-.354-.226-.938-.501-1.87-.751-2.803-.126-.467-.383-.668-.856-.54l-2.87.768c-.43.115-.58.4-.441.843.139.444.25.935.376 1.403.125.468.224.942.375 1.4.141.41.023.567-.391.678-.919.217-1.823.488-2.74.72-.534.143-.703.423-.543.964.256.86.489 1.727.697 2.603.127.539.402.752.942.587.844-.226 1.7-.424 2.532-.696.55-.179.825-.126.945.514.163.856.453 1.69.655 2.54.131.555.426.714.953.567l2.603-.698c.596-.16.77-.472.574-1.064-.27-.882-.477-1.78-.732-2.668-.102-.38-.022-.533.36-.624.896-.214 1.78-.476 2.676-.702.644-.15.813-.482.617-1.105-.216-.83-.435-1.656-.623-2.488Zm-1.99 3.11c-.51.138-1.018.294-1.534.412-.568.123-.753.396-.594.987.273.903.489 1.825.733 2.736.099.369.022.521-.357.634-1.753.533-1.75.546-2.22-1.21-.143-.534-.303-1.064-.43-1.602-.127-.54-.375-.696-.883-.56-.933.25-1.874.488-2.8.75-.375.1-.52.02-.632-.357-.533-1.756-.546-1.75 1.204-2.219.49-.131.974-.287 1.467-.393.627-.13.85-.428.645-1.078-.278-.876-.477-1.78-.735-2.667-.1-.377-.018-.52.358-.631 1.756-.534 1.753-.545 2.223 1.208l.072.268c.118.443.257.884.358 1.336.112.525.4.674.901.531l2.8-.75c.377-.101.52-.016.635.357.53 1.763.543 1.76-1.216 2.23l.005.019Z" fill="#5C9DFF"/></svg>