<svg width="301" height="73" fill="none" xmlns="http://www.w3.org/2000/svg"><path d="M0 .679h9.678l11.178 10.353L32.26.679h9.602V26.71H30.91V12.157l-8.402 8.177h-3.001l-8.478-8.252v15.005H0V.678Zm45.013 0H73.67v6.377H55.966v3.45H70.97v6.002H55.966v3.752h17.93v6.451H45.013V.68Z" fill="#000"/><path d="M83.349 25.438a19.132 19.132 0 0 1-7.502-4.952 9.753 9.753 0 0 1-2.851-6.827 9.903 9.903 0 0 1 2.626-6.902 21.156 21.156 0 0 1 7.502-4.952 31.284 31.284 0 0 1 11.028-1.8 31.588 31.588 0 0 1 8.703 1.2 24.313 24.313 0 0 1 7.502 3.451 9 9 0 0 1 3.826 5.327H103.08a8.553 8.553 0 0 0-3.751-2.55 16.805 16.805 0 0 0-5.477-.826 14.03 14.03 0 0 0-5.102.825 8.478 8.478 0 0 0-3.676 2.4 5.702 5.702 0 0 0-1.35 3.827 5.852 5.852 0 0 0 1.35 3.901 8.703 8.703 0 0 0 3.677 2.4 15.51 15.51 0 0 0 5.101.751 18.235 18.235 0 0 0 5.252-.675 5.324 5.324 0 0 0 3-2.25h-8.702v-5.628h21.081a12.982 12.982 0 0 1-1.95 8.178 15.008 15.008 0 0 1-7.503 5.177 31.585 31.585 0 0 1-11.253 1.8c-3.563.036-7.1-.6-10.428-1.875Zm56.641 1.273-2.101-3.526h-15.004l-2.101 3.526H109.23L125.285.68h10.203l16.13 26.032H139.99Zm-13.654-9.527h8.102l-3.676-6.227V9.98v.976l-4.426 6.227ZM178.327.68a34.063 34.063 0 0 1 11.179 1.651 16.21 16.21 0 0 1 7.502 4.577 9.68 9.68 0 0 1 2.701 6.751 10.128 10.128 0 0 1-2.626 6.828 18.005 18.005 0 0 1-7.502 4.576 36.166 36.166 0 0 1-11.179 1.65h-16.88V.681h16.805Zm7.503 17.931a5.704 5.704 0 0 0 0-9.753 14.257 14.257 0 0 0-7.803-1.8h-5.476v13.279h5.626a15.007 15.007 0 0 0 7.728-1.726h-.075ZM200.531.679h28.659v6.377h-17.705v3.45h15.004v6.002h-15.004v3.752h17.93v6.451h-28.884V.68Zm30.092 0h9.453l16.73 14.329V.678h10.953v26.033h-9.528l-16.655-14.404v14.404h-10.953V.68Zm48.162 6.377h-10.429V.679h31.735v6.377h-10.503V26.71h-10.803V7.056Z" fill="#000"/><rect x="72.166" y="39.732" width="154.874" height="32.605" rx="6.793" fill="#E3EEFF"/><path d="M89.276 61.99c-1.2 0-2.228-.26-3.084-.783a5.235 5.235 0 0 1-1.974-2.2c-.456-.939-.684-2.028-.684-3.267 0-1.239.228-2.327.683-3.266.462-.94 1.12-1.67 1.975-2.192.856-.528 1.884-.792 3.084-.792 1.383 0 2.536.348 3.458 1.042.922.689 1.57 1.62 1.942 2.792l-2.025.558c-.234-.783-.63-1.394-1.192-1.833-.561-.445-1.289-.667-2.183-.667-.806 0-1.478.18-2.017.542-.533.36-.936.87-1.208 1.525-.267.65-.403 1.414-.409 2.291 0 .878.134 1.645.4 2.3.273.65.678 1.156 1.217 1.517s1.211.542 2.017.542c.894 0 1.622-.223 2.183-.667.561-.445.958-1.056 1.192-1.833l2.025.558c-.373 1.172-1.02 2.106-1.942 2.8-.922.689-2.075 1.033-3.458 1.033Zm9.488-.25v-7.216h-3.009V52.74h8.025v1.784h-3.008v7.216h-2.008Zm10.408.25c-.9 0-1.687-.203-2.359-.608a4.177 4.177 0 0 1-1.566-1.675c-.367-.717-.55-1.539-.55-2.467 0-.944.189-1.772.566-2.483a4.18 4.18 0 0 1 1.575-1.667c.672-.4 1.45-.6 2.334-.6.905 0 1.694.203 2.366.609a4.165 4.165 0 0 1 1.567 1.683c.372.711.558 1.53.558 2.458 0 .934-.189 1.759-.566 2.475a4.186 4.186 0 0 1-1.567 1.675c-.672.4-1.458.6-2.358.6Zm0-1.883c.8 0 1.394-.267 1.783-.8s.583-1.222.583-2.067c0-.872-.197-1.566-.591-2.083-.395-.522-.987-.783-1.775-.783-.539 0-.984.122-1.334.366-.344.24-.6.575-.766 1.009-.167.427-.25.925-.25 1.491 0 .872.197 1.57.591 2.092.4.517.986.775 1.759.775Zm6.311 1.633v-9h1.65l3.224 6.217 3.234-6.217h1.641v9h-1.916v-4.958l-2.559 4.958h-.791l-2.558-4.958v4.958h-1.925Zm14.593.25c-.65 0-1.2-.122-1.65-.366a2.6 2.6 0 0 1-1.025-.992 2.753 2.753 0 0 1-.341-1.358c0-.434.072-.823.216-1.167.145-.35.367-.65.667-.9.3-.256.689-.464 1.167-.625a11.1 11.1 0 0 1 1.266-.317 29.64 29.64 0 0 1 1.584-.258c.572-.083 1.169-.172 1.791-.267l-.716.409c.005-.623-.134-1.08-.417-1.375-.283-.295-.761-.442-1.433-.442a2.59 2.59 0 0 0-1.175.283c-.378.19-.642.514-.792.975l-1.833-.575a3.405 3.405 0 0 1 1.266-1.833c.628-.461 1.472-.692 2.534-.692.8 0 1.502.13 2.108.392a2.616 2.616 0 0 1 1.358 1.283c.161.317.259.642.292.975.033.328.05.686.05 1.075v5.525h-1.758v-1.95l.291.317c-.405.65-.88 1.128-1.425 1.433-.539.3-1.214.45-2.025.45Zm.4-1.6c.456 0 .845-.08 1.167-.241a2.28 2.28 0 0 0 .767-.592c.194-.233.325-.453.391-.658.106-.256.164-.548.175-.875.017-.334.025-.603.025-.809l.617.184c-.606.094-1.125.177-1.558.25-.434.072-.806.141-1.117.208-.311.061-.586.13-.825.208a2.56 2.56 0 0 0-.592.292 1.295 1.295 0 0 0-.375.383 1.003 1.003 0 0 0-.125.509c0 .222.056.419.167.591.111.167.272.3.483.4.217.1.484.15.8.15Zm8.945 1.35v-7.216h-3.009V52.74h8.025v1.784h-3.008v7.216h-2.008Zm8.9.25c-.65 0-1.2-.122-1.65-.366a2.6 2.6 0 0 1-1.025-.992 2.763 2.763 0 0 1-.341-1.358c0-.434.072-.823.216-1.167.145-.35.367-.65.667-.9.3-.256.689-.464 1.167-.625a11.1 11.1 0 0 1 1.266-.317 29.64 29.64 0 0 1 1.584-.258c.572-.083 1.169-.172 1.791-.267l-.716.409c.005-.623-.134-1.08-.417-1.375-.283-.295-.761-.442-1.433-.442-.406 0-.797.094-1.175.283-.378.19-.642.514-.792.975l-1.833-.575a3.405 3.405 0 0 1 1.266-1.833c.628-.461 1.473-.692 2.534-.692.8 0 1.502.13 2.108.392a2.616 2.616 0 0 1 1.358 1.283c.161.317.259.642.292.975.033.328.05.686.05 1.075v5.525h-1.758v-1.95l.291.317c-.405.65-.88 1.128-1.425 1.433-.538.3-1.213.45-2.025.45Zm.4-1.6c.456 0 .845-.08 1.167-.241a2.28 2.28 0 0 0 .767-.592c.194-.233.325-.453.391-.658.106-.256.164-.548.175-.875.017-.334.025-.603.025-.809l.617.184c-.606.094-1.125.177-1.558.25-.434.072-.806.141-1.117.208-.311.061-.586.13-.825.208a2.58 2.58 0 0 0-.592.292 1.295 1.295 0 0 0-.375.383 1.003 1.003 0 0 0-.125.509c0 .222.056.419.167.591.111.167.272.3.483.4.217.1.484.15.8.15Zm5.853 1.35v-1.683c.328.061.581.055.759-.017a.775.775 0 0 0 .4-.433c.088-.211.166-.492.233-.842.089-.494.167-1.064.233-1.708a48.12 48.12 0 0 0 .184-2.067c.055-.733.105-1.483.15-2.25h6.624v9h-2v-7.116h-2.858a134.554 134.554 0 0 1-.225 2.566c-.044.456-.094.89-.15 1.3-.05.406-.103.753-.158 1.042-.128.65-.311 1.164-.55 1.542a1.568 1.568 0 0 1-.983.725c-.423.11-.975.091-1.659-.059Zm14.899.25c-.9 0-1.686-.203-2.358-.608a4.177 4.177 0 0 1-1.566-1.675c-.367-.717-.55-1.539-.55-2.467 0-.944.188-1.772.566-2.483a4.18 4.18 0 0 1 1.575-1.667c.672-.4 1.45-.6 2.333-.6.906 0 1.695.203 2.367.609a4.165 4.165 0 0 1 1.567 1.683c.372.711.558 1.53.558 2.458 0 .934-.189 1.759-.567 2.475a4.176 4.176 0 0 1-1.566 1.675c-.672.4-1.459.6-2.359.6Zm0-1.883c.8 0 1.395-.267 1.784-.8s.583-1.222.583-2.067c0-.872-.197-1.566-.592-2.083-.394-.522-.986-.783-1.775-.783-.538 0-.983.122-1.333.366-.344.24-.6.575-.766 1.009-.167.427-.25.925-.25 1.491 0 .872.197 1.57.591 2.092.4.517.986.775 1.758.775Zm6.328 1.633v-9h6.417v1.884h-4.409v7.116h-2.008Zm11.82.25c-.9 0-1.686-.203-2.358-.608a4.172 4.172 0 0 1-1.567-1.675c-.367-.717-.55-1.539-.55-2.467 0-.944.189-1.772.567-2.483a4.174 4.174 0 0 1 1.575-1.667c.672-.4 1.45-.6 2.333-.6.906 0 1.694.203 2.367.609a4.163 4.163 0 0 1 1.566 1.683c.373.711.559 1.53.559 2.458 0 .934-.189 1.759-.567 2.475a4.172 4.172 0 0 1-1.567 1.675c-.672.4-1.458.6-2.358.6Zm0-1.883c.8 0 1.394-.267 1.783-.8s.584-1.222.584-2.067c0-.872-.198-1.566-.592-2.083-.394-.522-.986-.783-1.775-.783-.539 0-.983.122-1.333.366-.345.24-.6.575-.767 1.009-.167.427-.25.925-.25 1.491 0 .872.197 1.57.592 2.092.4.517.986.775 1.758.775Zm14.128-7.367v9h-1.925v-5.875l-4.284 5.875h-1.608v-9h1.925v5.725l4.3-5.725h1.592Zm7.723 9v-3h-1.609c-.205 0-.463-.005-.775-.016a6.729 6.729 0 0 1-.858-.084c-.694-.127-1.269-.43-1.725-.908-.455-.483-.683-1.139-.683-1.967 0-.81.216-1.464.65-1.958.433-.494.997-.811 1.691-.95.289-.061.587-.094.892-.1.311-.011.57-.017.775-.017h3.65v9h-2.008Zm-5.884 0 2.15-3.441h2.092l-2.133 3.441h-2.109Zm4.067-4.575h1.817v-2.85h-1.817c-.105 0-.233.006-.383.017-.15.011-.3.036-.45.075-.161.05-.314.136-.459.258a1.493 1.493 0 0 0-.358.459 1.35 1.35 0 0 0-.142.625c0 .35.1.641.3.875.206.227.445.38.717.458.133.033.27.056.408.067.145.01.267.016.367.016Z" fill="#5C9DFF"/></svg>