<svg width="184" height="17" fill="none" xmlns="http://www.w3.org/2000/svg"><path d="M0 .417h5.931l6.85 6.345 6.99-6.345h5.884v15.954h-6.713v-8.92l-5.149 5.012h-1.839L6.759 7.406V16.6H0V.417Zm27.586 0h17.563v3.908H34.3V6.44h9.195v3.678H34.3v2.299h10.988v3.954H27.586V.417Z" fill="#fff"/><path d="M51.081 15.59a11.725 11.725 0 0 1-4.598-3.035 5.977 5.977 0 0 1-1.747-4.184 6.07 6.07 0 0 1 1.61-4.23 12.966 12.966 0 0 1 4.597-3.035A19.172 19.172 0 0 1 57.702.003a19.356 19.356 0 0 1 5.333.736 14.898 14.898 0 0 1 4.598 2.115 5.518 5.518 0 0 1 2.345 3.264h-6.805a5.242 5.242 0 0 0-2.299-1.563 10.298 10.298 0 0 0-3.356-.506 8.597 8.597 0 0 0-3.126.506 5.195 5.195 0 0 0-2.253 1.471 3.494 3.494 0 0 0-.828 2.345c-.024.87.27 1.72.828 2.39a5.333 5.333 0 0 0 2.253 1.472 9.518 9.518 0 0 0 3.126.46 11.14 11.14 0 0 0 3.218-.414 3.265 3.265 0 0 0 1.84-1.38h-5.334V7.452h12.92a7.954 7.954 0 0 1-1.196 5.012 9.196 9.196 0 0 1-4.597 3.172 19.357 19.357 0 0 1-6.897 1.104 17.377 17.377 0 0 1-6.39-1.15Zm34.713.781-1.287-2.16H75.31l-1.287 2.16h-7.08L76.781.417h6.253l9.885 15.954h-7.126Zm-8.368-5.84h4.966l-2.253-3.815v-.598.598l-2.713 3.816ZM109.286.417a20.879 20.879 0 0 1 6.851 1.012 9.932 9.932 0 0 1 4.597 2.804 5.931 5.931 0 0 1 1.656 4.138 6.21 6.21 0 0 1-1.61 4.184 11.034 11.034 0 0 1-4.597 2.805 22.163 22.163 0 0 1-6.851 1.011H98.987V.417h10.299Zm4.598 10.989a3.495 3.495 0 0 0 0-5.977 8.737 8.737 0 0 0-4.782-1.104h-3.356v8.138h3.448a9.199 9.199 0 0 0 4.736-1.057h-.046ZM122.896.417h17.564v3.908h-10.851V6.44h9.196v3.678h-9.196v2.299h10.989v3.954h-17.702V.417Zm18.439 0h5.793l10.253 8.782V.417h6.713v15.954h-5.84l-10.206-8.828v8.828h-6.713V.417Zm29.516 3.908h-6.391V.417h19.448v3.908h-6.437v12.046h-6.62V4.325Z" fill="#fff"/></svg>