<svg width="307" height="24" fill="none" xmlns="http://www.w3.org/2000/svg"><rect x="193" width="114" height="24" rx="5" fill="#E3EEFF"/><path d="M0 4.413h5.931l6.85 6.345 6.99-6.345h5.884v15.954h-6.713v-8.92l-5.149 5.012h-1.839l-5.195-5.057v9.195H0V4.413Zm27.586 0h17.563v3.908H34.3v2.115h9.195v3.678H34.3v2.3h10.988v3.953H27.586V4.413Z" fill="#131313"/><path d="M51.08 19.586a11.725 11.725 0 0 1-4.597-3.034 5.977 5.977 0 0 1-1.748-4.184 6.07 6.07 0 0 1 1.61-4.23 12.966 12.966 0 0 1 4.597-3.034A19.173 19.173 0 0 1 57.701 4a19.357 19.357 0 0 1 5.333.736 14.896 14.896 0 0 1 4.598 2.115 5.518 5.518 0 0 1 2.345 3.264h-6.805a5.242 5.242 0 0 0-2.299-1.563 10.3 10.3 0 0 0-3.356-.506 8.598 8.598 0 0 0-3.126.506 5.196 5.196 0 0 0-2.253 1.471 3.495 3.495 0 0 0-.828 2.345c-.024.87.27 1.72.828 2.39a5.333 5.333 0 0 0 2.253 1.472 9.515 9.515 0 0 0 3.126.46c1.087.02 2.171-.12 3.218-.414a3.264 3.264 0 0 0 1.84-1.38H57.24v-3.448h12.92a7.954 7.954 0 0 1-1.196 5.012 9.196 9.196 0 0 1-4.597 3.172 19.357 19.357 0 0 1-6.897 1.104 17.38 17.38 0 0 1-6.39-1.15Zm34.712.781-1.287-2.16h-9.196l-1.287 2.16h-7.08L76.78 4.413h6.252l9.885 15.954h-7.126Zm-8.368-5.839h4.966l-2.253-3.816v-.598.598l-2.713 3.816Zm31.863-10.114a20.879 20.879 0 0 1 6.851 1.012 9.932 9.932 0 0 1 4.597 2.804 5.931 5.931 0 0 1 1.656 4.138 6.21 6.21 0 0 1-1.61 4.184 11.035 11.035 0 0 1-4.597 2.805 22.166 22.166 0 0 1-6.851 1.011H98.988V4.414h10.299Zm4.598 10.989a3.495 3.495 0 0 0 0-5.977 8.737 8.737 0 0 0-4.782-1.104h-3.356v8.138h3.448a9.197 9.197 0 0 0 4.736-1.057h-.046Zm9.01-10.99h17.563v3.908h-10.851v2.115h9.196v3.678h-9.196v2.3h10.989v3.953h-17.701V4.413Zm18.441 0h5.793l10.253 8.782V4.413h6.713v15.954h-5.84l-10.206-8.828v8.828h-6.713V4.413Zm29.516 3.908h-6.391V4.413h19.448v3.908h-6.437v12.046h-6.62V8.321Z" fill="#131313"/><path d="M205.594 16.134c-.883 0-1.639-.192-2.269-.576a3.849 3.849 0 0 1-1.454-1.62c-.335-.69-.503-1.492-.503-2.404 0-.912.168-1.714.503-2.405a3.809 3.809 0 0 1 1.454-1.613c.63-.388 1.386-.583 2.269-.583 1.019 0 1.867.256 2.546.767.679.507 1.155 1.192 1.429 2.055l-1.49.41c-.172-.576-.465-1.026-.878-1.349-.413-.327-.948-.49-1.607-.49-.593 0-1.087.133-1.484.398-.393.266-.689.64-.89 1.123-.196.478-.296 1.04-.3 1.687 0 .646.098 1.21.294 1.693.201.478.499.85.896 1.116.397.266.891.399 1.484.399.659 0 1.194-.164 1.607-.49.413-.328.706-.778.878-1.35l1.49.41c-.274.863-.75 1.55-1.429 2.062-.679.507-1.527.76-2.546.76Zm6.984-.184v-5.312h-2.214V9.326h5.907v1.312h-2.215v5.312h-1.478Zm7.661.184c-.662 0-1.241-.149-1.736-.448a3.08 3.08 0 0 1-1.153-1.232c-.27-.528-.405-1.133-.405-1.816 0-.695.139-1.305.417-1.828a3.082 3.082 0 0 1 1.16-1.227c.495-.294 1.067-.441 1.717-.441.667 0 1.248.149 1.742.447.495.299.88.712 1.154 1.24.274.523.411 1.126.411 1.809 0 .687-.14 1.294-.418 1.822a3.074 3.074 0 0 1-1.153 1.233c-.495.294-1.073.441-1.736.441Zm0-1.386c.589 0 1.027-.196 1.313-.589.286-.393.429-.9.429-1.521 0-.642-.145-1.153-.435-1.534-.291-.384-.726-.576-1.307-.576-.396 0-.723.09-.981.27a1.546 1.546 0 0 0-.564.742c-.123.315-.184.68-.184 1.098 0 .642.145 1.155.435 1.54.294.38.726.57 1.294.57Zm4.646 1.202V9.326h1.214l2.374 4.575 2.38-4.575h1.208v6.624h-1.41V12.3l-1.883 3.65h-.583l-1.883-3.65v3.65h-1.417Zm10.742.184c-.479 0-.883-.09-1.215-.27a1.91 1.91 0 0 1-.754-.73 2.025 2.025 0 0 1-.252-1c0-.318.054-.605.16-.858a1.69 1.69 0 0 1 .491-.663c.22-.188.507-.341.858-.46a8.23 8.23 0 0 1 .933-.233c.36-.07.748-.133 1.165-.19.421-.061.861-.127 1.319-.196l-.528.3c.005-.458-.098-.795-.306-1.012-.209-.216-.56-.325-1.055-.325-.299 0-.587.07-.865.209-.278.139-.473.378-.583.717L233.646 11c.163-.56.474-1.01.932-1.35.462-.339 1.084-.508 1.865-.508.589 0 1.106.096 1.552.288.449.192.783.507.999.944a2 2 0 0 1 .215.718c.025.241.037.505.037.791v4.067h-1.294v-1.435l.214.233c-.298.478-.648.83-1.049 1.055-.396.22-.893.331-1.49.331Zm.294-1.178c.336 0 .622-.059.859-.177.237-.119.425-.264.564-.436a1.49 1.49 0 0 0 .289-.485c.077-.188.12-.402.128-.644.013-.245.019-.443.019-.595l.454.135c-.446.07-.828.131-1.147.184a19.87 19.87 0 0 0-.822.154 5.202 5.202 0 0 0-.607.153 1.889 1.889 0 0 0-.436.215.941.941 0 0 0-.276.282.739.739 0 0 0-.092.374c0 .164.041.309.123.436.081.122.2.22.355.294.16.074.356.11.589.11Zm6.584.994v-5.312h-2.214V9.326h5.907v1.312h-2.215v5.312h-1.478Zm6.552.184c-.479 0-.883-.09-1.215-.27a1.91 1.91 0 0 1-.754-.73 2.025 2.025 0 0 1-.252-1c0-.318.054-.605.16-.858a1.69 1.69 0 0 1 .491-.663c.22-.188.507-.341.858-.46a8.23 8.23 0 0 1 .933-.233c.36-.07.748-.133 1.165-.19.421-.061.861-.127 1.319-.196l-.528.3c.005-.458-.098-.795-.306-1.012-.209-.216-.561-.325-1.055-.325-.299 0-.587.07-.865.209-.278.139-.473.378-.583.717L247.076 11c.163-.56.474-1.01.932-1.35.462-.339 1.084-.508 1.865-.508.589 0 1.106.096 1.552.288.449.192.783.507.999.944a2 2 0 0 1 .215.718c.025.241.037.505.037.791v4.067h-1.294v-1.435l.214.233c-.298.478-.648.83-1.049 1.055-.396.22-.893.331-1.49.331Zm.294-1.178c.336 0 .622-.059.859-.177.237-.119.425-.264.564-.436.143-.172.24-.333.289-.485.077-.188.12-.402.128-.644.013-.245.019-.443.019-.595l.454.135c-.446.07-.828.131-1.147.184a19.87 19.87 0 0 0-.822.154 5.202 5.202 0 0 0-.607.153 1.889 1.889 0 0 0-.436.215.941.941 0 0 0-.276.282.739.739 0 0 0-.092.374c0 .164.041.309.123.436.081.122.2.22.355.294.16.074.356.11.589.11Zm4.308.994v-1.239c.242.045.428.041.559-.012a.57.57 0 0 0 .294-.32c.065-.154.123-.361.172-.619.065-.364.122-.783.172-1.257.053-.474.098-.982.134-1.521.041-.54.078-1.092.111-1.656h4.876v6.624h-1.472v-5.238h-2.104a101.167 101.167 0 0 1-.165 1.89c-.033.334-.07.653-.111.956a11.85 11.85 0 0 1-.116.767c-.094.478-.229.856-.405 1.135a1.152 1.152 0 0 1-.724.533c-.311.082-.718.068-1.221-.043Zm10.968.184c-.663 0-1.242-.149-1.736-.448a3.076 3.076 0 0 1-1.154-1.232c-.269-.528-.404-1.133-.404-1.816 0-.695.139-1.305.417-1.828a3.073 3.073 0 0 1 1.159-1.227c.495-.294 1.067-.441 1.718-.441.666 0 1.247.149 1.742.447a3.07 3.07 0 0 1 1.153 1.24c.274.523.411 1.126.411 1.809 0 .687-.139 1.294-.417 1.822a3.076 3.076 0 0 1-1.154 1.233c-.494.294-1.073.441-1.735.441Zm0-1.386c.588 0 1.026-.196 1.312-.589.286-.393.43-.9.43-1.521 0-.642-.146-1.153-.436-1.534-.29-.384-.726-.576-1.306-.576-.397 0-.724.09-.982.27a1.552 1.552 0 0 0-.564.742c-.123.315-.184.68-.184 1.098 0 .642.145 1.155.435 1.54.295.38.726.57 1.295.57Zm4.657 1.202V9.326h4.723v1.386h-3.245v5.238h-1.478Zm8.701.184c-.663 0-1.241-.149-1.736-.448a3.074 3.074 0 0 1-1.153-1.232c-.27-.528-.405-1.133-.405-1.816 0-.695.139-1.305.417-1.828a3.073 3.073 0 0 1 1.159-1.227c.495-.294 1.067-.441 1.718-.441.666 0 1.247.149 1.742.447a3.07 3.07 0 0 1 1.153 1.24c.274.523.411 1.126.411 1.809 0 .687-.139 1.294-.417 1.822a3.08 3.08 0 0 1-1.153 1.233c-.495.294-1.074.441-1.736.441Zm0-1.386c.588 0 1.026-.196 1.312-.589.287-.393.43-.9.43-1.521 0-.642-.145-1.153-.436-1.534-.29-.384-.726-.576-1.306-.576-.397 0-.724.09-.982.27a1.558 1.558 0 0 0-.564.742c-.123.315-.184.68-.184 1.098 0 .642.145 1.155.435 1.54.295.38.726.57 1.295.57Zm10.399-5.422v6.624h-1.417v-4.324l-3.153 4.324h-1.184V9.326h1.417v4.214l3.165-4.214h1.172Zm5.685 6.624v-2.208h-1.184c-.152 0-.342-.004-.571-.012a4.928 4.928 0 0 1-.631-.062 2.27 2.27 0 0 1-1.27-.668c-.336-.356-.503-.838-.503-1.448 0-.597.159-1.077.478-1.441a2.169 2.169 0 0 1 1.245-.7 3.39 3.39 0 0 1 .657-.073c.229-.008.419-.012.57-.012h2.687v6.624h-1.478Zm-4.331 0 1.583-2.533h1.539l-1.57 2.533h-1.552Zm2.993-3.367h1.338v-2.098h-1.338c-.077 0-.171.004-.282.012a1.87 1.87 0 0 0-.331.055.956.956 0 0 0-.337.19c-.107.09-.195.203-.264.338a.984.984 0 0 0-.104.46c0 .258.073.472.22.644.152.168.328.28.528.337.098.025.198.041.301.05.106.008.196.012.269.012Z" fill="#5C9DFF"/></svg>