<svg width="184" height="51" fill="none" xmlns="http://www.w3.org/2000/svg"><path d="M0 .733h5.931l6.85 6.345 6.99-6.345h5.884v15.954h-6.713v-8.92l-5.149 5.012h-1.839L6.759 7.722v9.195H0V.733Zm27.587 0H45.15v3.908H34.3v2.115h9.195v3.678H34.3v2.3h10.988v3.953H27.587V.733Z" fill="#000"/><path d="M51.081 15.906a11.725 11.725 0 0 1-4.598-3.035 5.977 5.977 0 0 1-1.747-4.184 6.07 6.07 0 0 1 1.61-4.23 12.966 12.966 0 0 1 4.597-3.034A19.173 19.173 0 0 1 57.702.319a19.356 19.356 0 0 1 5.333.736 14.897 14.897 0 0 1 4.598 2.115 5.518 5.518 0 0 1 2.345 3.264h-6.805a5.242 5.242 0 0 0-2.299-1.563 10.299 10.299 0 0 0-3.356-.506 8.597 8.597 0 0 0-3.126.506 5.195 5.195 0 0 0-2.253 1.471 3.494 3.494 0 0 0-.828 2.345c-.024.871.27 1.721.828 2.391a5.333 5.333 0 0 0 2.253 1.471 9.518 9.518 0 0 0 3.126.46 11.14 11.14 0 0 0 3.218-.414 3.265 3.265 0 0 0 1.84-1.379h-5.334V7.768h12.92a7.954 7.954 0 0 1-1.196 5.011 9.196 9.196 0 0 1-4.597 3.173 19.357 19.357 0 0 1-6.897 1.103 17.377 17.377 0 0 1-6.39-1.15Zm34.713.781-1.287-2.16H75.31l-1.287 2.16h-7.08L76.781.733h6.253l9.885 15.954h-7.126Zm-8.368-5.839h4.966l-2.253-3.816v-.597.597l-2.713 3.816ZM109.286.734a20.879 20.879 0 0 1 6.851 1.011 9.932 9.932 0 0 1 4.597 2.805 5.931 5.931 0 0 1 1.656 4.138 6.21 6.21 0 0 1-1.61 4.184 11.034 11.034 0 0 1-4.597 2.804 22.163 22.163 0 0 1-6.851 1.012H98.987V.734h10.299Zm4.598 10.988a3.495 3.495 0 0 0 0-5.977 8.737 8.737 0 0 0-4.782-1.103h-3.356v8.138h3.448a9.199 9.199 0 0 0 4.736-1.058h-.046ZM122.896.733h17.564v3.908h-10.851v2.115h9.196v3.678h-9.196v2.3h10.989v3.953h-17.702V.733Zm18.439 0h5.793l10.253 8.782V.733h6.713v15.954h-5.84L148.048 7.86v8.827h-6.713V.733Zm29.516 3.908h-6.391V.733h19.448v3.908h-6.437v12.046h-6.62V4.641Z" fill="#000"/><rect x=".35" y="26.67" width="183.3" height="23.3" rx="4.65" stroke="#000" stroke-width=".7"/><path d="M47.28 42.504c-.883 0-1.64-.192-2.27-.576a3.852 3.852 0 0 1-1.453-1.62c-.335-.69-.503-1.492-.503-2.404 0-.912.168-1.714.503-2.405a3.812 3.812 0 0 1 1.454-1.613c.63-.388 1.386-.583 2.27-.583 1.018 0 1.866.256 2.545.767.679.507 1.155 1.192 1.43 2.055l-1.491.411c-.172-.577-.465-1.026-.878-1.35-.413-.327-.948-.49-1.607-.49-.593 0-1.087.133-1.484.398-.393.266-.69.64-.89 1.123-.196.479-.296 1.04-.3 1.687 0 .646.098 1.21.294 1.693.2.478.5.85.896 1.116.397.266.891.399 1.484.399.659 0 1.194-.164 1.607-.49.413-.328.706-.778.878-1.35l1.49.41c-.274.864-.75 1.55-1.43 2.062-.678.507-1.526.76-2.545.76Zm6.984-.184v-5.312H52.05v-1.312h5.907v1.312h-2.215v5.312h-1.478Zm7.661.184c-.662 0-1.24-.149-1.736-.447a3.076 3.076 0 0 1-1.153-1.233c-.27-.528-.405-1.133-.405-1.816 0-.695.14-1.305.417-1.828a3.075 3.075 0 0 1 1.16-1.227c.495-.294 1.067-.441 1.717-.441.667 0 1.248.149 1.742.447.495.299.88.712 1.153 1.24.275.523.412 1.126.412 1.809 0 .687-.14 1.294-.418 1.822a3.076 3.076 0 0 1-1.153 1.233c-.495.294-1.073.441-1.736.441Zm0-1.386c.59 0 1.027-.196 1.313-.589.286-.392.43-.9.43-1.521 0-.642-.146-1.153-.436-1.534-.29-.384-.726-.576-1.307-.576-.396 0-.723.09-.981.27a1.553 1.553 0 0 0-.565.742c-.122.315-.183.68-.183 1.098 0 .642.145 1.155.435 1.54.294.38.726.57 1.294.57Zm4.646 1.202v-6.624h1.214l2.374 4.576 2.38-4.576h1.208v6.624h-1.41v-3.65l-1.883 3.65h-.583l-1.883-3.65v3.65H66.57Zm10.742.184c-.479 0-.883-.09-1.215-.27a1.908 1.908 0 0 1-.754-.73 2.028 2.028 0 0 1-.252-1 2.2 2.2 0 0 1 .16-.858c.106-.258.27-.479.49-.663.221-.188.508-.341.86-.46.265-.086.576-.163.932-.233.36-.07.748-.133 1.165-.19.421-.061.86-.127 1.319-.196l-.528.3c.005-.458-.098-.795-.306-1.012-.209-.216-.56-.325-1.055-.325-.299 0-.587.07-.865.209-.278.139-.472.378-.583.718l-1.35-.424c.164-.56.475-1.01.933-1.35.462-.339 1.084-.508 1.865-.508.588 0 1.106.096 1.552.288.45.192.783.507 1 .945.118.233.19.472.214.717.025.241.037.505.037.791v4.067h-1.294v-1.435l.214.233c-.298.478-.648.83-1.049 1.055-.396.22-.893.331-1.49.331Zm.294-1.177c.336 0 .622-.06.86-.178.236-.119.424-.264.563-.436.144-.172.24-.333.289-.484.077-.188.12-.403.129-.644.012-.246.018-.444.018-.595l.454.134c-.446.07-.828.131-1.147.184-.32.054-.593.105-.822.154a5.255 5.255 0 0 0-.607.153 1.882 1.882 0 0 0-.436.215.95.95 0 0 0-.276.282.736.736 0 0 0-.092.374c0 .164.04.309.123.436.082.123.2.22.355.294.16.074.356.11.59.11Zm6.584.993v-5.312h-2.214v-1.312h5.907v1.312h-2.215v5.312h-1.478Zm6.552.184c-.479 0-.883-.09-1.215-.27a1.908 1.908 0 0 1-.754-.73 2.028 2.028 0 0 1-.252-1 2.2 2.2 0 0 1 .16-.858c.106-.258.27-.479.49-.663.221-.188.508-.341.86-.46.265-.086.576-.163.932-.233.36-.07.748-.133 1.165-.19.421-.061.86-.127 1.319-.196l-.528.3c.004-.458-.098-.795-.306-1.012-.209-.216-.56-.325-1.055-.325-.299 0-.587.07-.865.209-.278.139-.472.378-.583.718l-1.35-.424c.164-.56.475-1.01.933-1.35.462-.339 1.084-.508 1.865-.508.588 0 1.106.096 1.552.288.45.192.783.507 1 .945.118.233.19.472.214.717.025.241.037.505.037.791v4.067h-1.294v-1.435l.214.233c-.298.478-.648.83-1.049 1.055-.396.22-.893.331-1.49.331Zm.294-1.177c.336 0 .622-.06.859-.178.237-.119.425-.264.564-.436.144-.172.24-.333.289-.484.077-.188.12-.403.129-.644.012-.246.018-.444.018-.595l.454.134c-.446.07-.828.131-1.147.184-.32.054-.593.105-.822.154a5.255 5.255 0 0 0-.608.153 1.882 1.882 0 0 0-.435.215.95.95 0 0 0-.276.282.736.736 0 0 0-.092.374c0 .164.04.309.123.436.081.123.2.22.355.294.16.074.356.11.59.11Zm4.308.993v-1.239c.242.045.428.041.559-.012a.568.568 0 0 0 .294-.319c.066-.155.123-.362.172-.62.065-.364.123-.783.171-1.257.054-.474.099-.981.136-1.521.04-.54.077-1.092.11-1.656h4.876v6.624h-1.472v-5.238h-2.104a95.577 95.577 0 0 1-.165 1.89 25.99 25.99 0 0 1-.227 1.723c-.094.478-.23.856-.405 1.135a1.151 1.151 0 0 1-.724.533c-.31.082-.718.068-1.22-.043Zm10.968.184c-.663 0-1.242-.149-1.736-.447a3.077 3.077 0 0 1-1.154-1.233c-.269-.528-.404-1.133-.404-1.816 0-.695.139-1.305.417-1.828a3.072 3.072 0 0 1 1.159-1.227c.495-.294 1.067-.441 1.718-.441.666 0 1.247.149 1.742.447a3.07 3.07 0 0 1 1.153 1.24c.274.523.411 1.126.411 1.809 0 .687-.139 1.294-.417 1.822a3.076 3.076 0 0 1-1.154 1.233c-.494.294-1.073.441-1.735.441Zm0-1.386c.588 0 1.026-.196 1.312-.589.286-.392.43-.9.43-1.521 0-.642-.146-1.153-.436-1.534-.29-.384-.726-.576-1.306-.576-.397 0-.724.09-.982.27a1.552 1.552 0 0 0-.564.742c-.123.315-.184.68-.184 1.098 0 .642.145 1.155.435 1.54.295.38.726.57 1.295.57Zm4.657 1.202v-6.624h4.723v1.386h-3.245v5.238h-1.478Zm8.701.184c-.663 0-1.241-.149-1.736-.447a3.074 3.074 0 0 1-1.153-1.233c-.27-.528-.405-1.133-.405-1.816 0-.695.139-1.305.417-1.828a3.072 3.072 0 0 1 1.159-1.227c.495-.294 1.067-.441 1.718-.441.666 0 1.247.149 1.742.447a3.07 3.07 0 0 1 1.153 1.24c.274.523.411 1.126.411 1.809 0 .687-.139 1.294-.417 1.822a3.08 3.08 0 0 1-1.153 1.233c-.495.294-1.074.441-1.736.441Zm0-1.386c.588 0 1.026-.196 1.312-.589.287-.392.43-.9.43-1.521 0-.642-.145-1.153-.436-1.534-.29-.384-.726-.576-1.306-.576-.397 0-.724.09-.982.27a1.558 1.558 0 0 0-.564.742c-.123.315-.184.68-.184 1.098 0 .642.145 1.155.435 1.54.295.38.726.57 1.295.57Zm10.399-5.422v6.624h-1.417v-4.324L125.5 42.32h-1.184v-6.624h1.417v4.214l3.165-4.214h1.172Zm5.685 6.624v-2.208h-1.184c-.152 0-.342-.004-.571-.012a4.962 4.962 0 0 1-.632-.062 2.27 2.27 0 0 1-1.269-.668c-.336-.356-.503-.838-.503-1.448 0-.597.159-1.077.478-1.441a2.17 2.17 0 0 1 1.245-.7c.213-.044.432-.069.657-.073.229-.008.419-.012.57-.012h2.687v6.624h-1.478Zm-4.331 0 1.583-2.533h1.539l-1.57 2.533h-1.552Zm2.993-3.367h1.338v-2.098h-1.338c-.077 0-.171.004-.282.012a1.87 1.87 0 0 0-.331.055.956.956 0 0 0-.337.19c-.107.09-.195.203-.264.338a.984.984 0 0 0-.104.46c0 .258.073.472.22.644.152.168.328.28.528.337.098.025.198.041.301.05.106.008.196.012.269.012Z" fill="#000"/></svg>