<svg width="26" height="26" fill="none" xmlns="http://www.w3.org/2000/svg"><path d="M22.106 3.778A12.787 12.787 0 0 0 12.994 0C5.891 0 .11 5.78.11 12.884c0 2.27.592 4.486 1.718 6.442L0 26l6.83-1.793a12.845 12.845 0 0 0 6.158 1.567h.006C20.092 25.774 26 19.994 26 12.89c0-3.442-1.462-6.674-3.894-9.112Zm-9.112 19.825a10.69 10.69 0 0 1-5.455-1.491l-.389-.232-4.05 1.062 1.079-3.953-.256-.406a10.673 10.673 0 0 1-1.636-5.7c0-5.9 4.805-10.706 10.713-10.706 2.861 0 5.548 1.115 7.568 3.14 2.02 2.026 3.261 4.713 3.256 7.574 0 5.908-4.928 10.713-10.83 10.713Zm5.873-8.02c-.319-.163-1.903-.94-2.2-1.045-.295-.11-.51-.163-.725.162-.214.325-.83 1.045-1.021 1.266-.186.214-.377.243-.696.08-1.892-.945-3.134-1.688-4.382-3.83-.33-.568.33-.528.946-1.758.104-.215.052-.4-.03-.563-.08-.162-.725-1.747-.992-2.391-.26-.627-.528-.54-.725-.551-.186-.012-.4-.012-.615-.012-.215 0-.563.081-.86.4-.295.326-1.125 1.103-1.125 2.688 0 1.584 1.155 3.116 1.312 3.33.162.216 2.269 3.466 5.501 4.864 2.043.882 2.844.958 3.865.807.621-.093 1.904-.778 2.171-1.532.267-.755.267-1.399.186-1.532-.076-.146-.29-.227-.61-.383Z" fill="#fff"/></svg>